%TF.GenerationSoftware,KiCad,Pcbnew,9.0.7+1*%
%TF.CreationDate,Date%
%TF.ProjectId,DREAM,44524541-4d2e-46b6-9963-61645f706362,1.0.2*%
%TF.SameCoordinates,Original*%
%TF.FileFunction,Legend,Bot*%
%TF.FilePolarity,Positive*%
%FSLAX46Y46*%
G04 Gerber Fmt 4.6, Leading zero omitted, Abs format (unit mm)*
G04 Created by KiCad*
%MOMM*%
%LPD*%
G01*
G04 APERTURE LIST*
G04 Aperture macros list*
%AMRoundRect*
0 Rectangle with rounded corners*
0 $1 Rounding radius*
0 $2 $3 $4 $5 $6 $7 $8 $9 X,Y pos of 4 corners*
0 Add a 4 corners polygon primitive as box body*
4,1,4,$2,$3,$4,$5,$6,$7,$8,$9,$2,$3,0*
0 Add four circle primitives for the rounded corners*
1,1,$1+$1,$2,$3*
1,1,$1+$1,$4,$5*
1,1,$1+$1,$6,$7*
1,1,$1+$1,$8,$9*
0 Add four rect primitives between the rounded corners*
20,1,$1+$1,$2,$3,$4,$5,0*
20,1,$1+$1,$4,$5,$6,$7,0*
20,1,$1+$1,$6,$7,$8,$9,0*
20,1,$1+$1,$8,$9,$2,$3,0*%
G04 Aperture macros list end*
%ADD10C,0.150000*%
%ADD11RoundRect,0.050000X0.850000X-0.850000X0.850000X0.850000X-0.850000X0.850000X-0.850000X-0.850000X0*%
%ADD12C,1.800000*%
%ADD13C,2.300000*%
%ADD14C,4.600000*%
%ADD15C,3.656000*%
%ADD16C,3.910000*%
%ADD17RoundRect,0.262500X0.787500X-0.787500X0.787500X0.787500X-0.787500X0.787500X-0.787500X-0.787500X0*%
%ADD18C,2.100000*%
%ADD19RoundRect,0.050000X1.000000X2.250000X-1.000000X2.250000X-1.000000X-2.250000X1.000000X-2.250000X0*%
%ADD20O,2.100000X4.100000*%
%ADD21O,4.100000X2.100000*%
%ADD22C,0.750000*%
%ADD23O,2.200000X1.100000*%
%ADD24O,1.900000X1.100000*%
%ADD25C,1.600000*%
%ADD26C,0.700000*%
%ADD27C,0.800000*%
G04 APERTURE END LIST*
D10*
X219294400Y-103622800D02*
X225339600Y-103622800D01*
X225339600Y-107128000D01*
X219294400Y-107128000D01*
X219294400Y-103622800D01*
X254000000Y-128500000D02*
X261750000Y-128500000D01*
X261750000Y-136500000D01*
X254000000Y-136500000D01*
X254000000Y-128500000D01*
G36*
X227522205Y-105471102D02*
G01*
X225390109Y-105471102D01*
X225390109Y-105276200D01*
X226595606Y-105276200D01*
X226597681Y-105305390D01*
X226610767Y-105331563D01*
X226632874Y-105350737D01*
X226660637Y-105359991D01*
X226689827Y-105357916D01*
X226716000Y-105344830D01*
X226735174Y-105322723D01*
X226741168Y-105309297D01*
X227003350Y-104522750D01*
X227265532Y-105309297D01*
X227271526Y-105322722D01*
X227290700Y-105344829D01*
X227316873Y-105357916D01*
X227346063Y-105359991D01*
X227373825Y-105350737D01*
X227395933Y-105331563D01*
X227409019Y-105305389D01*
X227411094Y-105276199D01*
X227407834Y-105261863D01*
X227074501Y-104261863D01*
X227068507Y-104248437D01*
X227064995Y-104244388D01*
X227062600Y-104239597D01*
X227055496Y-104233435D01*
X227049333Y-104226330D01*
X227044539Y-104223933D01*
X227040492Y-104220423D01*
X227031570Y-104217449D01*
X227023160Y-104213244D01*
X227017815Y-104212864D01*
X227012730Y-104211169D01*
X227003350Y-104211835D01*
X226993970Y-104211169D01*
X226988884Y-104212864D01*
X226983540Y-104213244D01*
X226975132Y-104217448D01*
X226966207Y-104220423D01*
X226962156Y-104223936D01*
X226957367Y-104226331D01*
X226951208Y-104233431D01*
X226944100Y-104239597D01*
X226941703Y-104244390D01*
X226938193Y-104248438D01*
X226932199Y-104261863D01*
X226598866Y-105261863D01*
X226595606Y-105276200D01*
X225390109Y-105276200D01*
X225390109Y-104651901D01*
X225501220Y-104651901D01*
X225501220Y-104681165D01*
X225512419Y-104708201D01*
X225533111Y-104728893D01*
X225560147Y-104740092D01*
X225574779Y-104741533D01*
X226336683Y-104741533D01*
X226351315Y-104740092D01*
X226378351Y-104728893D01*
X226399043Y-104708201D01*
X226410242Y-104681165D01*
X226410242Y-104651901D01*
X226399043Y-104624865D01*
X226378351Y-104604173D01*
X226351315Y-104592974D01*
X226336683Y-104591533D01*
X225574779Y-104591533D01*
X225560147Y-104592974D01*
X225533111Y-104604173D01*
X225512419Y-104624865D01*
X225501220Y-104651901D01*
X225390109Y-104651901D01*
X225390109Y-104100058D01*
X227522205Y-104100058D01*
X227522205Y-105471102D01*
G37*
G36*
X219235199Y-105471102D02*
G01*
X217103103Y-105471102D01*
X217103103Y-105276200D01*
X218308600Y-105276200D01*
X218310675Y-105305390D01*
X218323761Y-105331563D01*
X218345868Y-105350737D01*
X218373631Y-105359991D01*
X218402821Y-105357916D01*
X218428994Y-105344830D01*
X218448168Y-105322723D01*
X218454162Y-105309297D01*
X218716344Y-104522750D01*
X218978526Y-105309297D01*
X218984520Y-105322722D01*
X219003694Y-105344829D01*
X219029867Y-105357916D01*
X219059057Y-105359991D01*
X219086819Y-105350737D01*
X219108927Y-105331563D01*
X219122013Y-105305389D01*
X219124088Y-105276199D01*
X219120828Y-105261863D01*
X218787495Y-104261863D01*
X218781501Y-104248437D01*
X218777989Y-104244388D01*
X218775594Y-104239597D01*
X218768490Y-104233435D01*
X218762327Y-104226330D01*
X218757533Y-104223933D01*
X218753486Y-104220423D01*
X218744564Y-104217449D01*
X218736154Y-104213244D01*
X218730809Y-104212864D01*
X218725724Y-104211169D01*
X218716344Y-104211835D01*
X218706964Y-104211169D01*
X218701878Y-104212864D01*
X218696534Y-104213244D01*
X218688126Y-104217448D01*
X218679201Y-104220423D01*
X218675150Y-104223936D01*
X218670361Y-104226331D01*
X218664202Y-104233431D01*
X218657094Y-104239597D01*
X218654697Y-104244390D01*
X218651187Y-104248438D01*
X218645193Y-104261863D01*
X218311860Y-105261863D01*
X218308600Y-105276200D01*
X217103103Y-105276200D01*
X217103103Y-104651901D01*
X217214214Y-104651901D01*
X217214214Y-104681165D01*
X217225413Y-104708201D01*
X217246105Y-104728893D01*
X217273141Y-104740092D01*
X217287773Y-104741533D01*
X217593725Y-104741533D01*
X217593725Y-105047485D01*
X217595166Y-105062117D01*
X217606365Y-105089153D01*
X217627057Y-105109845D01*
X217654093Y-105121044D01*
X217683357Y-105121044D01*
X217710393Y-105109845D01*
X217731085Y-105089153D01*
X217742284Y-105062117D01*
X217743725Y-105047485D01*
X217743725Y-104741533D01*
X218049677Y-104741533D01*
X218064309Y-104740092D01*
X218091345Y-104728893D01*
X218112037Y-104708201D01*
X218123236Y-104681165D01*
X218123236Y-104651901D01*
X218112037Y-104624865D01*
X218091345Y-104604173D01*
X218064309Y-104592974D01*
X218049677Y-104591533D01*
X217743725Y-104591533D01*
X217743725Y-104285580D01*
X217742284Y-104270948D01*
X217731085Y-104243912D01*
X217710393Y-104223220D01*
X217683357Y-104212021D01*
X217654093Y-104212021D01*
X217627057Y-104223220D01*
X217606365Y-104243912D01*
X217595166Y-104270948D01*
X217593725Y-104285580D01*
X217593725Y-104591533D01*
X217287773Y-104591533D01*
X217273141Y-104592974D01*
X217246105Y-104604173D01*
X217225413Y-104624865D01*
X217214214Y-104651901D01*
X217103103Y-104651901D01*
X217103103Y-104100058D01*
X219235199Y-104100058D01*
X219235199Y-105471102D01*
G37*
G36*
X253944541Y-135554194D02*
G01*
X252573497Y-135554194D01*
X252573497Y-134607619D01*
X253303066Y-134607619D01*
X253303066Y-135369524D01*
X253304507Y-135384156D01*
X253315706Y-135411192D01*
X253336398Y-135431884D01*
X253363434Y-135443083D01*
X253392698Y-135443083D01*
X253419734Y-135431884D01*
X253440426Y-135411192D01*
X253451625Y-135384156D01*
X253453066Y-135369524D01*
X253453066Y-134607619D01*
X253451625Y-134592987D01*
X253440426Y-134565951D01*
X253419734Y-134545259D01*
X253392698Y-134534060D01*
X253363434Y-134534060D01*
X253336398Y-134545259D01*
X253315706Y-134565951D01*
X253304507Y-134592987D01*
X253303066Y-134607619D01*
X252573497Y-134607619D01*
X252573497Y-133598239D01*
X252684608Y-133598239D01*
X252686683Y-133627429D01*
X252699769Y-133653602D01*
X252721876Y-133672776D01*
X252735302Y-133678770D01*
X253521848Y-133940952D01*
X252735302Y-134203134D01*
X252721876Y-134209128D01*
X252699769Y-134228302D01*
X252686683Y-134254475D01*
X252684608Y-134283665D01*
X252693862Y-134311428D01*
X252713036Y-134333535D01*
X252739209Y-134346621D01*
X252768399Y-134348696D01*
X252782736Y-134345436D01*
X253782736Y-134012103D01*
X253796161Y-134006109D01*
X253800208Y-134002598D01*
X253805002Y-134000202D01*
X253811166Y-133993094D01*
X253818268Y-133986935D01*
X253820663Y-133982143D01*
X253824176Y-133978094D01*
X253827150Y-133969171D01*
X253831355Y-133960762D01*
X253831734Y-133955417D01*
X253833430Y-133950332D01*
X253832763Y-133940952D01*
X253833430Y-133931572D01*
X253831734Y-133926486D01*
X253831355Y-133921142D01*
X253827150Y-133912732D01*
X253824176Y-133903810D01*
X253820663Y-133899760D01*
X253818268Y-133894969D01*
X253811166Y-133888809D01*
X253805002Y-133881702D01*
X253800208Y-133879305D01*
X253796161Y-133875795D01*
X253782736Y-133869801D01*
X252782736Y-133536468D01*
X252768399Y-133533208D01*
X252739209Y-133535283D01*
X252713036Y-133548369D01*
X252693862Y-133570476D01*
X252684608Y-133598239D01*
X252573497Y-133598239D01*
X252573497Y-133422097D01*
X253944541Y-133422097D01*
X253944541Y-135554194D01*
G37*
G36*
X253944541Y-131744194D02*
G01*
X252573497Y-131744194D01*
X252573497Y-131163939D01*
X252923555Y-131163939D01*
X252923555Y-131193203D01*
X252934754Y-131220239D01*
X252955446Y-131240931D01*
X252982482Y-131252130D01*
X252997114Y-131253571D01*
X253303066Y-131253571D01*
X253303066Y-131559524D01*
X253304507Y-131574156D01*
X253315706Y-131601192D01*
X253336398Y-131621884D01*
X253363434Y-131633083D01*
X253392698Y-131633083D01*
X253419734Y-131621884D01*
X253440426Y-131601192D01*
X253451625Y-131574156D01*
X253453066Y-131559524D01*
X253453066Y-131253571D01*
X253759019Y-131253571D01*
X253773651Y-131252130D01*
X253800687Y-131240931D01*
X253821379Y-131220239D01*
X253832578Y-131193203D01*
X253832578Y-131163939D01*
X253821379Y-131136903D01*
X253800687Y-131116211D01*
X253773651Y-131105012D01*
X253759019Y-131103571D01*
X253453066Y-131103571D01*
X253453066Y-130797619D01*
X253451625Y-130782987D01*
X253440426Y-130755951D01*
X253419734Y-130735259D01*
X253392698Y-130724060D01*
X253363434Y-130724060D01*
X253336398Y-130735259D01*
X253315706Y-130755951D01*
X253304507Y-130782987D01*
X253303066Y-130797619D01*
X253303066Y-131103571D01*
X252997114Y-131103571D01*
X252982482Y-131105012D01*
X252955446Y-131116211D01*
X252934754Y-131136903D01*
X252923555Y-131163939D01*
X252573497Y-131163939D01*
X252573497Y-129788239D01*
X252684608Y-129788239D01*
X252686683Y-129817429D01*
X252699769Y-129843602D01*
X252721876Y-129862776D01*
X252735302Y-129868770D01*
X253521848Y-130130952D01*
X252735302Y-130393134D01*
X252721876Y-130399128D01*
X252699769Y-130418302D01*
X252686683Y-130444475D01*
X252684608Y-130473665D01*
X252693862Y-130501428D01*
X252713036Y-130523535D01*
X252739209Y-130536621D01*
X252768399Y-130538696D01*
X252782736Y-130535436D01*
X253782736Y-130202103D01*
X253796161Y-130196109D01*
X253800208Y-130192598D01*
X253805002Y-130190202D01*
X253811166Y-130183094D01*
X253818268Y-130176935D01*
X253820663Y-130172143D01*
X253824176Y-130168094D01*
X253827150Y-130159171D01*
X253831355Y-130150762D01*
X253831734Y-130145417D01*
X253833430Y-130140332D01*
X253832763Y-130130952D01*
X253833430Y-130121572D01*
X253831734Y-130116486D01*
X253831355Y-130111142D01*
X253827150Y-130102732D01*
X253824176Y-130093810D01*
X253820663Y-130089760D01*
X253818268Y-130084969D01*
X253811166Y-130078809D01*
X253805002Y-130071702D01*
X253800208Y-130069305D01*
X253796161Y-130065795D01*
X253782736Y-130059801D01*
X252782736Y-129726468D01*
X252768399Y-129723208D01*
X252739209Y-129725283D01*
X252713036Y-129738369D01*
X252693862Y-129760476D01*
X252684608Y-129788239D01*
X252573497Y-129788239D01*
X252573497Y-129612097D01*
X253944541Y-129612097D01*
X253944541Y-131744194D01*
G37*
%LPC*%
D11*
%TO.C,JP401*%
X242460000Y-131500000D03*
D12*
X245000000Y-131500000D03*
X247539999Y-131500000D03*
%TD*%
D13*
%TO.C,TP604*%
X212665000Y-109160000D03*
D12*
X210720456Y-107215456D03*
X210720456Y-111104544D03*
X214609544Y-107215456D03*
X214609544Y-111104544D03*
%TD*%
D13*
%TO.C,TP602*%
X199330000Y-126940000D03*
D12*
X197385456Y-124995456D03*
X197385456Y-128884544D03*
X201274544Y-124995456D03*
X201274544Y-128884544D03*
%TD*%
D13*
%TO.C,TP603*%
X199330000Y-139640000D03*
D12*
X197385456Y-137695456D03*
X197385456Y-141584544D03*
X201274544Y-137695456D03*
X201274544Y-141584544D03*
%TD*%
D11*
%TO.C,J701*%
X220915000Y-105350000D03*
D12*
X223455000Y-105350000D03*
%TD*%
D14*
%TO.C,H402*%
X167500000Y-107500000D03*
%TD*%
D15*
%TO.C,J602*%
X170000000Y-132500000D03*
D16*
X166825000Y-129325000D03*
X166825000Y-135675000D03*
X173175000Y-129325000D03*
X173175000Y-135675000D03*
%TD*%
D14*
%TO.C,H401*%
X167500000Y-157500000D03*
%TD*%
D17*
%TO.C,J402*%
X257972301Y-134433001D03*
D18*
X257972301Y-130623001D03*
%TD*%
D19*
%TO.C,J401*%
X248050000Y-117500000D03*
D20*
X254250000Y-117500000D03*
D21*
X251250000Y-112800000D03*
%TD*%
D13*
%TO.C,TP601*%
X199330000Y-109160000D03*
D12*
X197385456Y-107215456D03*
X197385456Y-111104544D03*
X201274544Y-107215456D03*
X201274544Y-111104544D03*
%TD*%
D15*
%TO.C,J601*%
X170000000Y-117500000D03*
D16*
X166825000Y-114325000D03*
X166825000Y-120675000D03*
X173175000Y-114325000D03*
X173175000Y-120675000D03*
%TD*%
D14*
%TO.C,H403*%
X257500000Y-107500000D03*
%TD*%
D15*
%TO.C,J603*%
X170000000Y-147500000D03*
D16*
X166825000Y-144325000D03*
X166825000Y-150675000D03*
X173175000Y-144325000D03*
X173175000Y-150675000D03*
%TD*%
D22*
%TO.C,J502*%
X256220000Y-150390000D03*
X256220000Y-144610000D03*
D23*
X255720000Y-151820000D03*
D24*
X259900000Y-151820000D03*
D23*
X255720000Y-143180000D03*
D24*
X259900000Y-143180000D03*
%TD*%
D14*
%TO.C,H404*%
X257500000Y-157500000D03*
%TD*%
D25*
%TO.C,Y501*%
X231615001Y-135830000D03*
X226735001Y-135830000D03*
%TD*%
D26*
X186630000Y-140910000D03*
X194885000Y-126305000D03*
X223020940Y-140098967D03*
X217745000Y-120590000D03*
X186630000Y-142180000D03*
X244415000Y-146625000D03*
X259655000Y-141545000D03*
X193614999Y-126305000D03*
X231080000Y-154245000D03*
X186630000Y-120590000D03*
X240900000Y-103900000D03*
X209490000Y-112335000D03*
X239335000Y-151705000D03*
X244415000Y-139750000D03*
X246320000Y-142180000D03*
X198060000Y-145355000D03*
X234890000Y-135195001D03*
X199761800Y-154880000D03*
X240100000Y-135500000D03*
X193614999Y-112335000D03*
X229175000Y-128210001D03*
X219014999Y-130115000D03*
X260925000Y-141545000D03*
X232985000Y-158690000D03*
X234255000Y-140910000D03*
X198060000Y-133925000D03*
X233356973Y-141808026D03*
X186630000Y-133290000D03*
X250500000Y-146300000D03*
X228540000Y-140910000D03*
X259655000Y-137735000D03*
X217745000Y-111700000D03*
X194885000Y-112335000D03*
X244100000Y-103900000D03*
X243145000Y-150435000D03*
X194250000Y-158055000D03*
X186630000Y-147895000D03*
X241875000Y-151705000D03*
X231715000Y-159325000D03*
X233619999Y-136465000D03*
X217745000Y-119320000D03*
X208219999Y-112335000D03*
X223918967Y-139200941D03*
X247590000Y-133925000D03*
X233619999Y-135195000D03*
X197920000Y-119320000D03*
X211174772Y-144720000D03*
X241875000Y-149165000D03*
X247590000Y-137100000D03*
X197920000Y-120590001D03*
X229810001Y-140910001D03*
X198060000Y-147895000D03*
X193614999Y-140910000D03*
X217745000Y-114875000D03*
X229810000Y-138370001D03*
X179365600Y-122428000D03*
X199330000Y-135195000D03*
X186630000Y-119320000D03*
X213145923Y-156304077D03*
X180635600Y-137455600D03*
X199761800Y-156150000D03*
X209490000Y-140910000D03*
X224095001Y-136465001D03*
X234890000Y-136465001D03*
X222825000Y-136465000D03*
X217745000Y-113605000D03*
X229175000Y-126940000D03*
X240100000Y-136500000D03*
X230445000Y-158690000D03*
X180635600Y-152441600D03*
X199761800Y-159960000D03*
X249672800Y-147500000D03*
X243100000Y-103900000D03*
X179365600Y-137414000D03*
X201235000Y-120590000D03*
X247590000Y-142180000D03*
X249494999Y-151705001D03*
X196155000Y-157420000D03*
X260925000Y-137735000D03*
X230445000Y-154880000D03*
X224095001Y-135195000D03*
X199761800Y-158690000D03*
X249495000Y-153610000D03*
X228539999Y-138370000D03*
X248860000Y-143450000D03*
X243145000Y-147895000D03*
X220285000Y-130115000D03*
X248860000Y-144720000D03*
X231715000Y-157420000D03*
X201235000Y-119320000D03*
X212444773Y-144720001D03*
X240605000Y-150435000D03*
X198060000Y-135195000D03*
X247590000Y-140910000D03*
X179365600Y-152400000D03*
X199330000Y-133925000D03*
X212247897Y-155406051D03*
X249495000Y-150435000D03*
X222825000Y-135194999D03*
X229810000Y-137100000D03*
X194885000Y-140910000D03*
X240605000Y-152975000D03*
X224729999Y-121225000D03*
X217745000Y-112970001D03*
X249494999Y-154880001D03*
X180635600Y-122469600D03*
X248860000Y-142180000D03*
X208219999Y-140910000D03*
X237500000Y-151705000D03*
X226000000Y-112335000D03*
X244415000Y-149165000D03*
X224729999Y-112335000D03*
X228539999Y-137099999D03*
X241100000Y-135500000D03*
X241900000Y-103900000D03*
X257750000Y-147500000D03*
X186630000Y-149165000D03*
X250500000Y-148700000D03*
X226000000Y-121225000D03*
X239335000Y-154245000D03*
X186630000Y-134560000D03*
X201235000Y-148530000D03*
X201235000Y-149800000D03*
X237500000Y-154245000D03*
X246320000Y-140910000D03*
X198060000Y-146625000D03*
X230234972Y-146200028D03*
X228540000Y-153610000D03*
X256934720Y-147075000D03*
X251000000Y-147075000D03*
X256934720Y-147925000D03*
X251000000Y-147925000D03*
X227362004Y-153560725D03*
X232985000Y-148530000D03*
X231715000Y-147260000D03*
X226000000Y-152340000D03*
D27*
X224095000Y-114875000D03*
X228540000Y-114875000D03*
X191075000Y-134560000D03*
X191075000Y-120590000D03*
X191075000Y-125685000D03*
X191075000Y-140275000D03*
D26*
X191075000Y-139005000D03*
X231715000Y-148530000D03*
X227270000Y-152340000D03*
X237430000Y-143450000D03*
X237430000Y-142180000D03*
X237430000Y-140910000D03*
X238700000Y-147260000D03*
X237430000Y-144720000D03*
X224879798Y-146139798D03*
X224095000Y-144720000D03*
%LPD*%
M02*
