%TF.GenerationSoftware,KiCad,Pcbnew,9.0.7+1*%
%TF.CreationDate,Date%
%TF.ProjectId,DREAM,44524541-4d2e-46b6-9963-61645f706362,+ (Unreleased)*%
%TF.SameCoordinates,Original*%
%TF.FileFunction,Paste,Top*%
%TF.FilePolarity,Positive*%
%FSLAX46Y46*%
G04 Gerber Fmt 4.6, Leading zero omitted, Abs format (unit mm)*
G04 Created by KiCad*
%MOMM*%
%LPD*%
G01*
G04 APERTURE LIST*
G04 Aperture macros list*
%AMRoundRect*
0 Rectangle with rounded corners*
0 $1 Rounding radius*
0 $2 $3 $4 $5 $6 $7 $8 $9 X,Y pos of 4 corners*
0 Add a 4 corners polygon primitive as box body*
4,1,4,$2,$3,$4,$5,$6,$7,$8,$9,$2,$3,0*
0 Add four circle primitives for the rounded corners*
1,1,$1+$1,$2,$3*
1,1,$1+$1,$4,$5*
1,1,$1+$1,$6,$7*
1,1,$1+$1,$8,$9*
0 Add four rect primitives between the rounded corners*
20,1,$1+$1,$2,$3,$4,$5,0*
20,1,$1+$1,$4,$5,$6,$7,0*
20,1,$1+$1,$6,$7,$8,$9,0*
20,1,$1+$1,$8,$9,$2,$3,0*%
G04 Aperture macros list end*
%ADD10RoundRect,0.150000X0.512500X0.150000X-0.512500X0.150000X-0.512500X-0.150000X0.512500X-0.150000X0*%
%ADD11RoundRect,0.200000X0.275000X-0.200000X0.275000X0.200000X-0.275000X0.200000X-0.275000X-0.200000X0*%
%ADD12RoundRect,0.250000X-0.250000X0.250000X-0.250000X-0.250000X0.250000X-0.250000X0.250000X0.250000X0*%
%ADD13RoundRect,0.200000X-0.200000X-0.275000X0.200000X-0.275000X0.200000X0.275000X-0.200000X0.275000X0*%
%ADD14RoundRect,0.200000X-0.275000X0.200000X-0.275000X-0.200000X0.275000X-0.200000X0.275000X0.200000X0*%
%ADD15RoundRect,0.200000X0.200000X0.275000X-0.200000X0.275000X-0.200000X-0.275000X0.200000X-0.275000X0*%
%ADD16RoundRect,0.225000X0.017678X-0.335876X0.335876X-0.017678X-0.017678X0.335876X-0.335876X0.017678X0*%
%ADD17RoundRect,0.225000X0.335876X0.017678X0.017678X0.335876X-0.335876X-0.017678X-0.017678X-0.335876X0*%
%ADD18RoundRect,0.225000X-0.250000X0.225000X-0.250000X-0.225000X0.250000X-0.225000X0.250000X0.225000X0*%
%ADD19RoundRect,0.200000X0.053033X-0.335876X0.335876X-0.053033X-0.053033X0.335876X-0.335876X0.053033X0*%
%ADD20RoundRect,0.200000X0.335876X0.053033X0.053033X0.335876X-0.335876X-0.053033X-0.053033X-0.335876X0*%
%ADD21RoundRect,0.150000X-0.825000X-0.150000X0.825000X-0.150000X0.825000X0.150000X-0.825000X0.150000X0*%
%ADD22RoundRect,0.225000X-0.335876X-0.017678X-0.017678X-0.335876X0.335876X0.017678X0.017678X0.335876X0*%
%ADD23RoundRect,0.125000X-0.530330X0.353553X0.353553X-0.530330X0.530330X-0.353553X-0.353553X0.530330X0*%
%ADD24RoundRect,0.125000X-0.530330X-0.353553X-0.353553X-0.530330X0.530330X0.353553X0.353553X0.530330X0*%
%ADD25RoundRect,0.243750X-0.243750X-0.456250X0.243750X-0.456250X0.243750X0.456250X-0.243750X0.456250X0*%
%ADD26RoundRect,0.200000X-0.335876X-0.053033X-0.053033X-0.335876X0.335876X0.053033X0.053033X0.335876X0*%
%ADD27RoundRect,0.225000X0.250000X-0.225000X0.250000X0.225000X-0.250000X0.225000X-0.250000X-0.225000X0*%
%ADD28RoundRect,0.225000X-0.225000X-0.250000X0.225000X-0.250000X0.225000X0.250000X-0.225000X0.250000X0*%
%ADD29RoundRect,0.225000X0.225000X0.250000X-0.225000X0.250000X-0.225000X-0.250000X0.225000X-0.250000X0*%
%ADD30RoundRect,0.250000X0.312500X1.450000X-0.312500X1.450000X-0.312500X-1.450000X0.312500X-1.450000X0*%
%ADD31R,0.914400X2.413000*%
%ADD32R,5.511800X6.070600*%
%ADD33RoundRect,0.070000X-0.430000X-0.280000X0.430000X-0.280000X0.430000X0.280000X-0.430000X0.280000X0*%
%ADD34RoundRect,0.150000X0.425000X-0.150000X0.425000X0.150000X-0.425000X0.150000X-0.425000X-0.150000X0*%
%ADD35RoundRect,0.075000X0.500000X-0.075000X0.500000X0.075000X-0.500000X0.075000X-0.500000X-0.075000X0*%
%ADD36O,2.100000X1.000000*%
%ADD37O,1.800000X1.000000*%
%ADD38RoundRect,0.200000X-0.053033X0.335876X-0.335876X0.053033X0.053033X-0.335876X0.335876X-0.053033X0*%
G04 APERTURE END LIST*
D10*
%TO.C,U501*%
X248637500Y-148449999D03*
X248637500Y-147500000D03*
X248637500Y-146550001D03*
X246362500Y-146550001D03*
X246362500Y-147500000D03*
X246362500Y-148449999D03*
%TD*%
D11*
%TO.C,R612*%
X195520000Y-132845000D03*
X195520000Y-131195000D03*
%TD*%
%TO.C,R608*%
X192980000Y-123510000D03*
X192980000Y-121860000D03*
%TD*%
D12*
%TO.C,D606*%
X180000000Y-148750001D03*
X180000000Y-151249999D03*
%TD*%
D13*
%TO.C,R614*%
X195520000Y-117415000D03*
X197170000Y-117415000D03*
%TD*%
D14*
%TO.C,R622*%
X208855000Y-121225000D03*
X208855000Y-122875000D03*
%TD*%
D15*
%TO.C,R704*%
X228285000Y-129480000D03*
X226635000Y-129480000D03*
%TD*%
D16*
%TO.C,C507*%
X232523984Y-156611016D03*
X233620000Y-155515000D03*
%TD*%
D17*
%TO.C,C515*%
X229636016Y-155976016D03*
X228540000Y-154880000D03*
%TD*%
D15*
%TO.C,R611*%
X198885000Y-132655000D03*
X197235000Y-132655000D03*
%TD*%
D11*
%TO.C,R618*%
X201235000Y-117605000D03*
X201235000Y-115955000D03*
%TD*%
D18*
%TO.C,C607*%
X191075000Y-121860000D03*
X191075000Y-123410000D03*
%TD*%
D12*
%TO.C,D603*%
X180000000Y-128750001D03*
X180000000Y-131249999D03*
%TD*%
D19*
%TO.C,R619*%
X223969674Y-147867926D03*
X225136400Y-146701200D03*
%TD*%
D12*
%TO.C,D604*%
X180000000Y-133750001D03*
X180000000Y-136249999D03*
%TD*%
D20*
%TO.C,R510*%
X215014410Y-150879410D03*
X213847684Y-149712684D03*
%TD*%
D21*
%TO.C,U601*%
X188600000Y-144720000D03*
X188600000Y-145990000D03*
X188600000Y-147260000D03*
X188600000Y-148530000D03*
X193550000Y-148530000D03*
X193550000Y-147260000D03*
X193550000Y-145990000D03*
X193550000Y-144720000D03*
%TD*%
D18*
%TO.C,C501*%
X198695000Y-158410000D03*
X198695000Y-159960000D03*
%TD*%
D14*
%TO.C,R607*%
X203775000Y-150435000D03*
X203775000Y-152085000D03*
%TD*%
D11*
%TO.C,R617*%
X210125000Y-147450000D03*
X210125000Y-145800000D03*
%TD*%
D13*
%TO.C,R603*%
X176675000Y-147500000D03*
X178325000Y-147500000D03*
%TD*%
D14*
%TO.C,R604*%
X186630000Y-115955000D03*
X186630000Y-117605000D03*
%TD*%
D15*
%TO.C,R402*%
X243325000Y-108285499D03*
X241675000Y-108285499D03*
%TD*%
D22*
%TO.C,C508*%
X224268984Y-140448984D03*
X225365000Y-141545000D03*
%TD*%
D12*
%TO.C,D605*%
X180000000Y-143750001D03*
X180000000Y-146249999D03*
%TD*%
D23*
%TO.C,U502*%
X230742728Y-143597930D03*
X230177043Y-144163616D03*
X229611357Y-144729301D03*
X229045672Y-145294986D03*
X228479986Y-145860672D03*
X227914301Y-146426357D03*
X227348616Y-146992043D03*
X226782930Y-147557728D03*
D24*
X226782930Y-149502272D03*
X227348616Y-150067957D03*
X227914301Y-150633643D03*
X228479986Y-151199328D03*
X229045672Y-151765014D03*
X229611357Y-152330699D03*
X230177043Y-152896384D03*
X230742728Y-153462070D03*
D23*
X232687272Y-153462070D03*
X233252957Y-152896384D03*
X233818643Y-152330699D03*
X234384328Y-151765014D03*
X234950014Y-151199328D03*
X235515699Y-150633643D03*
X236081384Y-150067957D03*
X236647070Y-149502272D03*
D24*
X236647070Y-147557728D03*
X236081384Y-146992043D03*
X235515699Y-146426357D03*
X234950014Y-145860672D03*
X234384328Y-145294986D03*
X233818643Y-144729301D03*
X233252957Y-144163616D03*
X232687272Y-143597930D03*
%TD*%
D25*
%TO.C,D501*%
X204742500Y-159325000D03*
X206617500Y-159325000D03*
%TD*%
D13*
%TO.C,R602*%
X176675000Y-132500000D03*
X178325000Y-132500000D03*
%TD*%
D14*
%TO.C,R708*%
X226635000Y-117225000D03*
X226635000Y-118875000D03*
%TD*%
D10*
%TO.C,U401*%
X243637500Y-138449999D03*
X243637500Y-137500000D03*
X243637500Y-136550001D03*
X241362500Y-136550001D03*
X241362500Y-138449999D03*
%TD*%
D13*
%TO.C,R624*%
X187520000Y-141545000D03*
X189170000Y-141545000D03*
%TD*%
%TO.C,R623*%
X190695000Y-141545000D03*
X192345000Y-141545000D03*
%TD*%
D18*
%TO.C,C603*%
X184725000Y-116005000D03*
X184725000Y-117555000D03*
%TD*%
D26*
%TO.C,R620*%
X226051637Y-143501637D03*
X227218363Y-144668363D03*
%TD*%
%TO.C,R615*%
X222190000Y-148530000D03*
X223356726Y-149696726D03*
%TD*%
D21*
%TO.C,U701*%
X219715000Y-125035000D03*
X219715000Y-126305000D03*
X219715000Y-127575000D03*
X219715000Y-128845000D03*
X224665000Y-128845000D03*
X224665000Y-127575000D03*
X224665000Y-126305000D03*
X224665000Y-125035000D03*
%TD*%
D11*
%TO.C,R401*%
X245500000Y-106285499D03*
X245500000Y-104635499D03*
%TD*%
D13*
%TO.C,R703*%
X221365000Y-130750000D03*
X223015000Y-130750000D03*
%TD*%
D27*
%TO.C,C601*%
X194250000Y-143450000D03*
X194250000Y-141900000D03*
%TD*%
D15*
%TO.C,R616*%
X202885000Y-114240000D03*
X201235000Y-114240000D03*
%TD*%
D27*
%TO.C,C616*%
X208855000Y-114875000D03*
X208855000Y-113325000D03*
%TD*%
D14*
%TO.C,R606*%
X189170000Y-135830000D03*
X189170000Y-137480000D03*
%TD*%
D11*
%TO.C,R610*%
X205680000Y-152085000D03*
X205680000Y-150435000D03*
%TD*%
D13*
%TO.C,R506*%
X250575000Y-154245000D03*
X252225000Y-154245000D03*
%TD*%
%TO.C,R601*%
X176675000Y-117500000D03*
X178325000Y-117500000D03*
%TD*%
D28*
%TO.C,C613*%
X195520000Y-145355000D03*
X197070000Y-145355000D03*
%TD*%
D16*
%TO.C,C506*%
X235063984Y-159151016D03*
X236160000Y-158055000D03*
%TD*%
D12*
%TO.C,D601*%
X180000000Y-113750001D03*
X180000000Y-116249999D03*
%TD*%
D14*
%TO.C,R613*%
X211928400Y-145800000D03*
X211928400Y-147450000D03*
%TD*%
D29*
%TO.C,C606*%
X201235000Y-147260000D03*
X199685000Y-147260000D03*
%TD*%
D12*
%TO.C,D602*%
X180000000Y-118750001D03*
X180000000Y-121249999D03*
%TD*%
D21*
%TO.C,U602*%
X203205000Y-144720000D03*
X203205000Y-145990000D03*
X203205000Y-147260000D03*
X203205000Y-148530000D03*
X208155000Y-148530000D03*
X208155000Y-147260000D03*
X208155000Y-145990000D03*
X208155000Y-144720000D03*
%TD*%
D18*
%TO.C,C405*%
X239000000Y-136724999D03*
X239000000Y-138274999D03*
%TD*%
D28*
%TO.C,C705*%
X226635000Y-127575000D03*
X228185000Y-127575000D03*
%TD*%
D25*
%TO.C,D502*%
X204742500Y-155515000D03*
X206617500Y-155515000D03*
%TD*%
D16*
%TO.C,C509*%
X233793984Y-157881016D03*
X234890000Y-156785000D03*
%TD*%
D13*
%TO.C,R701*%
X212920000Y-127575000D03*
X214570000Y-127575000D03*
%TD*%
%TO.C,R501*%
X208665000Y-159325000D03*
X210315000Y-159325000D03*
%TD*%
D28*
%TO.C,C706*%
X226635000Y-125670000D03*
X228185000Y-125670000D03*
%TD*%
D27*
%TO.C,C610*%
X194250000Y-128845000D03*
X194250000Y-127295000D03*
%TD*%
D18*
%TO.C,C608*%
X191075000Y-135830000D03*
X191075000Y-137380000D03*
%TD*%
D19*
%TO.C,R505*%
X234255000Y-142815000D03*
X235421726Y-141648274D03*
%TD*%
D29*
%TO.C,C504*%
X252000000Y-142500000D03*
X250450000Y-142500000D03*
%TD*%
D26*
%TO.C,R503*%
X227270000Y-142283274D03*
X228436726Y-143450000D03*
%TD*%
D30*
%TO.C,F401*%
X249637500Y-126500000D03*
X245362500Y-126500000D03*
%TD*%
D21*
%TO.C,U604*%
X188600000Y-116145000D03*
X188600000Y-117415000D03*
X188600000Y-118685000D03*
X188600000Y-119955000D03*
X193550000Y-119955000D03*
X193550000Y-118685000D03*
X193550000Y-117415000D03*
X193550000Y-116145000D03*
%TD*%
D13*
%TO.C,R702*%
X216095000Y-127575000D03*
X217745000Y-127575000D03*
%TD*%
D21*
%TO.C,U603*%
X188600000Y-130115000D03*
X188600000Y-131385000D03*
X188600000Y-132655000D03*
X188600000Y-133925000D03*
X193550000Y-133925000D03*
X193550000Y-132655000D03*
X193550000Y-131385000D03*
X193550000Y-130115000D03*
%TD*%
D29*
%TO.C,C708*%
X220235000Y-114240000D03*
X218685000Y-114240000D03*
%TD*%
D19*
%TO.C,R508*%
X216227099Y-149666722D03*
X217393825Y-148499996D03*
%TD*%
D31*
%TO.C,Q401*%
X244786000Y-110641999D03*
D32*
X242500000Y-117500000D03*
D31*
X240214000Y-110641999D03*
%TD*%
D13*
%TO.C,R504*%
X250575000Y-151070000D03*
X252225000Y-151070000D03*
%TD*%
D29*
%TO.C,C401*%
X244050000Y-135000000D03*
X242500000Y-135000000D03*
%TD*%
D33*
%TO.C,SW501*%
X190615000Y-156205000D03*
X196615000Y-156205000D03*
X190615000Y-159905000D03*
X196615000Y-159905000D03*
%TD*%
D29*
%TO.C,C505*%
X252000000Y-145500000D03*
X250450000Y-145500000D03*
%TD*%
D14*
%TO.C,R621*%
X212665000Y-119765000D03*
X212665000Y-121415000D03*
%TD*%
D27*
%TO.C,C614*%
X194250000Y-114875000D03*
X194250000Y-113325000D03*
%TD*%
D26*
%TO.C,R507*%
X219504538Y-155369538D03*
X220671264Y-156536264D03*
%TD*%
D28*
%TO.C,C703*%
X216145000Y-129480000D03*
X217695000Y-129480000D03*
%TD*%
D27*
%TO.C,C702*%
X225365000Y-123765000D03*
X225365000Y-122215000D03*
%TD*%
D28*
%TO.C,C605*%
X195520000Y-134560000D03*
X197070000Y-134560000D03*
%TD*%
D27*
%TO.C,C402*%
X238000000Y-105775000D03*
X238000000Y-104225000D03*
%TD*%
%TO.C,C612*%
X210760000Y-121365000D03*
X210760000Y-119815000D03*
%TD*%
D18*
%TO.C,C510*%
X247500000Y-143450000D03*
X247500000Y-145000000D03*
%TD*%
D27*
%TO.C,C701*%
X225365000Y-114875000D03*
X225365000Y-113325000D03*
%TD*%
D28*
%TO.C,C604*%
X195520000Y-119955000D03*
X197070000Y-119955000D03*
%TD*%
%TO.C,C502*%
X230065001Y-139640000D03*
X231615001Y-139640000D03*
%TD*%
D21*
%TO.C,U702*%
X219715000Y-116145000D03*
X219715000Y-117415000D03*
X219715000Y-118685000D03*
X219715000Y-119955000D03*
X224665000Y-119955000D03*
X224665000Y-118685000D03*
X224665000Y-117415000D03*
X224665000Y-116145000D03*
%TD*%
D18*
%TO.C,C609*%
X207585000Y-150435000D03*
X207585000Y-151985000D03*
%TD*%
D13*
%TO.C,R706*%
X218635000Y-112335000D03*
X220285000Y-112335000D03*
%TD*%
D27*
%TO.C,C404*%
X246000000Y-139800000D03*
X246000000Y-138250000D03*
%TD*%
D34*
%TO.C,J501*%
X255145000Y-150700000D03*
X255145000Y-149900000D03*
D35*
X255145001Y-148750000D03*
X255145000Y-147750000D03*
X255145000Y-147250000D03*
X255145001Y-146250000D03*
D34*
X255145000Y-145100000D03*
X255145000Y-144300000D03*
X255145000Y-144300000D03*
X255145000Y-145100000D03*
D35*
X255145000Y-145750000D03*
X255145000Y-146750000D03*
X255145000Y-148250000D03*
X255145000Y-149250000D03*
D34*
X255145000Y-149900000D03*
X255145000Y-150700000D03*
D36*
X255720000Y-151820000D03*
D37*
X259900000Y-151820000D03*
D36*
X255720000Y-143180000D03*
D37*
X259900000Y-143180000D03*
%TD*%
D13*
%TO.C,R502*%
X208665000Y-155515000D03*
X210315000Y-155515000D03*
%TD*%
D29*
%TO.C,C704*%
X217745000Y-125670000D03*
X216195000Y-125670000D03*
%TD*%
D21*
%TO.C,U605*%
X203205000Y-116145000D03*
X203205000Y-117415000D03*
X203205000Y-118685000D03*
X203205000Y-119955000D03*
X208155000Y-119955000D03*
X208155000Y-118685000D03*
X208155000Y-117415000D03*
X208155000Y-116145000D03*
%TD*%
D27*
%TO.C,C403*%
X239500000Y-105775000D03*
X239500000Y-104225000D03*
%TD*%
D11*
%TO.C,R609*%
X192980000Y-137480000D03*
X192980000Y-135830000D03*
%TD*%
D17*
%TO.C,C516*%
X228366016Y-157246016D03*
X227270000Y-156150000D03*
%TD*%
D14*
%TO.C,R605*%
X189170000Y-121860000D03*
X189170000Y-123510000D03*
%TD*%
D29*
%TO.C,C611*%
X211675000Y-117415000D03*
X210125000Y-117415000D03*
%TD*%
D13*
%TO.C,R705*%
X221810000Y-112335000D03*
X223460000Y-112335000D03*
%TD*%
D27*
%TO.C,C602*%
X208855000Y-143450000D03*
X208855000Y-141900000D03*
%TD*%
D28*
%TO.C,C503*%
X226736000Y-139640000D03*
X228286000Y-139640000D03*
%TD*%
D38*
%TO.C,R509*%
X213801722Y-152092099D03*
X212634996Y-153258825D03*
%TD*%
D13*
%TO.C,R707*%
X221365000Y-121860000D03*
X223015000Y-121860000D03*
%TD*%
D29*
%TO.C,C615*%
X197070000Y-147895000D03*
X195520000Y-147895000D03*
%TD*%
M02*
