M48
; DRILL file {KiCad 9.0.7+1} date 2026-04-14T17:29:48+0000
; FORMAT={-:-/ absolute / metric / decimal}
; #@! TF.CreationDate,2026-04-14T17:29:48+00:00
; #@! TF.GenerationSoftware,Kicad,Pcbnew,9.0.7+1
; #@! TF.FileFunction,Plated,1,2,PTH
FMAT,2
METRIC
; #@! TA.AperFunction,Plated,PTH,ViaDrill
T1C0.300
; #@! TA.AperFunction,Plated,PTH,ComponentDrill
T2C0.600
; #@! TA.AperFunction,Plated,PTH,ComponentDrill
T3C0.800
; #@! TA.AperFunction,Plated,PTH,ComponentDrill
T4C1.000
; #@! TA.AperFunction,Plated,PTH,ComponentDrill
T5C1.100
; #@! TA.AperFunction,Plated,PTH,ComponentDrill
T6C1.270
; #@! TA.AperFunction,Plated,PTH,ComponentDrill
T7C1.500
; #@! TA.AperFunction,Plated,PTH,ComponentDrill
T8C1.524
; #@! TA.AperFunction,Plated,PTH,ComponentDrill
T9C2.700
%
G90
G05
T1
X179.366Y-122.428
X179.366Y-137.414
X179.366Y-152.4
X180.636Y-122.47
X180.636Y-137.456
X180.636Y-152.442
X186.63Y-119.32
X186.63Y-120.59
X186.63Y-133.29
X186.63Y-134.56
X186.63Y-140.91
X186.63Y-142.18
X186.63Y-147.895
X186.63Y-149.165
X191.075Y-120.59
X191.075Y-125.685
X191.075Y-134.56
X191.075Y-139.005
X191.075Y-140.275
X193.615Y-112.335
X193.615Y-126.305
X193.615Y-140.91
X194.25Y-158.055
X194.885Y-112.335
X194.885Y-126.305
X194.885Y-140.91
X196.155Y-157.42
X197.92Y-119.32
X197.92Y-120.59
X198.06Y-133.925
X198.06Y-135.195
X198.06Y-145.355
X198.06Y-146.625
X198.06Y-147.895
X199.33Y-133.925
X199.33Y-135.195
X199.762Y-154.88
X199.762Y-156.15
X199.762Y-158.69
X199.762Y-159.96
X201.235Y-119.32
X201.235Y-120.59
X201.235Y-148.53
X201.235Y-149.8
X208.22Y-112.335
X208.22Y-140.91
X209.49Y-112.335
X209.49Y-140.91
X211.175Y-144.72
X212.248Y-155.406
X212.445Y-144.72
X213.146Y-156.304
X217.745Y-111.7
X217.745Y-112.97
X217.745Y-113.605
X217.745Y-114.875
X217.745Y-119.32
X217.745Y-120.59
X219.015Y-130.115
X220.285Y-130.115
X222.952Y-134.56
X222.952Y-135.83
X222.952Y-137.1
X223.079Y-139.894
X223.46Y-138.116
X223.65Y-133.481
X224.095Y-114.875
X224.095Y-144.72
X224.603Y-138.624
X224.73Y-112.335
X224.73Y-121.225
X224.73Y-132.782
X224.88Y-146.14
X225.746Y-139.64
X225.889Y-140.69
X226.0Y-112.335
X226.0Y-121.225
X226.0Y-132.782
X226.0Y-152.34
X227.016Y-141.799
X227.27Y-132.782
X227.27Y-152.34
X227.362Y-153.561
X228.54Y-114.875
X228.54Y-132.782
X228.54Y-153.61
X229.175Y-126.94
X229.175Y-128.21
X229.175Y-140.656
X229.81Y-132.782
X230.044Y-146.01
X230.445Y-154.88
X230.445Y-158.69
X230.826Y-141.799
X231.08Y-132.782
X231.08Y-154.245
X231.715Y-140.91
X231.715Y-147.26
X231.715Y-148.53
X231.715Y-157.42
X231.715Y-159.325
X231.857Y-145.37
X232.35Y-132.782
X232.667Y-139.957
X232.985Y-148.53
X232.985Y-158.69
X233.357Y-141.808
X233.62Y-132.782
X233.62Y-139.005
X234.255Y-140.91
X234.572Y-138.052
X234.636Y-133.417
X235.398Y-134.56
X235.398Y-135.83
X235.398Y-137.1
X237.43Y-140.91
X237.43Y-142.18
X237.43Y-143.45
X237.43Y-144.72
X237.5Y-151.705
X237.5Y-154.245
X238.7Y-147.26
X239.335Y-151.705
X239.335Y-154.245
X240.1Y-135.5
X240.1Y-136.5
X240.605Y-150.435
X240.605Y-152.975
X240.9Y-103.9
X241.1Y-135.5
X241.875Y-149.165
X241.875Y-151.705
X241.9Y-103.9
X243.1Y-103.9
X243.145Y-147.895
X243.145Y-150.435
X244.1Y-103.9
X244.415Y-139.75
X244.415Y-146.625
X244.415Y-149.165
X246.32Y-140.91
X246.32Y-142.18
X247.59Y-133.925
X247.59Y-137.1
X247.59Y-140.91
X247.59Y-142.18
X248.86Y-142.18
X248.86Y-143.45
X248.86Y-144.72
X249.495Y-151.705
X249.495Y-154.88
X249.495Y-150.435
X249.495Y-153.61
X249.673Y-147.5
X250.5Y-146.3
X250.5Y-148.7
X251.0Y-147.075
X251.0Y-147.925
X256.935Y-147.075
X256.935Y-147.925
X257.75Y-147.5
X259.655Y-137.735
X259.655Y-141.545
X260.925Y-137.735
X260.925Y-141.545
T3
X226.735Y-135.83
X231.615Y-135.83
T4
X197.385Y-107.215
X197.385Y-111.105
X197.385Y-124.995
X197.385Y-128.885
X197.385Y-137.695
X197.385Y-141.585
X201.275Y-107.215
X201.275Y-111.105
X201.275Y-124.995
X201.275Y-128.885
X201.275Y-137.695
X201.275Y-141.585
X210.72Y-107.215
X210.72Y-111.105
X214.61Y-107.215
X214.61Y-111.105
X220.915Y-105.35
X223.455Y-105.35
X242.46Y-131.5
X245.0Y-131.5
X247.54Y-131.5
T5
X257.972Y-130.623
X257.972Y-134.433
T6
X170.0Y-117.5
X170.0Y-132.5
X170.0Y-147.5
T7
X199.33Y-109.16
X199.33Y-126.94
X199.33Y-139.64
X212.665Y-109.16
T8
X166.825Y-114.325
X166.825Y-120.675
X166.825Y-129.325
X166.825Y-135.675
X166.825Y-144.325
X166.825Y-150.675
X173.175Y-114.325
X173.175Y-120.675
X173.175Y-129.325
X173.175Y-135.675
X173.175Y-144.325
X173.175Y-150.675
T9
X167.5Y-107.5
X167.5Y-157.5
X257.5Y-107.5
X257.5Y-157.5
T2
G00X255.17Y-143.18
M15
G01X256.27Y-143.18
M16
G05
G00X255.17Y-151.82
M15
G01X256.27Y-151.82
M16
G05
G00X259.5Y-143.18
M15
G01X260.3Y-143.18
M16
G05
G00X259.5Y-151.82
M15
G01X260.3Y-151.82
M16
G05
T4
G00X248.05Y-118.75
M15
G01X248.05Y-116.25
M16
G05
G00X252.25Y-112.8
M15
G01X250.25Y-112.8
M16
G05
G00X254.25Y-118.5
M15
G01X254.25Y-116.5
M16
G05
M30
