%TF.GenerationSoftware,KiCad,Pcbnew,9.0.7+1*%
%TF.CreationDate,Date%
%TF.ProjectId,DREAM,44524541-4d2e-46b6-9963-61645f706362,1.1.0*%
%TF.SameCoordinates,Original*%
%TF.FileFunction,Copper,L2,Bot*%
%TF.FilePolarity,Positive*%
%FSLAX46Y46*%
G04 Gerber Fmt 4.6, Leading zero omitted, Abs format (unit mm)*
G04 Created by KiCad*
%MOMM*%
%LPD*%
G01*
G04 APERTURE LIST*
G04 Aperture macros list*
%AMRoundRect*
0 Rectangle with rounded corners*
0 $1 Rounding radius*
0 $2 $3 $4 $5 $6 $7 $8 $9 X,Y pos of 4 corners*
0 Add a 4 corners polygon primitive as box body*
4,1,4,$2,$3,$4,$5,$6,$7,$8,$9,$2,$3,0*
0 Add four circle primitives for the rounded corners*
1,1,$1+$1,$2,$3*
1,1,$1+$1,$4,$5*
1,1,$1+$1,$6,$7*
1,1,$1+$1,$8,$9*
0 Add four rect primitives between the rounded corners*
20,1,$1+$1,$2,$3,$4,$5,0*
20,1,$1+$1,$4,$5,$6,$7,0*
20,1,$1+$1,$6,$7,$8,$9,0*
20,1,$1+$1,$8,$9,$2,$3,0*%
G04 Aperture macros list end*
%TA.AperFunction,NonConductor*%
%ADD10C,0.000000*%
%TD*%
%TA.AperFunction,NonConductor*%
%ADD11C,0.165463*%
%TD*%
%ADD12C,0.250000*%
%TA.AperFunction,NonConductor*%
%ADD13C,0.250000*%
%TD*%
%ADD14C,0.300000*%
%TA.AperFunction,NonConductor*%
%ADD15C,0.300000*%
%TD*%
%TA.AperFunction,EtchedComponent*%
%ADD16C,0.200000*%
%TD*%
%TA.AperFunction,ComponentPad*%
%ADD17R,1.700000X1.700000*%
%TD*%
%TA.AperFunction,ComponentPad*%
%ADD18C,1.700000*%
%TD*%
%TA.AperFunction,TestPad*%
%ADD19C,2.200000*%
%TD*%
%TA.AperFunction,TestPad*%
%ADD20C,1.700000*%
%TD*%
%TA.AperFunction,ComponentPad*%
%ADD21C,4.500000*%
%TD*%
%TA.AperFunction,ComponentPad*%
%ADD22C,3.556000*%
%TD*%
%TA.AperFunction,ComponentPad*%
%ADD23C,3.810000*%
%TD*%
%TA.AperFunction,ComponentPad*%
%ADD24RoundRect,0.250000X0.750000X-0.750000X0.750000X0.750000X-0.750000X0.750000X-0.750000X-0.750000X0*%
%TD*%
%TA.AperFunction,ComponentPad*%
%ADD25C,2.000000*%
%TD*%
%TA.AperFunction,ComponentPad*%
%ADD26R,2.000000X4.500000*%
%TD*%
%TA.AperFunction,ComponentPad*%
%ADD27O,2.000000X4.000000*%
%TD*%
%TA.AperFunction,ComponentPad*%
%ADD28O,4.000000X2.000000*%
%TD*%
%TA.AperFunction,HeatsinkPad*%
%ADD29O,2.100000X1.000000*%
%TD*%
%TA.AperFunction,HeatsinkPad*%
%ADD30O,1.800000X1.000000*%
%TD*%
%TA.AperFunction,ComponentPad*%
%ADD31C,1.500000*%
%TD*%
%TA.AperFunction,ViaPad*%
%ADD32C,0.600000*%
%TD*%
%TA.AperFunction,ViaPad*%
%ADD33C,0.700000*%
%TD*%
%TA.AperFunction,Conductor*%
%ADD34C,0.200000*%
%TD*%
%TA.AperFunction,Conductor*%
%ADD35C,0.300000*%
%TD*%
G04 APERTURE END LIST*
D10*
%TA.AperFunction,NonConductor*%
G36*
X179210553Y-108526235D02*
G01*
X179228403Y-108527049D01*
X179246003Y-108528405D01*
X179263348Y-108530304D01*
X179280440Y-108532746D01*
X179297279Y-108535731D01*
X179313864Y-108539257D01*
X179330196Y-108543327D01*
X179346276Y-108547939D01*
X179362101Y-108553094D01*
X179377674Y-108558791D01*
X179392993Y-108565030D01*
X179408060Y-108571815D01*
X179422873Y-108579140D01*
X179437432Y-108587007D01*
X179451740Y-108595417D01*
X179466010Y-108604316D01*
X179479883Y-108613655D01*
X179493356Y-108623436D01*
X179506434Y-108633664D01*
X179519113Y-108644345D01*
X179531394Y-108655483D01*
X179543277Y-108667082D01*
X179554762Y-108679146D01*
X179565850Y-108691681D01*
X179576538Y-108704691D01*
X179586830Y-108718179D01*
X179596723Y-108732153D01*
X179606218Y-108746614D01*
X179615316Y-108761569D01*
X179624016Y-108777019D01*
X179632318Y-108792972D01*
X179640439Y-108809377D01*
X179648020Y-108826179D01*
X179655063Y-108843380D01*
X179661570Y-108860979D01*
X179667543Y-108878975D01*
X179672986Y-108897370D01*
X179677899Y-108916162D01*
X179682284Y-108935351D01*
X179686148Y-108954939D01*
X179689487Y-108974925D01*
X179692307Y-108995308D01*
X179694609Y-109016090D01*
X179696395Y-109037270D01*
X179697668Y-109058847D01*
X179698431Y-109080822D01*
X179698684Y-109103196D01*
X179698431Y-109125298D01*
X179697669Y-109147035D01*
X179696395Y-109168406D01*
X179694609Y-109189409D01*
X179692307Y-109210041D01*
X179689487Y-109230299D01*
X179686147Y-109250184D01*
X179682285Y-109269690D01*
X179677900Y-109288816D01*
X179672986Y-109307561D01*
X179667543Y-109325920D01*
X179661570Y-109343894D01*
X179655062Y-109361478D01*
X179648020Y-109378671D01*
X179640439Y-109395471D01*
X179632317Y-109411876D01*
X179624016Y-109427574D01*
X179615320Y-109442837D01*
X179606229Y-109457661D01*
X179596747Y-109472044D01*
X179586878Y-109485984D01*
X179576620Y-109499479D01*
X179565978Y-109512526D01*
X179554955Y-109525123D01*
X179543552Y-109537268D01*
X179531771Y-109548959D01*
X179519615Y-109560192D01*
X179507085Y-109570967D01*
X179494185Y-109581280D01*
X179480917Y-109591130D01*
X179467281Y-109600515D01*
X179453283Y-109609431D01*
X179438705Y-109617841D01*
X179423907Y-109625709D01*
X179408888Y-109633034D01*
X179393645Y-109639816D01*
X179378176Y-109646057D01*
X179362478Y-109651755D01*
X179346549Y-109656909D01*
X179330389Y-109661521D01*
X179313993Y-109665591D01*
X179297360Y-109669118D01*
X179280487Y-109672102D01*
X179263372Y-109674544D01*
X179246013Y-109676444D01*
X179228407Y-109677799D01*
X179210553Y-109678613D01*
X179192448Y-109678884D01*
X179169513Y-109678450D01*
X179158210Y-109677909D01*
X179147014Y-109677148D01*
X179135927Y-109676173D01*
X179124948Y-109674977D01*
X179114078Y-109673567D01*
X179103316Y-109671939D01*
X179092663Y-109670094D01*
X179082119Y-109668032D01*
X179071683Y-109665752D01*
X179061354Y-109663257D01*
X179051136Y-109660544D01*
X179041025Y-109657614D01*
X179031023Y-109654467D01*
X179021130Y-109651103D01*
X179011363Y-109647541D01*
X179001741Y-109643796D01*
X178992263Y-109639872D01*
X178982931Y-109635765D01*
X178973742Y-109631479D01*
X178964699Y-109627011D01*
X178955800Y-109622363D01*
X178947046Y-109617534D01*
X178938437Y-109612524D01*
X178929973Y-109607334D01*
X178921653Y-109601961D01*
X178913477Y-109596409D01*
X178905447Y-109590675D01*
X178897561Y-109584760D01*
X178889820Y-109578665D01*
X178882223Y-109572390D01*
X178874517Y-109565951D01*
X178867025Y-109559366D01*
X178859740Y-109552639D01*
X178852658Y-109545766D01*
X178845776Y-109538748D01*
X178839087Y-109531586D01*
X178832589Y-109524279D01*
X178826276Y-109516827D01*
X178820144Y-109509230D01*
X178814188Y-109501489D01*
X178808404Y-109493602D01*
X178802787Y-109485573D01*
X178797333Y-109477398D01*
X178792038Y-109469078D01*
X178786897Y-109460613D01*
X178781903Y-109452005D01*
X178777075Y-109443268D01*
X178772432Y-109434425D01*
X178767979Y-109425472D01*
X178763720Y-109416409D01*
X178759660Y-109407239D01*
X178755804Y-109397961D01*
X178752155Y-109388574D01*
X178748720Y-109379078D01*
X178745501Y-109369474D01*
X178742504Y-109359762D01*
X178739733Y-109349941D01*
X178737192Y-109340011D01*
X178734887Y-109329973D01*
X178732822Y-109319826D01*
X178731000Y-109309571D01*
X178729428Y-109299208D01*
X178902288Y-109299207D01*
X178903789Y-109306081D01*
X178905400Y-109312814D01*
X178907117Y-109319413D01*
X178908944Y-109325880D01*
X178910879Y-109332220D01*
X178912923Y-109338438D01*
X178915075Y-109344538D01*
X178917336Y-109350526D01*
X178919706Y-109356405D01*
X178922183Y-109362179D01*
X178924770Y-109367855D01*
X178927464Y-109373436D01*
X178930267Y-109378926D01*
X178933180Y-109384330D01*
X178936200Y-109389653D01*
X178939329Y-109394899D01*
X178942839Y-109400054D01*
X178946422Y-109405099D01*
X178950084Y-109410036D01*
X178953823Y-109414866D01*
X178957645Y-109419587D01*
X178961548Y-109424199D01*
X178965539Y-109428702D01*
X178969619Y-109433097D01*
X178973787Y-109437384D01*
X178978050Y-109441561D01*
X178982408Y-109445632D01*
X178986862Y-109449592D01*
X178991417Y-109453445D01*
X178996071Y-109457189D01*
X179000831Y-109460824D01*
X179005696Y-109464351D01*
X179010380Y-109467770D01*
X179015171Y-109471083D01*
X179020065Y-109474291D01*
X179025061Y-109477398D01*
X179030157Y-109480405D01*
X179035349Y-109483316D01*
X179040637Y-109486130D01*
X179046018Y-109488853D01*
X179057048Y-109494029D01*
X179068421Y-109498861D01*
X179080121Y-109503368D01*
X179092127Y-109507567D01*
X179103841Y-109510823D01*
X179115808Y-109513644D01*
X179127993Y-109516031D01*
X179140359Y-109517984D01*
X179152868Y-109519505D01*
X179165487Y-109520589D01*
X179178177Y-109521240D01*
X179190904Y-109521457D01*
X179202968Y-109521276D01*
X179214854Y-109520731D01*
X179226564Y-109519819D01*
X179238099Y-109518539D01*
X179249462Y-109516889D01*
X179260656Y-109514864D01*
X179271682Y-109512467D01*
X179282544Y-109509689D01*
X179293243Y-109506533D01*
X179303781Y-109502993D01*
X179314161Y-109499071D01*
X179324384Y-109494761D01*
X179334455Y-109490063D01*
X179344374Y-109484973D01*
X179354143Y-109479490D01*
X179363765Y-109473612D01*
X179373189Y-109467625D01*
X179382359Y-109461243D01*
X179391276Y-109454468D01*
X179399939Y-109447302D01*
X179408349Y-109439747D01*
X179416506Y-109431804D01*
X179424410Y-109423479D01*
X179432061Y-109414770D01*
X179439459Y-109405681D01*
X179446602Y-109396216D01*
X179453494Y-109386375D01*
X179460132Y-109376161D01*
X179466516Y-109365576D01*
X179472648Y-109354623D01*
X179478526Y-109343304D01*
X179484151Y-109331619D01*
X179489469Y-109319863D01*
X179494427Y-109307751D01*
X179499029Y-109295285D01*
X179503275Y-109282472D01*
X179507167Y-109269314D01*
X179510711Y-109255818D01*
X179513906Y-109241986D01*
X179516756Y-109227824D01*
X179519261Y-109213339D01*
X179521425Y-109198531D01*
X179523250Y-109183407D01*
X179524738Y-109167969D01*
X179525891Y-109152225D01*
X179526712Y-109136180D01*
X179527203Y-109119835D01*
X179527366Y-109103195D01*
X179527202Y-109086302D01*
X179526712Y-109069765D01*
X179525891Y-109053583D01*
X179524738Y-109037746D01*
X179523250Y-109022254D01*
X179521425Y-109007102D01*
X179519261Y-108992283D01*
X179516755Y-108977794D01*
X179513906Y-108963632D01*
X179510711Y-108949791D01*
X179507168Y-108936265D01*
X179503275Y-108923052D01*
X179499029Y-108910146D01*
X179494427Y-108897543D01*
X179489468Y-108885239D01*
X179484151Y-108873230D01*
X179478526Y-108861818D01*
X179472647Y-108850732D01*
X179466516Y-108839978D01*
X179460132Y-108829556D01*
X179453495Y-108819468D01*
X179446603Y-108809716D01*
X179439459Y-108800306D01*
X179432061Y-108791236D01*
X179424410Y-108782509D01*
X179416507Y-108774129D01*
X179408349Y-108766096D01*
X179399938Y-108758415D01*
X179391276Y-108751085D01*
X179382359Y-108744111D01*
X179373190Y-108737494D01*
X179363766Y-108731235D01*
X179354143Y-108725340D01*
X179344374Y-108719808D01*
X179334455Y-108714643D01*
X179324385Y-108709846D01*
X179314161Y-108705419D01*
X179303781Y-108701366D01*
X179293243Y-108697689D01*
X179282544Y-108694387D01*
X179271682Y-108691467D01*
X179260656Y-108688928D01*
X179249462Y-108686774D01*
X179238099Y-108685008D01*
X179226564Y-108683628D01*
X179214855Y-108682640D01*
X179202970Y-108682046D01*
X179190904Y-108681847D01*
X179177731Y-108682064D01*
X179164811Y-108682716D01*
X179152109Y-108683801D01*
X179139587Y-108685320D01*
X179127209Y-108687273D01*
X179114940Y-108689661D01*
X179102744Y-108692483D01*
X179090583Y-108695738D01*
X179079086Y-108699938D01*
X179067770Y-108704444D01*
X179056672Y-108709275D01*
X179051214Y-108711820D01*
X179045826Y-108714452D01*
X179040508Y-108717174D01*
X179035267Y-108719989D01*
X179030109Y-108722899D01*
X179025037Y-108725907D01*
X179020055Y-108729013D01*
X179015168Y-108732223D01*
X179010380Y-108735534D01*
X179005696Y-108738953D01*
X179000831Y-108742750D01*
X178996071Y-108746621D01*
X178991416Y-108750565D01*
X178986862Y-108754581D01*
X178982408Y-108758667D01*
X178978051Y-108762828D01*
X178973788Y-108767060D01*
X178969619Y-108771364D01*
X178965540Y-108775740D01*
X178961549Y-108780191D01*
X178957646Y-108784712D01*
X178953823Y-108789307D01*
X178950084Y-108793973D01*
X178946423Y-108798712D01*
X178942839Y-108803523D01*
X178939330Y-108808406D01*
X178936201Y-108813669D01*
X178933180Y-108819038D01*
X178930268Y-108824511D01*
X178927465Y-108830084D01*
X178924770Y-108835760D01*
X178922183Y-108841533D01*
X178917335Y-108853357D01*
X178912924Y-108865545D01*
X178908944Y-108878077D01*
X178905398Y-108890933D01*
X178902288Y-108904097D01*
X178729428Y-108904097D01*
X178731271Y-108892901D01*
X178733334Y-108881884D01*
X178735613Y-108871042D01*
X178738109Y-108860376D01*
X178740823Y-108849879D01*
X178743752Y-108839554D01*
X178746899Y-108829396D01*
X178750263Y-108819403D01*
X178753845Y-108809571D01*
X178757643Y-108799902D01*
X178761658Y-108790391D01*
X178765889Y-108781035D01*
X178770340Y-108771833D01*
X178775006Y-108762782D01*
X178779891Y-108753881D01*
X178784990Y-108745127D01*
X178790000Y-108736263D01*
X178795191Y-108727611D01*
X178800563Y-108719160D01*
X178806115Y-108710908D01*
X178811849Y-108702843D01*
X178817763Y-108694963D01*
X178823858Y-108687260D01*
X178830134Y-108679726D01*
X178836590Y-108672354D01*
X178843229Y-108665138D01*
X178850048Y-108658072D01*
X178857047Y-108651148D01*
X178864229Y-108644360D01*
X178871588Y-108637701D01*
X178879132Y-108631164D01*
X178886855Y-108624742D01*
X178894451Y-108618755D01*
X178902192Y-108612949D01*
X178910078Y-108607322D01*
X178918109Y-108601880D01*
X178926284Y-108596617D01*
X178934604Y-108591534D01*
X178943068Y-108586633D01*
X178951678Y-108581913D01*
X178960430Y-108577373D01*
X178969330Y-108573014D01*
X178978374Y-108568835D01*
X178987561Y-108564838D01*
X178996894Y-108561023D01*
X179006372Y-108557387D01*
X179015994Y-108553933D01*
X179025761Y-108550658D01*
X179045585Y-108544723D01*
X179065696Y-108539638D01*
X179086098Y-108535384D01*
X179106789Y-108531945D01*
X179127770Y-108529301D01*
X179149041Y-108527435D01*
X179170599Y-108526328D01*
X179192448Y-108525964D01*
X179210553Y-108526235D01*
G37*
%TD.AperFunction*%
%TA.AperFunction,NonConductor*%
G36*
X184612387Y-109215865D02*
G01*
X184612387Y-109663450D01*
X184441069Y-109663450D01*
X184441069Y-109215865D01*
X184028981Y-108539855D01*
X184228079Y-108539854D01*
X184436439Y-108899467D01*
X184444913Y-108913354D01*
X184453005Y-108927224D01*
X184460774Y-108941057D01*
X184468271Y-108954836D01*
X184482669Y-108982159D01*
X184496633Y-109009049D01*
X184503577Y-109023306D01*
X184510522Y-109038325D01*
X184517467Y-109054139D01*
X184524413Y-109070785D01*
X184525256Y-109072912D01*
X184525569Y-109072135D01*
X184532443Y-109055602D01*
X184539172Y-109039843D01*
X184545755Y-109024847D01*
X184552196Y-109010592D01*
X184566398Y-108983679D01*
X184581326Y-108956187D01*
X184597122Y-108928116D01*
X184605390Y-108913864D01*
X184613930Y-108899467D01*
X184825376Y-108539854D01*
X185026019Y-108539854D01*
X184612387Y-109215865D01*
G37*
%TD.AperFunction*%
%TA.AperFunction,NonConductor*%
G36*
X180870207Y-109184996D02*
G01*
X180881204Y-109217406D01*
X180884270Y-109226957D01*
X180887354Y-109237086D01*
X180890401Y-109247793D01*
X180893358Y-109259079D01*
X180900304Y-109281627D01*
X180907250Y-109305188D01*
X180914194Y-109329617D01*
X180921138Y-109354770D01*
X180928085Y-109380888D01*
X180935030Y-109406281D01*
X180948922Y-109456634D01*
X180952852Y-109472738D01*
X180958181Y-109453548D01*
X180961147Y-109440881D01*
X180964258Y-109428324D01*
X180967513Y-109415836D01*
X180970914Y-109403388D01*
X180978149Y-109378452D01*
X180985962Y-109353228D01*
X181012200Y-109257536D01*
X181018880Y-109236434D01*
X181025126Y-109217214D01*
X181028132Y-109208355D01*
X181031083Y-109200019D01*
X181033998Y-109192227D01*
X181036894Y-109184996D01*
X181280752Y-108539854D01*
X181533870Y-108539855D01*
X181533870Y-109663450D01*
X181367183Y-109663449D01*
X181367183Y-109059980D01*
X181367207Y-109040592D01*
X181367376Y-109019465D01*
X181367834Y-108996606D01*
X181368725Y-108972006D01*
X181370270Y-108868599D01*
X181373356Y-108759017D01*
X181374092Y-108711182D01*
X181372006Y-108717922D01*
X181363203Y-108747032D01*
X181354835Y-108775995D01*
X181336508Y-108833486D01*
X181327704Y-108861509D01*
X181319337Y-108888664D01*
X181310366Y-108914708D01*
X181301973Y-108939595D01*
X181294161Y-108963326D01*
X181286925Y-108985897D01*
X181283455Y-108996677D01*
X181280004Y-109007023D01*
X181276589Y-109016932D01*
X181273228Y-109026412D01*
X181266741Y-109044064D01*
X181260688Y-109059980D01*
X181029178Y-109663450D01*
X180881011Y-109663450D01*
X180651043Y-109059980D01*
X180648587Y-109052236D01*
X180645859Y-109044039D01*
X180639661Y-109026219D01*
X180624806Y-108984354D01*
X180609758Y-108937280D01*
X180601366Y-108911862D01*
X180592395Y-108885576D01*
X180584051Y-108857771D01*
X180575417Y-108829821D01*
X180566783Y-108801581D01*
X180558439Y-108772907D01*
X180549447Y-108743993D01*
X180540884Y-108715223D01*
X180538555Y-108707197D01*
X180538569Y-108710786D01*
X180539027Y-108737698D01*
X180539919Y-108765190D01*
X180543006Y-108874772D01*
X180544549Y-108976638D01*
X180544549Y-109059980D01*
X180544549Y-109663449D01*
X180374775Y-109663450D01*
X180374776Y-108539854D01*
X180627893Y-108539854D01*
X180870207Y-109184996D01*
G37*
%TD.AperFunction*%
D11*
X185949284Y-108338372D02*
X177766980Y-108338372D01*
X177766980Y-105521239D01*
X185949284Y-105521239D01*
X185949284Y-108338372D01*
D10*
%TA.AperFunction,NonConductor*%
G36*
X179885971Y-108058051D02*
G01*
X179537161Y-108058051D01*
X179537161Y-106860368D01*
X179537692Y-106825063D01*
X179539090Y-106783969D01*
X179543334Y-106684420D01*
X179548350Y-106564420D01*
X179551582Y-106498198D01*
X179555681Y-106428213D01*
X179563619Y-106229763D01*
X179530601Y-106291237D01*
X179490329Y-106367395D01*
X179453817Y-106437476D01*
X179385523Y-106558632D01*
X179354412Y-106613712D01*
X179324170Y-106665899D01*
X179295858Y-106714564D01*
X179266679Y-106763518D01*
X179206871Y-106863455D01*
X178447515Y-108058051D01*
X178049316Y-108058051D01*
X178049316Y-105810853D01*
X178398125Y-105810852D01*
X178398126Y-107088793D01*
X178398077Y-107129932D01*
X178397740Y-107174838D01*
X178396824Y-107223792D01*
X178395041Y-107277087D01*
X178390409Y-107389756D01*
X178385779Y-107511685D01*
X178376133Y-107638244D01*
X178375270Y-107648136D01*
X178381150Y-107635158D01*
X178409991Y-107573807D01*
X178438255Y-107514771D01*
X178467821Y-107458582D01*
X178496518Y-107405576D01*
X178524637Y-107355463D01*
X178538570Y-107331402D01*
X178552466Y-107307956D01*
X178577354Y-107263341D01*
X178601084Y-107221911D01*
X178623656Y-107183373D01*
X178645071Y-107147441D01*
X179490858Y-105810852D01*
X179885971Y-105810852D01*
X179885971Y-108058051D01*
G37*
%TD.AperFunction*%
%TA.AperFunction,NonConductor*%
G36*
X185680376Y-106915931D02*
G01*
X185680376Y-108058051D01*
X185337740Y-108058051D01*
X185337740Y-107209178D01*
X184880891Y-107209178D01*
X184859744Y-107208967D01*
X184405522Y-108058051D01*
X184013496Y-108058051D01*
X184509685Y-107151129D01*
X184489927Y-107143299D01*
X184467426Y-107133382D01*
X184445652Y-107122747D01*
X184424561Y-107112039D01*
X184404123Y-107100753D01*
X184384336Y-107088888D01*
X184365200Y-107076444D01*
X184346716Y-107063422D01*
X184328883Y-107049820D01*
X184311699Y-107035642D01*
X184295168Y-107020882D01*
X184279288Y-107005544D01*
X184264059Y-106989628D01*
X184249481Y-106973134D01*
X184235553Y-106956058D01*
X184222278Y-106938406D01*
X184209654Y-106920176D01*
X184197680Y-106901365D01*
X184186358Y-106881977D01*
X184175722Y-106862116D01*
X184165805Y-106841889D01*
X184156603Y-106821293D01*
X184148110Y-106800321D01*
X184140323Y-106778969D01*
X184133237Y-106757231D01*
X184126847Y-106735106D01*
X184121149Y-106712587D01*
X184116138Y-106689670D01*
X184111810Y-106666351D01*
X184108161Y-106642624D01*
X184105185Y-106618487D01*
X184102877Y-106593934D01*
X184101235Y-106568960D01*
X184100253Y-106543562D01*
X184099927Y-106517732D01*
X184448737Y-106517732D01*
X184448918Y-106533215D01*
X184449461Y-106548407D01*
X184450367Y-106563311D01*
X184451630Y-106577925D01*
X184453259Y-106592249D01*
X184455248Y-106606286D01*
X184457600Y-106620032D01*
X184460313Y-106633487D01*
X184463387Y-106646655D01*
X184466823Y-106659532D01*
X184470622Y-106672121D01*
X184474782Y-106684420D01*
X184479304Y-106696429D01*
X184484187Y-106708150D01*
X184489433Y-106719580D01*
X184495039Y-106730722D01*
X184501588Y-106742082D01*
X184508502Y-106753023D01*
X184515786Y-106763556D01*
X184523448Y-106773697D01*
X184531488Y-106783457D01*
X184539913Y-106792850D01*
X184548726Y-106801891D01*
X184557933Y-106810593D01*
X184567538Y-106818971D01*
X184577545Y-106827034D01*
X184587960Y-106834801D01*
X184598785Y-106842281D01*
X184610027Y-106849491D01*
X184621689Y-106856444D01*
X184633776Y-106863151D01*
X184646293Y-106869630D01*
X184659279Y-106875235D01*
X184672772Y-106880481D01*
X184686772Y-106885364D01*
X184701277Y-106889886D01*
X184716290Y-106894046D01*
X184731808Y-106897843D01*
X184747833Y-106901280D01*
X184764364Y-106904355D01*
X184781401Y-106907068D01*
X184798945Y-106909419D01*
X184816996Y-106911409D01*
X184835554Y-106913037D01*
X184874187Y-106915207D01*
X184914846Y-106915932D01*
X185337740Y-106915930D01*
X185337740Y-106107186D01*
X184914847Y-106107186D01*
X184894263Y-106107367D01*
X184874187Y-106107915D01*
X184854617Y-106108834D01*
X184835554Y-106110129D01*
X184816997Y-106111801D01*
X184798946Y-106113861D01*
X184781402Y-106116306D01*
X184764364Y-106119147D01*
X184747834Y-106122386D01*
X184731808Y-106126026D01*
X184716288Y-106130074D01*
X184701277Y-106134533D01*
X184686771Y-106139408D01*
X184672772Y-106144704D01*
X184659281Y-106150425D01*
X184646293Y-106156575D01*
X184633776Y-106163087D01*
X184621689Y-106169893D01*
X184610027Y-106176997D01*
X184598784Y-106184405D01*
X184587960Y-106192120D01*
X184577545Y-106200146D01*
X184567538Y-106208489D01*
X184557933Y-106217154D01*
X184548726Y-106226144D01*
X184539913Y-106235465D01*
X184531488Y-106245118D01*
X184523448Y-106255112D01*
X184515787Y-106265449D01*
X184508502Y-106276135D01*
X184501588Y-106287173D01*
X184495039Y-106298568D01*
X184489433Y-106310289D01*
X184484187Y-106322292D01*
X184479304Y-106334577D01*
X184474782Y-106347137D01*
X184470622Y-106359969D01*
X184466824Y-106373068D01*
X184463388Y-106386429D01*
X184460313Y-106400047D01*
X184457601Y-106413918D01*
X184455248Y-106428040D01*
X184453259Y-106442404D01*
X184451632Y-106457008D01*
X184450365Y-106471848D01*
X184449460Y-106486918D01*
X184448918Y-106502214D01*
X184448737Y-106517732D01*
X184099927Y-106517732D01*
X184100253Y-106491902D01*
X184101235Y-106466498D01*
X184102877Y-106441510D01*
X184105183Y-106416928D01*
X184108160Y-106392745D01*
X184111810Y-106368951D01*
X184116137Y-106345535D01*
X184121149Y-106322491D01*
X184126847Y-106299809D01*
X184133237Y-106277479D01*
X184140323Y-106255493D01*
X184148110Y-106233842D01*
X184156603Y-106212516D01*
X184165806Y-106191507D01*
X184175722Y-106170804D01*
X184186358Y-106150403D01*
X184197138Y-106130977D01*
X184208641Y-106112064D01*
X184220868Y-106093666D01*
X184233818Y-106075788D01*
X184247491Y-106058434D01*
X184261888Y-106041610D01*
X184277009Y-106025318D01*
X184292853Y-106009566D01*
X184309421Y-105994355D01*
X184326712Y-105979692D01*
X184344726Y-105965581D01*
X184363464Y-105952025D01*
X184382925Y-105939031D01*
X184403109Y-105926601D01*
X184424018Y-105914742D01*
X184445650Y-105903456D01*
X184467425Y-105892243D01*
X184489921Y-105881752D01*
X184513130Y-105871985D01*
X184537049Y-105862942D01*
X184561673Y-105854622D01*
X184586998Y-105847026D01*
X184613020Y-105840153D01*
X184639735Y-105834003D01*
X184667135Y-105828577D01*
X184695218Y-105823875D01*
X184723980Y-105819896D01*
X184753416Y-105816640D01*
X184783520Y-105814109D01*
X184814290Y-105812299D01*
X184845719Y-105811214D01*
X184877804Y-105810852D01*
X185680376Y-105810852D01*
X185680376Y-106915931D01*
G37*
%TD.AperFunction*%
%TA.AperFunction,NonConductor*%
G36*
X186020050Y-109513740D02*
G01*
X186020050Y-109663450D01*
X185933618Y-109663450D01*
X185655806Y-109663450D01*
X185634590Y-109663180D01*
X185613772Y-109662368D01*
X185593352Y-109661019D01*
X185573331Y-109659134D01*
X185553706Y-109656715D01*
X185534480Y-109653765D01*
X185515653Y-109650286D01*
X185497221Y-109646279D01*
X185479189Y-109641749D01*
X185461554Y-109636697D01*
X185444318Y-109631124D01*
X185427479Y-109625035D01*
X185411038Y-109618428D01*
X185394995Y-109611309D01*
X185379350Y-109603678D01*
X185364103Y-109595541D01*
X185349272Y-109586912D01*
X185334874Y-109577818D01*
X185320912Y-109568258D01*
X185307382Y-109558233D01*
X185294288Y-109547748D01*
X185281627Y-109536804D01*
X185269401Y-109525402D01*
X185257608Y-109513547D01*
X185246251Y-109501239D01*
X185235325Y-109488482D01*
X185224835Y-109475276D01*
X185214779Y-109461626D01*
X185205157Y-109447532D01*
X185195969Y-109432998D01*
X185187215Y-109418025D01*
X185178895Y-109402615D01*
X185171317Y-109386517D01*
X185164211Y-109370056D01*
X185157581Y-109353228D01*
X185151428Y-109336032D01*
X185145753Y-109318465D01*
X185140560Y-109300525D01*
X185135851Y-109282210D01*
X185131628Y-109263516D01*
X185127893Y-109244443D01*
X185124649Y-109224989D01*
X185121898Y-109205149D01*
X185119641Y-109184923D01*
X185117885Y-109164309D01*
X185116625Y-109143303D01*
X185115868Y-109121904D01*
X185115614Y-109100109D01*
X185283846Y-109100109D01*
X185284026Y-109116713D01*
X185284563Y-109132960D01*
X185285453Y-109148856D01*
X185286692Y-109164401D01*
X185288274Y-109179605D01*
X185290194Y-109194468D01*
X185292450Y-109208996D01*
X185295036Y-109223196D01*
X185297947Y-109237068D01*
X185301179Y-109250620D01*
X185304728Y-109263856D01*
X185308588Y-109276780D01*
X185312757Y-109289396D01*
X185317229Y-109301709D01*
X185321998Y-109313724D01*
X185327061Y-109325445D01*
X185332433Y-109336840D01*
X185338133Y-109347876D01*
X185344163Y-109358554D01*
X185350525Y-109368878D01*
X185357223Y-109378848D01*
X185364257Y-109388469D01*
X185371630Y-109397741D01*
X185379344Y-109406667D01*
X185387402Y-109415250D01*
X185395806Y-109423491D01*
X185404558Y-109431393D01*
X185413661Y-109438959D01*
X185423116Y-109446188D01*
X185432927Y-109453085D01*
X185443094Y-109459654D01*
X185453620Y-109465895D01*
X185464219Y-109471519D01*
X185475177Y-109476814D01*
X185486492Y-109481773D01*
X185498162Y-109486393D01*
X185510185Y-109490670D01*
X185522559Y-109494597D01*
X185535279Y-109498175D01*
X185548347Y-109501393D01*
X185561757Y-109504250D01*
X185575510Y-109506741D01*
X185589601Y-109508861D01*
X185604029Y-109510605D01*
X185618793Y-109511970D01*
X185633888Y-109512950D01*
X185649313Y-109513542D01*
X185665066Y-109513740D01*
X185848731Y-109513739D01*
X185848731Y-108691108D01*
X185655806Y-108691109D01*
X185640630Y-108691289D01*
X185625779Y-108691834D01*
X185611248Y-108692746D01*
X185597035Y-108694026D01*
X185583141Y-108695677D01*
X185569559Y-108697701D01*
X185556290Y-108700100D01*
X185543332Y-108702876D01*
X185530678Y-108706033D01*
X185518333Y-108709571D01*
X185506288Y-108713494D01*
X185494545Y-108717804D01*
X185483100Y-108722502D01*
X185471951Y-108727592D01*
X185461096Y-108733075D01*
X185450533Y-108738953D01*
X185440549Y-108744922D01*
X185430858Y-108751252D01*
X185421460Y-108757944D01*
X185412358Y-108764998D01*
X185403555Y-108772414D01*
X185395052Y-108780190D01*
X185386855Y-108788330D01*
X185378958Y-108796831D01*
X185371371Y-108805693D01*
X185364094Y-108814917D01*
X185357129Y-108824503D01*
X185350478Y-108834452D01*
X185344143Y-108844760D01*
X185338127Y-108855432D01*
X185332433Y-108866465D01*
X185327061Y-108877859D01*
X185321998Y-108889308D01*
X185317228Y-108901082D01*
X185312757Y-108913183D01*
X185308589Y-108925608D01*
X185304728Y-108938359D01*
X185301179Y-108951436D01*
X185297948Y-108964839D01*
X185295036Y-108978566D01*
X185292450Y-108992620D01*
X185290194Y-109006998D01*
X185288274Y-109021703D01*
X185286694Y-109036733D01*
X185285453Y-109052089D01*
X185284563Y-109067770D01*
X185284025Y-109083777D01*
X185283846Y-109100109D01*
X185115614Y-109100109D01*
X185115868Y-109078587D01*
X185116624Y-109057427D01*
X185117884Y-109036635D01*
X185119642Y-109016211D01*
X185121897Y-108996157D01*
X185124648Y-108976477D01*
X185127893Y-108957172D01*
X185131629Y-108938245D01*
X185135851Y-108919697D01*
X185140560Y-108901533D01*
X185145753Y-108883750D01*
X185151427Y-108866356D01*
X185157581Y-108849351D01*
X185164211Y-108832736D01*
X185171317Y-108816515D01*
X185178895Y-108800689D01*
X185187197Y-108785280D01*
X185195899Y-108770307D01*
X185205004Y-108755772D01*
X185214515Y-108741678D01*
X185224430Y-108728028D01*
X185234756Y-108714824D01*
X185245493Y-108702065D01*
X185256644Y-108689757D01*
X185268210Y-108677902D01*
X185280196Y-108666501D01*
X185292601Y-108655557D01*
X185305429Y-108645071D01*
X185318683Y-108635047D01*
X185332363Y-108625486D01*
X185346474Y-108616391D01*
X185361016Y-108607764D01*
X185375955Y-108599626D01*
X185391260Y-108591996D01*
X185406931Y-108584877D01*
X185422969Y-108578271D01*
X185439379Y-108572181D01*
X185456162Y-108566608D01*
X185473320Y-108561555D01*
X185490855Y-108557026D01*
X185508770Y-108553019D01*
X185527070Y-108549540D01*
X185545749Y-108546591D01*
X185564817Y-108544171D01*
X185584275Y-108542287D01*
X185604123Y-108540937D01*
X185624364Y-108540125D01*
X185645002Y-108539854D01*
X185848731Y-108539854D01*
X186020049Y-108539854D01*
X186020050Y-109513740D01*
G37*
%TD.AperFunction*%
%TA.AperFunction,NonConductor*%
G36*
X180102210Y-109663449D02*
G01*
X179929349Y-109663450D01*
X179929349Y-108539854D01*
X180102210Y-108539854D01*
X180102210Y-109663449D01*
G37*
%TD.AperFunction*%
%TA.AperFunction,NonConductor*%
G36*
X182737690Y-109663450D02*
G01*
X182552481Y-109663450D01*
X182451507Y-109367117D01*
X182009695Y-109367118D01*
X181905795Y-109663450D01*
X181720587Y-109663450D01*
X181879496Y-109223582D01*
X182060021Y-109223582D01*
X182402599Y-109223581D01*
X182339492Y-109038373D01*
X182327361Y-109000463D01*
X182314220Y-108958502D01*
X182300208Y-108912490D01*
X182285473Y-108862425D01*
X182253060Y-108747828D01*
X182233575Y-108676581D01*
X182232177Y-108681582D01*
X182213704Y-108745706D01*
X182180521Y-108859338D01*
X182165762Y-108909451D01*
X182151582Y-108955801D01*
X182137981Y-108998679D01*
X182124959Y-109038373D01*
X182060021Y-109223582D01*
X181879496Y-109223582D01*
X182126503Y-108539854D01*
X182337948Y-108539855D01*
X182581198Y-109223581D01*
X182737690Y-109663450D01*
G37*
%TD.AperFunction*%
%TA.AperFunction,NonConductor*%
G36*
X178133247Y-108526109D02*
G01*
X178147156Y-108526548D01*
X178160884Y-108527286D01*
X178174431Y-108528327D01*
X178187797Y-108529675D01*
X178200982Y-108531336D01*
X178213986Y-108533312D01*
X178226810Y-108535610D01*
X178239453Y-108538233D01*
X178251915Y-108541188D01*
X178264195Y-108544474D01*
X178276296Y-108548103D01*
X178288215Y-108552074D01*
X178299953Y-108556392D01*
X178311512Y-108561063D01*
X178322887Y-108566091D01*
X178334028Y-108571155D01*
X178344876Y-108576504D01*
X178355433Y-108582134D01*
X178365691Y-108588036D01*
X178375653Y-108594213D01*
X178385313Y-108600656D01*
X178394670Y-108607361D01*
X178403722Y-108614325D01*
X178412467Y-108621541D01*
X178420902Y-108629004D01*
X178429025Y-108636713D01*
X178436833Y-108644661D01*
X178444326Y-108652845D01*
X178451498Y-108661258D01*
X178458350Y-108669899D01*
X178464880Y-108678761D01*
X178471320Y-108687840D01*
X178477327Y-108697135D01*
X178482905Y-108706640D01*
X178488056Y-108716357D01*
X178492780Y-108726282D01*
X178497083Y-108736412D01*
X178500966Y-108746746D01*
X178504430Y-108757281D01*
X178507478Y-108768015D01*
X178510112Y-108778946D01*
X178512334Y-108790071D01*
X178514148Y-108801388D01*
X178515555Y-108812895D01*
X178516558Y-108824591D01*
X178517157Y-108836471D01*
X178517356Y-108848534D01*
X178517065Y-108862824D01*
X178516192Y-108876756D01*
X178514730Y-108890335D01*
X178512677Y-108903566D01*
X178510027Y-108916454D01*
X178506775Y-108929002D01*
X178502917Y-108941217D01*
X178498448Y-108953100D01*
X178493366Y-108964657D01*
X178487663Y-108975896D01*
X178481337Y-108986816D01*
X178474381Y-108997426D01*
X178466793Y-109007726D01*
X178458567Y-109017724D01*
X178449699Y-109027424D01*
X178440185Y-109036830D01*
X178430383Y-109045674D01*
X178420079Y-109054262D01*
X178409277Y-109062594D01*
X178397983Y-109070664D01*
X178386200Y-109078472D01*
X178373933Y-109086016D01*
X178361187Y-109093294D01*
X178347967Y-109100302D01*
X178334275Y-109107039D01*
X178320121Y-109113502D01*
X178305503Y-109119690D01*
X178290427Y-109125599D01*
X178274900Y-109131228D01*
X178258926Y-109136574D01*
X178242509Y-109141637D01*
X178225652Y-109146410D01*
X178094464Y-109181909D01*
X178079121Y-109186034D01*
X178064319Y-109190301D01*
X178050024Y-109194715D01*
X178036199Y-109199272D01*
X178022809Y-109203975D01*
X178009817Y-109208822D01*
X177997187Y-109213814D01*
X177984882Y-109218951D01*
X177978896Y-109221591D01*
X177973086Y-109224304D01*
X177967453Y-109227090D01*
X177961996Y-109229947D01*
X177956710Y-109232877D01*
X177951593Y-109235881D01*
X177946644Y-109238954D01*
X177941860Y-109242101D01*
X177937238Y-109245321D01*
X177932777Y-109248613D01*
X177928474Y-109251978D01*
X177924326Y-109255413D01*
X177920334Y-109258922D01*
X177916493Y-109262504D01*
X177912800Y-109266157D01*
X177909255Y-109269883D01*
X177905891Y-109273989D01*
X177902744Y-109278209D01*
X177899814Y-109282547D01*
X177897101Y-109287005D01*
X177894605Y-109291591D01*
X177892326Y-109296307D01*
X177890264Y-109301160D01*
X177888419Y-109306153D01*
X177886790Y-109311290D01*
X177885381Y-109316577D01*
X177884187Y-109322017D01*
X177883210Y-109327616D01*
X177882450Y-109333377D01*
X177881907Y-109339306D01*
X177881582Y-109345406D01*
X177881474Y-109351682D01*
X177881599Y-109358285D01*
X177881981Y-109364780D01*
X177882613Y-109371172D01*
X177883499Y-109377464D01*
X177884639Y-109383654D01*
X177886032Y-109389747D01*
X177887678Y-109395745D01*
X177889576Y-109401651D01*
X177891729Y-109407465D01*
X177894135Y-109413193D01*
X177896793Y-109418834D01*
X177899705Y-109424392D01*
X177902870Y-109429868D01*
X177906289Y-109435265D01*
X177909960Y-109440585D01*
X177913885Y-109445830D01*
X177917756Y-109450951D01*
X177921843Y-109455893D01*
X177926148Y-109460664D01*
X177930669Y-109465267D01*
X177935408Y-109469709D01*
X177940364Y-109473991D01*
X177945537Y-109478120D01*
X177950926Y-109482100D01*
X177956534Y-109485934D01*
X177962358Y-109489630D01*
X177968399Y-109493190D01*
X177974657Y-109496617D01*
X177981132Y-109499920D01*
X177987823Y-109503098D01*
X177994733Y-109506162D01*
X178001859Y-109509110D01*
X178008859Y-109511912D01*
X178015969Y-109514536D01*
X178023194Y-109516978D01*
X178030533Y-109519238D01*
X178037988Y-109521318D01*
X178045565Y-109523217D01*
X178053264Y-109524934D01*
X178061087Y-109526473D01*
X178069036Y-109527829D01*
X178077115Y-109529005D01*
X178085324Y-109530000D01*
X178093667Y-109530814D01*
X178102146Y-109531447D01*
X178110762Y-109531899D01*
X178119519Y-109532170D01*
X178128418Y-109532262D01*
X178144413Y-109531968D01*
X178152259Y-109531599D01*
X178160010Y-109531079D01*
X178167670Y-109530405D01*
X178175246Y-109529575D01*
X178182738Y-109528586D01*
X178190153Y-109527437D01*
X178197497Y-109526126D01*
X178204775Y-109524650D01*
X178211988Y-109523006D01*
X178219142Y-109521192D01*
X178226241Y-109519206D01*
X178233292Y-109517046D01*
X178240296Y-109514711D01*
X178247260Y-109512197D01*
X178254116Y-109509791D01*
X178260791Y-109507205D01*
X178267293Y-109504438D01*
X178273619Y-109501489D01*
X178279773Y-109498360D01*
X178285758Y-109495051D01*
X178291575Y-109491560D01*
X178297228Y-109487888D01*
X178302718Y-109484037D01*
X178308047Y-109480002D01*
X178313218Y-109475789D01*
X178318233Y-109471393D01*
X178323094Y-109466817D01*
X178327804Y-109462060D01*
X178332364Y-109457123D01*
X178336779Y-109452004D01*
X178340993Y-109446993D01*
X178344958Y-109441806D01*
X178348681Y-109436442D01*
X178352163Y-109430903D01*
X178355411Y-109425192D01*
X178358427Y-109419313D01*
X178361218Y-109413265D01*
X178363787Y-109407053D01*
X178366140Y-109400678D01*
X178368279Y-109394142D01*
X178370211Y-109387448D01*
X178371938Y-109380598D01*
X178373467Y-109373594D01*
X178374802Y-109366439D01*
X178375946Y-109359135D01*
X178376906Y-109351683D01*
X178548224Y-109351683D01*
X178547447Y-109364309D01*
X178546277Y-109376715D01*
X178544717Y-109388906D01*
X178542773Y-109400879D01*
X178540451Y-109412635D01*
X178537752Y-109424175D01*
X178534682Y-109435497D01*
X178531246Y-109446602D01*
X178527449Y-109457490D01*
X178523294Y-109468162D01*
X178518787Y-109478615D01*
X178513930Y-109488853D01*
X178508732Y-109498873D01*
X178503192Y-109508676D01*
X178497320Y-109518261D01*
X178491117Y-109527630D01*
X178484316Y-109536764D01*
X178477226Y-109545642D01*
X178469837Y-109554262D01*
X178462155Y-109562623D01*
X178454174Y-109570722D01*
X178445892Y-109578554D01*
X178437307Y-109586121D01*
X178428417Y-109593419D01*
X178419220Y-109600445D01*
X178409712Y-109607197D01*
X178399894Y-109613674D01*
X178389760Y-109619873D01*
X178379309Y-109625792D01*
X178368541Y-109631427D01*
X178357452Y-109636778D01*
X178346038Y-109641843D01*
X178334336Y-109646618D01*
X178322378Y-109651100D01*
X178310162Y-109655289D01*
X178297686Y-109659181D01*
X178284948Y-109662776D01*
X178271946Y-109666069D01*
X178258675Y-109669060D01*
X178245138Y-109671746D01*
X178231327Y-109674124D01*
X178217245Y-109676192D01*
X178202885Y-109677949D01*
X178188249Y-109679391D01*
X178173332Y-109680516D01*
X178158132Y-109681323D01*
X178142646Y-109681809D01*
X178126875Y-109681972D01*
X178110542Y-109681809D01*
X178094529Y-109681320D01*
X178078834Y-109680507D01*
X178063451Y-109679367D01*
X178048374Y-109677902D01*
X178033601Y-109676112D01*
X178019127Y-109673995D01*
X178004946Y-109671554D01*
X177991054Y-109668786D01*
X177977448Y-109665693D01*
X177964122Y-109662273D01*
X177951072Y-109658530D01*
X177938292Y-109654461D01*
X177925780Y-109650066D01*
X177913530Y-109645345D01*
X177901538Y-109640299D01*
X177890142Y-109634692D01*
X177879103Y-109628865D01*
X177868419Y-109622817D01*
X177858080Y-109616545D01*
X177848087Y-109610047D01*
X177838433Y-109603321D01*
X177829113Y-109596364D01*
X177820124Y-109589174D01*
X177811459Y-109581750D01*
X177803116Y-109574087D01*
X177795088Y-109566185D01*
X177787376Y-109558041D01*
X177779967Y-109549654D01*
X177772863Y-109541018D01*
X177766057Y-109532135D01*
X177759545Y-109523001D01*
X177753668Y-109513650D01*
X177748184Y-109504122D01*
X177743094Y-109494416D01*
X177738396Y-109484536D01*
X177734086Y-109474484D01*
X177730163Y-109464264D01*
X177726625Y-109453877D01*
X177723468Y-109443324D01*
X177720691Y-109432607D01*
X177718293Y-109421730D01*
X177716267Y-109410695D01*
X177714617Y-109399504D01*
X177713337Y-109388160D01*
X177712426Y-109376665D01*
X177711880Y-109365019D01*
X177711699Y-109353227D01*
X177711808Y-109343769D01*
X177712136Y-109334488D01*
X177712688Y-109325391D01*
X177713459Y-109316475D01*
X177714458Y-109307739D01*
X177715687Y-109299184D01*
X177717147Y-109290809D01*
X177718838Y-109282617D01*
X177720764Y-109274605D01*
X177722928Y-109266772D01*
X177725332Y-109259121D01*
X177727978Y-109251652D01*
X177730867Y-109244363D01*
X177734004Y-109237256D01*
X177737388Y-109230327D01*
X177741023Y-109223581D01*
X177744859Y-109216725D01*
X177748838Y-109210046D01*
X177752962Y-109203540D01*
X177757229Y-109197199D01*
X177761642Y-109191021D01*
X177766200Y-109185002D01*
X177770904Y-109179137D01*
X177775752Y-109173421D01*
X177780743Y-109167850D01*
X177785880Y-109162418D01*
X177791161Y-109157122D01*
X177796586Y-109151958D01*
X177802158Y-109146920D01*
X177807873Y-109142004D01*
X177813733Y-109137206D01*
X177819737Y-109132520D01*
X177831971Y-109123477D01*
X177844384Y-109114867D01*
X177857013Y-109106692D01*
X177869898Y-109098951D01*
X177883071Y-109091644D01*
X177896570Y-109084772D01*
X177910431Y-109078333D01*
X177924689Y-109072328D01*
X177938577Y-109066751D01*
X177952446Y-109061572D01*
X177966280Y-109056755D01*
X177980059Y-109052264D01*
X177993765Y-109048062D01*
X178007382Y-109044112D01*
X178034269Y-109036830D01*
X178143852Y-109007506D01*
X178165219Y-109001380D01*
X178176245Y-108998010D01*
X178187453Y-108994387D01*
X178198806Y-108990474D01*
X178210267Y-108986235D01*
X178221800Y-108981635D01*
X178233369Y-108976637D01*
X178239374Y-108974268D01*
X178245237Y-108971790D01*
X178250960Y-108969203D01*
X178256545Y-108966508D01*
X178261994Y-108963705D01*
X178267309Y-108960793D01*
X178272494Y-108957773D01*
X178277549Y-108954643D01*
X178282478Y-108951406D01*
X178287283Y-108948061D01*
X178291965Y-108944605D01*
X178296528Y-108941042D01*
X178300973Y-108937371D01*
X178305302Y-108933590D01*
X178309520Y-108929703D01*
X178313626Y-108925705D01*
X178317551Y-108921309D01*
X178321223Y-108916800D01*
X178324641Y-108912172D01*
X178327806Y-108907424D01*
X178330718Y-108902550D01*
X178333377Y-108897544D01*
X178335783Y-108892402D01*
X178337935Y-108887120D01*
X178339834Y-108881693D01*
X178341480Y-108876117D01*
X178342873Y-108870387D01*
X178344012Y-108864500D01*
X178344899Y-108858449D01*
X178345532Y-108852230D01*
X178345912Y-108845840D01*
X178346038Y-108839274D01*
X178345930Y-108833252D01*
X178345604Y-108827334D01*
X178345062Y-108821521D01*
X178344302Y-108815810D01*
X178343325Y-108810199D01*
X178342131Y-108804683D01*
X178340720Y-108799264D01*
X178339093Y-108793937D01*
X178337248Y-108788700D01*
X178335186Y-108783550D01*
X178332907Y-108778490D01*
X178330410Y-108773511D01*
X178327698Y-108768614D01*
X178324768Y-108763796D01*
X178321621Y-108759053D01*
X178318257Y-108754387D01*
X178314965Y-108749812D01*
X178311458Y-108745347D01*
X178307740Y-108740995D01*
X178303811Y-108736759D01*
X178299674Y-108732641D01*
X178295332Y-108728640D01*
X178290785Y-108724764D01*
X178286038Y-108721011D01*
X178281092Y-108717385D01*
X178275949Y-108713888D01*
X178270611Y-108710523D01*
X178265082Y-108707289D01*
X178259362Y-108704192D01*
X178253455Y-108701234D01*
X178247362Y-108698413D01*
X178241087Y-108695739D01*
X178234919Y-108693206D01*
X178228577Y-108690820D01*
X178222062Y-108688586D01*
X178215379Y-108686502D01*
X178208533Y-108684571D01*
X178201531Y-108682797D01*
X178194374Y-108681181D01*
X178187067Y-108679726D01*
X178179616Y-108678434D01*
X178172026Y-108677305D01*
X178164299Y-108676344D01*
X178156441Y-108675553D01*
X178148456Y-108674934D01*
X178140350Y-108674489D01*
X178132126Y-108674221D01*
X178123789Y-108674131D01*
X178112033Y-108674294D01*
X178100499Y-108674785D01*
X178089190Y-108675606D01*
X178078114Y-108676758D01*
X178067271Y-108678247D01*
X178056668Y-108680072D01*
X178046309Y-108682236D01*
X178036200Y-108684742D01*
X178026342Y-108687591D01*
X178016743Y-108690785D01*
X178007408Y-108694329D01*
X177998338Y-108698222D01*
X177989540Y-108702468D01*
X177981017Y-108707071D01*
X177972776Y-108712028D01*
X177964817Y-108717346D01*
X177957220Y-108722699D01*
X177950056Y-108728339D01*
X177943320Y-108734265D01*
X177937012Y-108740472D01*
X177931129Y-108746961D01*
X177925669Y-108753727D01*
X177920629Y-108760769D01*
X177916007Y-108768085D01*
X177911802Y-108775672D01*
X177908010Y-108783527D01*
X177904630Y-108791651D01*
X177901659Y-108800037D01*
X177899095Y-108808688D01*
X177896935Y-108817597D01*
X177895178Y-108826765D01*
X177893821Y-108836187D01*
X177725591Y-108836188D01*
X177726078Y-108824990D01*
X177726962Y-108813971D01*
X177728239Y-108803122D01*
X177729907Y-108792442D01*
X177731964Y-108781923D01*
X177734407Y-108771564D01*
X177737236Y-108761357D01*
X177740446Y-108751300D01*
X177744035Y-108741389D01*
X177748003Y-108731616D01*
X177752345Y-108721980D01*
X177757061Y-108712475D01*
X177762148Y-108703095D01*
X177767604Y-108693839D01*
X177773424Y-108684700D01*
X177779609Y-108675674D01*
X177785849Y-108667101D01*
X177792411Y-108658748D01*
X177799294Y-108650616D01*
X177806498Y-108642708D01*
X177814017Y-108635027D01*
X177821850Y-108627572D01*
X177829996Y-108620350D01*
X177838451Y-108613359D01*
X177847215Y-108606604D01*
X177856283Y-108600086D01*
X177865652Y-108593809D01*
X177875324Y-108587773D01*
X177885294Y-108581980D01*
X177895560Y-108576435D01*
X177906120Y-108571138D01*
X177916972Y-108566093D01*
X177928077Y-108561062D01*
X177939395Y-108556392D01*
X177950928Y-108552073D01*
X177962671Y-108548102D01*
X177974623Y-108544475D01*
X177986778Y-108541187D01*
X177999137Y-108538233D01*
X178011698Y-108535609D01*
X178024458Y-108533312D01*
X178037414Y-108531336D01*
X178050565Y-108529674D01*
X178063908Y-108528328D01*
X178077441Y-108527286D01*
X178091162Y-108526548D01*
X178105067Y-108526109D01*
X178119158Y-108525964D01*
X178133247Y-108526109D01*
G37*
%TD.AperFunction*%
%TA.AperFunction,NonConductor*%
G36*
X183097859Y-109178822D02*
G01*
X183097835Y-109199393D01*
X183097666Y-109221845D01*
X183097207Y-109246322D01*
X183096315Y-109272969D01*
X183094001Y-109329304D01*
X183091686Y-109390268D01*
X183086862Y-109453549D01*
X183086430Y-109458493D01*
X183089371Y-109452004D01*
X183103791Y-109421329D01*
X183117923Y-109391812D01*
X183132706Y-109363717D01*
X183147055Y-109337214D01*
X183161114Y-109312158D01*
X183168080Y-109300127D01*
X183175029Y-109288405D01*
X183187472Y-109266097D01*
X183199338Y-109245381D01*
X183210622Y-109226113D01*
X183221331Y-109208147D01*
X183644223Y-108539855D01*
X183841780Y-108539854D01*
X183841779Y-109663450D01*
X183667374Y-109663450D01*
X183667374Y-109064612D01*
X183667639Y-109046958D01*
X183668340Y-109026412D01*
X183670461Y-108976637D01*
X183672969Y-108916637D01*
X183674584Y-108883525D01*
X183676634Y-108848534D01*
X183680603Y-108749309D01*
X183664094Y-108780046D01*
X183643958Y-108818124D01*
X183625703Y-108853165D01*
X183591555Y-108913743D01*
X183576000Y-108941283D01*
X183560879Y-108967377D01*
X183546723Y-108991709D01*
X183532133Y-109016188D01*
X183502230Y-109066154D01*
X183122553Y-109663449D01*
X182923454Y-109663450D01*
X182923454Y-108539854D01*
X183097859Y-108539854D01*
X183097859Y-109178822D01*
G37*
%TD.AperFunction*%
%TA.AperFunction,NonConductor*%
G36*
X181857196Y-107178311D02*
G01*
X182170180Y-108058051D01*
X181799764Y-108058051D01*
X181597817Y-107465383D01*
X180714188Y-107465384D01*
X180506388Y-108058051D01*
X180135970Y-108058051D01*
X180453789Y-107178310D01*
X180814841Y-107178310D01*
X181500000Y-107178310D01*
X181373783Y-106807892D01*
X181349523Y-106732072D01*
X181323237Y-106648150D01*
X181295214Y-106556124D01*
X181265745Y-106455995D01*
X181200921Y-106226800D01*
X181161949Y-106084306D01*
X181159154Y-106094308D01*
X181122208Y-106222555D01*
X181055841Y-106449822D01*
X181026324Y-106550047D01*
X180997964Y-106642748D01*
X180970761Y-106728503D01*
X180944716Y-106807892D01*
X180814841Y-107178310D01*
X180453789Y-107178310D01*
X180947802Y-105810852D01*
X181370696Y-105810852D01*
X181857196Y-107178311D01*
G37*
%TD.AperFunction*%
%TA.AperFunction,NonConductor*%
G36*
X182831038Y-106530079D02*
G01*
X182847984Y-106557856D01*
X182864173Y-106585594D01*
X182879708Y-106613260D01*
X182894702Y-106640818D01*
X182923497Y-106695465D01*
X182951423Y-106749242D01*
X182965313Y-106777759D01*
X182979204Y-106807796D01*
X182993095Y-106839424D01*
X183006984Y-106872715D01*
X183008672Y-106876968D01*
X183009299Y-106875416D01*
X183023046Y-106842348D01*
X183036503Y-106810834D01*
X183049670Y-106780840D01*
X183062548Y-106752329D01*
X183090955Y-106698503D01*
X183120811Y-106643520D01*
X183152403Y-106587378D01*
X183168941Y-106558873D01*
X183186020Y-106530080D01*
X183608914Y-105810852D01*
X184010200Y-105810852D01*
X183182934Y-107162875D01*
X183182934Y-108058051D01*
X182840297Y-108058051D01*
X182840297Y-107162875D01*
X182016118Y-105810852D01*
X182414316Y-105810852D01*
X182831038Y-106530079D01*
G37*
%TD.AperFunction*%
D12*
D13*
X176277807Y-106507670D02*
X176277807Y-105507670D01*
X176277807Y-105507670D02*
X176039712Y-105507670D01*
X176039712Y-105507670D02*
X175896855Y-105555289D01*
X175896855Y-105555289D02*
X175801617Y-105650527D01*
X175801617Y-105650527D02*
X175753998Y-105745765D01*
X175753998Y-105745765D02*
X175706379Y-105936241D01*
X175706379Y-105936241D02*
X175706379Y-106079098D01*
X175706379Y-106079098D02*
X175753998Y-106269574D01*
X175753998Y-106269574D02*
X175801617Y-106364812D01*
X175801617Y-106364812D02*
X175896855Y-106460051D01*
X175896855Y-106460051D02*
X176039712Y-106507670D01*
X176039712Y-106507670D02*
X176277807Y-106507670D01*
X174706379Y-106507670D02*
X175039712Y-106031479D01*
X175277807Y-106507670D02*
X175277807Y-105507670D01*
X175277807Y-105507670D02*
X174896855Y-105507670D01*
X174896855Y-105507670D02*
X174801617Y-105555289D01*
X174801617Y-105555289D02*
X174753998Y-105602908D01*
X174753998Y-105602908D02*
X174706379Y-105698146D01*
X174706379Y-105698146D02*
X174706379Y-105841003D01*
X174706379Y-105841003D02*
X174753998Y-105936241D01*
X174753998Y-105936241D02*
X174801617Y-105983860D01*
X174801617Y-105983860D02*
X174896855Y-106031479D01*
X174896855Y-106031479D02*
X175277807Y-106031479D01*
X174277807Y-105983860D02*
X173944474Y-105983860D01*
X173801617Y-106507670D02*
X174277807Y-106507670D01*
X174277807Y-106507670D02*
X174277807Y-105507670D01*
X174277807Y-105507670D02*
X173801617Y-105507670D01*
X173420664Y-106221955D02*
X172944474Y-106221955D01*
X173515902Y-106507670D02*
X173182569Y-105507670D01*
X173182569Y-105507670D02*
X172849236Y-106507670D01*
X172515902Y-106507670D02*
X172515902Y-105507670D01*
X172515902Y-105507670D02*
X172182569Y-106221955D01*
X172182569Y-106221955D02*
X171849236Y-105507670D01*
X171849236Y-105507670D02*
X171849236Y-106507670D01*
D12*
G36*
X172651998Y-107596955D02*
G01*
X172522664Y-107596955D01*
X172587330Y-107402954D01*
X172651998Y-107596955D01*
G37*
G36*
X173169682Y-108256688D02*
G01*
X172004980Y-108256688D01*
X172004980Y-107992036D01*
X172129980Y-107992036D01*
X172133437Y-108040685D01*
X172155249Y-108084310D01*
X172192095Y-108116265D01*
X172238364Y-108131688D01*
X172287013Y-108128231D01*
X172330638Y-108106419D01*
X172362593Y-108069573D01*
X172372583Y-108047198D01*
X172439331Y-107846955D01*
X172735331Y-107846955D01*
X172802078Y-108047198D01*
X172812069Y-108069573D01*
X172844024Y-108106419D01*
X172887648Y-108128231D01*
X172936298Y-108131688D01*
X172982567Y-108116265D01*
X173019413Y-108084309D01*
X173041225Y-108040685D01*
X173044682Y-107992035D01*
X173039249Y-107968141D01*
X172705916Y-106968142D01*
X172695926Y-106945767D01*
X172690074Y-106939019D01*
X172686080Y-106931031D01*
X172674242Y-106920764D01*
X172663971Y-106908921D01*
X172655979Y-106904925D01*
X172649234Y-106899075D01*
X172634366Y-106894119D01*
X172620346Y-106887109D01*
X172611436Y-106886475D01*
X172602965Y-106883652D01*
X172587330Y-106884762D01*
X172571697Y-106883652D01*
X172563225Y-106886475D01*
X172554315Y-106887109D01*
X172540293Y-106894120D01*
X172525428Y-106899075D01*
X172518682Y-106904925D01*
X172510691Y-106908921D01*
X172500422Y-106920761D01*
X172488582Y-106931030D01*
X172484586Y-106939020D01*
X172478736Y-106945767D01*
X172468745Y-106968142D01*
X172135413Y-107968142D01*
X172129980Y-107992036D01*
X172004980Y-107992036D01*
X172004980Y-106758652D01*
X173169682Y-106758652D01*
X173169682Y-108256688D01*
G37*
D13*
X175706380Y-108007670D02*
X176039713Y-107531479D01*
X176277808Y-108007670D02*
X176277808Y-107007670D01*
X176277808Y-107007670D02*
X175896856Y-107007670D01*
X175896856Y-107007670D02*
X175801618Y-107055289D01*
X175801618Y-107055289D02*
X175753999Y-107102908D01*
X175753999Y-107102908D02*
X175706380Y-107198146D01*
X175706380Y-107198146D02*
X175706380Y-107341003D01*
X175706380Y-107341003D02*
X175753999Y-107436241D01*
X175753999Y-107436241D02*
X175801618Y-107483860D01*
X175801618Y-107483860D02*
X175896856Y-107531479D01*
X175896856Y-107531479D02*
X176277808Y-107531479D01*
X175277808Y-107483860D02*
X174944475Y-107483860D01*
X174801618Y-108007670D02*
X175277808Y-108007670D01*
X175277808Y-108007670D02*
X175277808Y-107007670D01*
X175277808Y-107007670D02*
X174801618Y-107007670D01*
X174515903Y-107007670D02*
X174182570Y-108007670D01*
X174182570Y-108007670D02*
X173849237Y-107007670D01*
D12*
D13*
X176325426Y-108602908D02*
X176277807Y-108555289D01*
X176277807Y-108555289D02*
X176182569Y-108507670D01*
X176182569Y-108507670D02*
X175944474Y-108507670D01*
X175944474Y-108507670D02*
X175849236Y-108555289D01*
X175849236Y-108555289D02*
X175801617Y-108602908D01*
X175801617Y-108602908D02*
X175753998Y-108698146D01*
X175753998Y-108698146D02*
X175753998Y-108793384D01*
X175753998Y-108793384D02*
X175801617Y-108936241D01*
X175801617Y-108936241D02*
X176373045Y-109507670D01*
X176373045Y-109507670D02*
X175753998Y-109507670D01*
X175134950Y-108507670D02*
X175039712Y-108507670D01*
X175039712Y-108507670D02*
X174944474Y-108555289D01*
X174944474Y-108555289D02*
X174896855Y-108602908D01*
X174896855Y-108602908D02*
X174849236Y-108698146D01*
X174849236Y-108698146D02*
X174801617Y-108888622D01*
X174801617Y-108888622D02*
X174801617Y-109126717D01*
X174801617Y-109126717D02*
X174849236Y-109317193D01*
X174849236Y-109317193D02*
X174896855Y-109412431D01*
X174896855Y-109412431D02*
X174944474Y-109460051D01*
X174944474Y-109460051D02*
X175039712Y-109507670D01*
X175039712Y-109507670D02*
X175134950Y-109507670D01*
X175134950Y-109507670D02*
X175230188Y-109460051D01*
X175230188Y-109460051D02*
X175277807Y-109412431D01*
X175277807Y-109412431D02*
X175325426Y-109317193D01*
X175325426Y-109317193D02*
X175373045Y-109126717D01*
X175373045Y-109126717D02*
X175373045Y-108888622D01*
X175373045Y-108888622D02*
X175325426Y-108698146D01*
X175325426Y-108698146D02*
X175277807Y-108602908D01*
X175277807Y-108602908D02*
X175230188Y-108555289D01*
X175230188Y-108555289D02*
X175134950Y-108507670D01*
X174420664Y-108602908D02*
X174373045Y-108555289D01*
X174373045Y-108555289D02*
X174277807Y-108507670D01*
X174277807Y-108507670D02*
X174039712Y-108507670D01*
X174039712Y-108507670D02*
X173944474Y-108555289D01*
X173944474Y-108555289D02*
X173896855Y-108602908D01*
X173896855Y-108602908D02*
X173849236Y-108698146D01*
X173849236Y-108698146D02*
X173849236Y-108793384D01*
X173849236Y-108793384D02*
X173896855Y-108936241D01*
X173896855Y-108936241D02*
X174468283Y-109507670D01*
X174468283Y-109507670D02*
X173849236Y-109507670D01*
X172992093Y-108507670D02*
X173182569Y-108507670D01*
X173182569Y-108507670D02*
X173277807Y-108555289D01*
X173277807Y-108555289D02*
X173325426Y-108602908D01*
X173325426Y-108602908D02*
X173420664Y-108745765D01*
X173420664Y-108745765D02*
X173468283Y-108936241D01*
X173468283Y-108936241D02*
X173468283Y-109317193D01*
X173468283Y-109317193D02*
X173420664Y-109412431D01*
X173420664Y-109412431D02*
X173373045Y-109460051D01*
X173373045Y-109460051D02*
X173277807Y-109507670D01*
X173277807Y-109507670D02*
X173087331Y-109507670D01*
X173087331Y-109507670D02*
X172992093Y-109460051D01*
X172992093Y-109460051D02*
X172944474Y-109412431D01*
X172944474Y-109412431D02*
X172896855Y-109317193D01*
X172896855Y-109317193D02*
X172896855Y-109079098D01*
X172896855Y-109079098D02*
X172944474Y-108983860D01*
X172944474Y-108983860D02*
X172992093Y-108936241D01*
X172992093Y-108936241D02*
X173087331Y-108888622D01*
X173087331Y-108888622D02*
X173277807Y-108888622D01*
X173277807Y-108888622D02*
X173373045Y-108936241D01*
X173373045Y-108936241D02*
X173420664Y-108983860D01*
X173420664Y-108983860D02*
X173468283Y-109079098D01*
D14*
D15*
X246928570Y-156821185D02*
X246857142Y-156749757D01*
X246857142Y-156749757D02*
X246714285Y-156678328D01*
X246714285Y-156678328D02*
X246357142Y-156678328D01*
X246357142Y-156678328D02*
X246214285Y-156749757D01*
X246214285Y-156749757D02*
X246142856Y-156821185D01*
X246142856Y-156821185D02*
X246071427Y-156964042D01*
X246071427Y-156964042D02*
X246071427Y-157106900D01*
X246071427Y-157106900D02*
X246142856Y-157321185D01*
X246142856Y-157321185D02*
X246999999Y-158178328D01*
X246999999Y-158178328D02*
X246071427Y-158178328D01*
%TO.C,ID401*%
D16*
X245000000Y-156000000D02*
X248000000Y-156000000D01*
X248000000Y-159000000D01*
X245000000Y-159000000D01*
X245000000Y-156000000D01*
%TD*%
D17*
%TO.P,JP401,1,A*%
%TO.N,VBATT*%
X242460000Y-131500000D03*
D18*
%TO.P,JP401,2,C*%
%TO.N,VIN_SEL*%
X245000000Y-131500000D03*
%TO.P,JP401,3,B*%
%TO.N,VUSB*%
X247539999Y-131500000D03*
%TD*%
D19*
%TO.P,TP604,1,1*%
%TO.N,/ARCHITECTURE/ANALOGUE INPUTS/ECG_OUT*%
X212665000Y-109160000D03*
D20*
%TO.P,TP604,2,2*%
%TO.N,GND*%
X210720456Y-107215456D03*
X210720456Y-111104544D03*
X214609544Y-107215456D03*
X214609544Y-111104544D03*
%TD*%
D19*
%TO.P,TP602,1,1*%
%TO.N,/ARCHITECTURE/ANALOGUE INPUTS/CE_FILT*%
X199330000Y-126940000D03*
D20*
%TO.P,TP602,2,2*%
%TO.N,GND*%
X197385456Y-124995456D03*
X197385456Y-128884544D03*
X201274544Y-124995456D03*
X201274544Y-128884544D03*
%TD*%
D19*
%TO.P,TP603,1,1*%
%TO.N,/ARCHITECTURE/ANALOGUE INPUTS/CO2_OUT*%
X199330000Y-139640000D03*
D20*
%TO.P,TP603,2,2*%
%TO.N,GND*%
X197385456Y-137695456D03*
X197385456Y-141584544D03*
X201274544Y-137695456D03*
X201274544Y-141584544D03*
%TD*%
D17*
%TO.P,J701,1,Pin_1*%
%TO.N,/ARCHITECTURE/ANALOGUE OUTPUTS/SHAKER_P*%
X220915000Y-105350000D03*
D18*
%TO.P,J701,2,Pin_2*%
%TO.N,/ARCHITECTURE/ANALOGUE OUTPUTS/SHAKER_N*%
X223455000Y-105350000D03*
%TD*%
D21*
%TO.P,H402,1,1*%
%TO.N,GND*%
X167500000Y-107500000D03*
%TD*%
D22*
%TO.P,J602,1,In*%
%TO.N,/ARCHITECTURE/ANALOGUE INPUTS/CE_IN*%
X170000000Y-132500000D03*
D23*
%TO.P,J602,2,Ext*%
%TO.N,GND*%
X166825000Y-129325000D03*
X166825000Y-135675000D03*
X173175000Y-129325000D03*
X173175000Y-135675000D03*
%TD*%
D21*
%TO.P,H401,1,1*%
%TO.N,GND*%
X167500000Y-157500000D03*
%TD*%
D24*
%TO.P,J402,1,Pin_1*%
%TO.N,GND*%
X257972301Y-134433001D03*
D25*
%TO.P,J402,2,Pin_2*%
%TO.N,/ARCHITECTURE/POWER/VBATT_RAW*%
X257972301Y-130623001D03*
%TD*%
D26*
%TO.P,J401,1*%
%TO.N,/ARCHITECTURE/POWER/VBATT_RAW*%
X248050000Y-117500000D03*
D27*
%TO.P,J401,2*%
%TO.N,GND*%
X254250000Y-117500000D03*
D28*
%TO.P,J401,3*%
%TO.N,unconnected-(J401-Pad3)*%
X251250000Y-112800000D03*
%TD*%
D19*
%TO.P,TP601,1,1*%
%TO.N,/ARCHITECTURE/ANALOGUE INPUTS/ECG_FILT*%
X199330000Y-109160000D03*
D20*
%TO.P,TP601,2,2*%
%TO.N,GND*%
X197385456Y-107215456D03*
X197385456Y-111104544D03*
X201274544Y-107215456D03*
X201274544Y-111104544D03*
%TD*%
D22*
%TO.P,J601,1,In*%
%TO.N,/ARCHITECTURE/ANALOGUE INPUTS/ECG_IN*%
X170000000Y-117500000D03*
D23*
%TO.P,J601,2,Ext*%
%TO.N,GND*%
X166825000Y-114325000D03*
X166825000Y-120675000D03*
X173175000Y-114325000D03*
X173175000Y-120675000D03*
%TD*%
D21*
%TO.P,H403,1,1*%
%TO.N,GND*%
X257500000Y-107500000D03*
%TD*%
D22*
%TO.P,J603,1,In*%
%TO.N,/ARCHITECTURE/ANALOGUE INPUTS/CO2_IN*%
X170000000Y-147500000D03*
D23*
%TO.P,J603,2,Ext*%
%TO.N,GND*%
X166825000Y-144325000D03*
X166825000Y-150675000D03*
X173175000Y-144325000D03*
X173175000Y-150675000D03*
%TD*%
D29*
%TO.P,J502,S1,SHIELD*%
%TO.N,GND*%
X255720000Y-151820000D03*
D30*
X259900000Y-151820000D03*
D29*
X255720000Y-143180000D03*
D30*
X259900000Y-143180000D03*
%TD*%
D21*
%TO.P,H404,1,1*%
%TO.N,GND*%
X257500000Y-157500000D03*
%TD*%
D31*
%TO.P,Y501,1,1*%
%TO.N,/ARCHITECTURE/DIGITAL AND HMI/OSC_IN*%
X231615001Y-135830000D03*
%TO.P,Y501,2,2*%
%TO.N,/ARCHITECTURE/DIGITAL AND HMI/XTAL*%
X226735001Y-135830000D03*
%TD*%
D32*
%TO.N,GND*%
X233620000Y-139005000D03*
X229810000Y-132782000D03*
X186630000Y-140910000D03*
X194885000Y-126305000D03*
X223079000Y-139894000D03*
X217745000Y-120590000D03*
X186630000Y-142180000D03*
X223650500Y-133480500D03*
X244415000Y-146625000D03*
X259655000Y-141545000D03*
X231857120Y-145370120D03*
X193614999Y-126305000D03*
X231080000Y-154245000D03*
X186630000Y-120590000D03*
X240900000Y-103900000D03*
X209490000Y-112335000D03*
X239335000Y-151705000D03*
X244415000Y-139750000D03*
X246320000Y-142180000D03*
X198060000Y-145355000D03*
X199761800Y-154880000D03*
X240100000Y-135500000D03*
X193614999Y-112335000D03*
X229175000Y-128210001D03*
X219014999Y-130115000D03*
X235398000Y-134560000D03*
X231080000Y-132782000D03*
X233620000Y-132782000D03*
X260925000Y-141545000D03*
X232985000Y-158690000D03*
X234255000Y-140910000D03*
X198060000Y-133925000D03*
X230826000Y-141799000D03*
X226000000Y-132782000D03*
X225746000Y-139640000D03*
X233356973Y-141808026D03*
X222952000Y-137100000D03*
X186630000Y-133290000D03*
X250500000Y-146300000D03*
X259655000Y-137735000D03*
X217745000Y-111700000D03*
X231715000Y-140910000D03*
X194885000Y-112335000D03*
X244100000Y-103900000D03*
X234572500Y-138052500D03*
X243145000Y-150435000D03*
X232667500Y-139957500D03*
X194250000Y-158055000D03*
X235398000Y-135830000D03*
X186630000Y-147895000D03*
X241875000Y-151705000D03*
X222952000Y-134560000D03*
X234636000Y-133417000D03*
X231715000Y-159325000D03*
X217745000Y-119320000D03*
X225889043Y-140690184D03*
X208219999Y-112335000D03*
X232350000Y-132782000D03*
X224730000Y-132782000D03*
X247590000Y-133925000D03*
X197920000Y-119320000D03*
X211174772Y-144720000D03*
X241875000Y-149165000D03*
X247590000Y-137100000D03*
X197920000Y-120590001D03*
X229175000Y-140656000D03*
X198060000Y-147895000D03*
X228540000Y-132782000D03*
X193614999Y-140910000D03*
X217745000Y-114875000D03*
X227270000Y-132782000D03*
X179365600Y-122428000D03*
X199330000Y-135195000D03*
X186630000Y-119320000D03*
X213145923Y-156304077D03*
X180635600Y-137455600D03*
X229175000Y-147577500D03*
X199761800Y-156150000D03*
X209490000Y-140910000D03*
X217745000Y-113605000D03*
X229175000Y-126940000D03*
X240100000Y-136500000D03*
X230445000Y-158690000D03*
X180635600Y-152441600D03*
X232985000Y-150752500D03*
X199761800Y-159960000D03*
X249672800Y-147500000D03*
X243100000Y-103900000D03*
X233620000Y-146942500D03*
X179365600Y-137414000D03*
X201235000Y-120590000D03*
X247590000Y-142180000D03*
X249494999Y-151705001D03*
X196155000Y-157420000D03*
X260925000Y-137735000D03*
X223460000Y-138116000D03*
X230445000Y-154880000D03*
X199761800Y-158690000D03*
X249495000Y-153610000D03*
X248860000Y-143450000D03*
X227016000Y-141799000D03*
X243145000Y-147895000D03*
X220285000Y-130115000D03*
X248860000Y-144720000D03*
X231715000Y-157420000D03*
X201235000Y-119320000D03*
X212444773Y-144720001D03*
X224603000Y-138624000D03*
X240605000Y-150435000D03*
X198060000Y-135195000D03*
X247590000Y-140910000D03*
X179365600Y-152400000D03*
X199330000Y-133925000D03*
X212247897Y-155406051D03*
X249495000Y-150435000D03*
X228222500Y-148530000D03*
X194885000Y-140910000D03*
X240605000Y-152975000D03*
X224729999Y-121225000D03*
X217745000Y-112970001D03*
X249494999Y-154880001D03*
X180635600Y-122469600D03*
X248860000Y-142180000D03*
X208219999Y-140910000D03*
X237500000Y-151705000D03*
X226000000Y-112335000D03*
X244415000Y-149165000D03*
X224729999Y-112335000D03*
X241100000Y-135500000D03*
X241900000Y-103900000D03*
X257750000Y-147500000D03*
X186630000Y-149165000D03*
X250500000Y-148700000D03*
X226000000Y-121225000D03*
X239335000Y-154245000D03*
X186630000Y-134560000D03*
X201235000Y-148530000D03*
X201235000Y-149800000D03*
X237500000Y-154245000D03*
X246320000Y-140910000D03*
X198060000Y-146625000D03*
X235398000Y-137100000D03*
X222952000Y-135830000D03*
%TO.N,/ARCHITECTURE/DIGITAL AND HMI/~{RST}*%
X230044472Y-146009528D03*
X228540000Y-153610000D03*
%TO.N,/ARCHITECTURE/DIGITAL AND HMI/D+*%
X256934720Y-147075000D03*
X251000000Y-147075000D03*
%TO.N,/ARCHITECTURE/DIGITAL AND HMI/D-*%
X256934720Y-147925000D03*
X251000000Y-147925000D03*
%TO.N,/ARCHITECTURE/DIGITAL AND HMI/SWO*%
X227362004Y-153560725D03*
X232985000Y-148530000D03*
%TO.N,/ARCHITECTURE/DIGITAL AND HMI/SWDIO*%
X231715000Y-147260000D03*
X226000000Y-152340000D03*
D33*
%TO.N,+3V0*%
X224095000Y-114875000D03*
X228540000Y-114875000D03*
X191075000Y-134560000D03*
X191075000Y-120590000D03*
X191075000Y-125685000D03*
X191075000Y-140275000D03*
D32*
X191075000Y-139005000D03*
%TO.N,/ARCHITECTURE/DIGITAL AND HMI/SWCLK*%
X231715000Y-148530000D03*
X227270000Y-152340000D03*
%TO.N,unconnected-(U501-PB5-Pad28)*%
X237430000Y-143450000D03*
%TO.N,unconnected-(U501-PB6-Pad29)*%
X237430000Y-142180000D03*
%TO.N,unconnected-(U501-PB7-Pad30)*%
X237430000Y-140910000D03*
%TO.N,unconnected-(U501-PA15-Pad25)*%
X238700000Y-147260000D03*
%TO.N,unconnected-(U501-PB4-Pad27)*%
X237430000Y-144720000D03*
%TO.N,unconnected-(U501-PA3-Pad8)*%
X224879798Y-146139798D03*
%TO.N,unconnected-(U501-PA2-Pad7)*%
X224095000Y-144720000D03*
%TD*%
D34*
%TO.N,/ARCHITECTURE/DIGITAL AND HMI/~{RST}*%
X230234972Y-146200028D02*
X231504971Y-146200028D01*
X231504971Y-146200028D02*
X233586000Y-148281057D01*
X233586000Y-148281057D02*
X233586000Y-148778943D01*
X233586000Y-148778943D02*
X228754943Y-153610000D01*
X228754943Y-153610000D02*
X228540000Y-153610000D01*
X230044472Y-146009528D02*
X230234972Y-146200028D01*
%TO.N,/ARCHITECTURE/DIGITAL AND HMI/D+*%
X251000000Y-147075000D02*
X251200000Y-147275000D01*
X251200000Y-147275000D02*
X256734721Y-147274999D01*
X256734721Y-147274999D02*
X256934720Y-147075000D01*
%TO.N,/ARCHITECTURE/DIGITAL AND HMI/D-*%
X251200000Y-147725000D02*
X256734721Y-147725001D01*
X256734721Y-147725001D02*
X256934720Y-147925000D01*
X251000000Y-147925000D02*
X251200000Y-147725000D01*
%TO.N,/ARCHITECTURE/DIGITAL AND HMI/SWO*%
X231791729Y-149131000D02*
X232384000Y-149131000D01*
X227362004Y-153560725D02*
X231791729Y-149131000D01*
X232384000Y-149131000D02*
X232985000Y-148530000D01*
%TO.N,/ARCHITECTURE/DIGITAL AND HMI/SWDIO*%
X226000000Y-152340000D02*
X231080000Y-147260000D01*
X231080000Y-147260000D02*
X231715000Y-147260000D01*
D35*
%TO.N,+3V0*%
X228540000Y-114875000D02*
X224095000Y-114875000D01*
X191075000Y-140275000D02*
X191075000Y-139005000D01*
X191075000Y-120590000D02*
X191075000Y-125685000D01*
X191075000Y-139005000D02*
X191075000Y-134560000D01*
D34*
%TO.N,/ARCHITECTURE/DIGITAL AND HMI/SWCLK*%
X227270000Y-152340000D02*
X227905000Y-152340000D01*
X227905000Y-152340000D02*
X231715000Y-148530000D01*
%TD*%
%TA.AperFunction,Conductor*%
%TO.N,GND*%
G36*
X234143677Y-132420685D02*
G01*
X234164319Y-132437319D01*
X235742681Y-134015681D01*
X235776166Y-134077004D01*
X235779000Y-134103362D01*
X235779000Y-137302638D01*
X235759315Y-137369677D01*
X235742681Y-137390319D01*
X230064000Y-143069000D01*
X232186681Y-145191681D01*
X232220166Y-145253004D01*
X232223000Y-145279362D01*
X232223000Y-145938638D01*
X232214355Y-145968078D01*
X232207832Y-145998065D01*
X232204077Y-146003080D01*
X232203315Y-146005677D01*
X232186681Y-146026319D01*
X232059138Y-146153862D01*
X231997815Y-146187347D01*
X231928123Y-146182363D01*
X231883776Y-146153862D01*
X231689483Y-145959569D01*
X231689482Y-145959568D01*
X231667041Y-145946612D01*
X231667041Y-145946610D01*
X231667038Y-145946610D01*
X231620965Y-145920009D01*
X231620962Y-145920007D01*
X231582746Y-145909767D01*
X231544533Y-145899528D01*
X231544531Y-145899528D01*
X230628174Y-145899528D01*
X230561135Y-145879843D01*
X230515380Y-145827039D01*
X230513610Y-145822975D01*
X230510866Y-145816349D01*
X230510864Y-145816342D01*
X230444972Y-145702214D01*
X230351786Y-145609028D01*
X230294722Y-145576082D01*
X230237659Y-145543136D01*
X230174011Y-145526082D01*
X230110364Y-145509028D01*
X230015390Y-145509028D01*
X229948351Y-145489343D01*
X229927709Y-145472709D01*
X225401319Y-140946319D01*
X225367834Y-140884996D01*
X225365000Y-140858638D01*
X225365000Y-139132000D01*
X225238000Y-139005000D01*
X223892362Y-139005000D01*
X223825323Y-138985315D01*
X223804681Y-138968681D01*
X222607319Y-137771319D01*
X222573834Y-137709996D01*
X222571000Y-137683638D01*
X222571000Y-135736379D01*
X225784501Y-135736379D01*
X225784501Y-135923620D01*
X225821026Y-136107243D01*
X225821028Y-136107251D01*
X225892677Y-136280228D01*
X225892682Y-136280237D01*
X225996698Y-136435907D01*
X225996701Y-136435911D01*
X226129089Y-136568299D01*
X226129093Y-136568302D01*
X226284763Y-136672318D01*
X226284769Y-136672321D01*
X226284770Y-136672322D01*
X226457750Y-136743973D01*
X226641380Y-136780499D01*
X226641384Y-136780500D01*
X226641385Y-136780500D01*
X226828618Y-136780500D01*
X226828619Y-136780499D01*
X227012252Y-136743973D01*
X227185232Y-136672322D01*
X227340909Y-136568302D01*
X227473303Y-136435908D01*
X227577323Y-136280231D01*
X227648974Y-136107251D01*
X227685501Y-135923616D01*
X227685501Y-135736384D01*
X227685500Y-135736379D01*
X230664501Y-135736379D01*
X230664501Y-135923620D01*
X230701026Y-136107243D01*
X230701028Y-136107251D01*
X230772677Y-136280228D01*
X230772682Y-136280237D01*
X230876698Y-136435907D01*
X230876701Y-136435911D01*
X231009089Y-136568299D01*
X231009093Y-136568302D01*
X231164763Y-136672318D01*
X231164769Y-136672321D01*
X231164770Y-136672322D01*
X231337750Y-136743973D01*
X231521380Y-136780499D01*
X231521384Y-136780500D01*
X231521385Y-136780500D01*
X231708618Y-136780500D01*
X231708619Y-136780499D01*
X231892252Y-136743973D01*
X232065232Y-136672322D01*
X232220909Y-136568302D01*
X232353303Y-136435908D01*
X232457323Y-136280231D01*
X232528974Y-136107251D01*
X232565501Y-135923616D01*
X232565501Y-135736384D01*
X232528974Y-135552749D01*
X232457323Y-135379769D01*
X232457322Y-135379768D01*
X232457319Y-135379762D01*
X232353303Y-135224092D01*
X232353300Y-135224088D01*
X232220912Y-135091700D01*
X232220908Y-135091697D01*
X232065238Y-134987681D01*
X232065229Y-134987676D01*
X231892252Y-134916027D01*
X231892244Y-134916025D01*
X231708621Y-134879500D01*
X231708617Y-134879500D01*
X231521385Y-134879500D01*
X231521380Y-134879500D01*
X231337757Y-134916025D01*
X231337749Y-134916027D01*
X231164772Y-134987676D01*
X231164763Y-134987681D01*
X231009093Y-135091697D01*
X231009089Y-135091700D01*
X230876701Y-135224088D01*
X230876698Y-135224092D01*
X230772682Y-135379762D01*
X230772677Y-135379771D01*
X230701028Y-135552748D01*
X230701026Y-135552756D01*
X230664501Y-135736379D01*
X227685500Y-135736379D01*
X227648974Y-135552749D01*
X227577323Y-135379769D01*
X227577322Y-135379768D01*
X227577319Y-135379762D01*
X227473303Y-135224092D01*
X227473300Y-135224088D01*
X227340912Y-135091700D01*
X227340908Y-135091697D01*
X227185238Y-134987681D01*
X227185229Y-134987676D01*
X227012252Y-134916027D01*
X227012244Y-134916025D01*
X226828621Y-134879500D01*
X226828617Y-134879500D01*
X226641385Y-134879500D01*
X226641380Y-134879500D01*
X226457757Y-134916025D01*
X226457749Y-134916027D01*
X226284772Y-134987676D01*
X226284763Y-134987681D01*
X226129093Y-135091697D01*
X226129089Y-135091700D01*
X225996701Y-135224088D01*
X225996698Y-135224092D01*
X225892682Y-135379762D01*
X225892677Y-135379771D01*
X225821028Y-135552748D01*
X225821026Y-135552756D01*
X225784501Y-135736379D01*
X222571000Y-135736379D01*
X222571000Y-134103362D01*
X222590685Y-134036323D01*
X222607319Y-134015681D01*
X224185681Y-132437319D01*
X224247004Y-132403834D01*
X224273362Y-132401000D01*
X234076638Y-132401000D01*
X234143677Y-132420685D01*
G37*
%TD.AperFunction*%
%TD*%
%TA.AperFunction,Conductor*%
%TO.N,GND*%
G36*
X257502702Y-102750618D02*
G01*
X257515967Y-102751197D01*
X257908558Y-102768337D01*
X257919293Y-102769277D01*
X258319386Y-102821950D01*
X258330010Y-102823823D01*
X258723993Y-102911167D01*
X258734405Y-102913956D01*
X259119279Y-103035307D01*
X259129414Y-103038996D01*
X259502232Y-103193423D01*
X259512024Y-103197989D01*
X259560519Y-103223234D01*
X259869942Y-103384309D01*
X259879310Y-103389717D01*
X260219638Y-103606530D01*
X260228499Y-103612735D01*
X260548627Y-103858378D01*
X260556914Y-103865332D01*
X260854412Y-104137938D01*
X260862061Y-104145587D01*
X261134667Y-104443085D01*
X261141621Y-104451372D01*
X261387264Y-104771500D01*
X261393469Y-104780361D01*
X261610282Y-105120689D01*
X261615690Y-105130057D01*
X261802007Y-105487969D01*
X261806579Y-105497773D01*
X261960997Y-105870570D01*
X261964697Y-105880735D01*
X262086037Y-106265575D01*
X262088836Y-106276022D01*
X262089326Y-106278230D01*
X262176173Y-106669977D01*
X262178051Y-106680629D01*
X262230720Y-107080683D01*
X262231663Y-107091460D01*
X262247324Y-107450172D01*
X262249382Y-107497297D01*
X262249500Y-107502706D01*
X262249500Y-157497293D01*
X262249382Y-157502702D01*
X262231663Y-157908539D01*
X262230720Y-157919316D01*
X262178051Y-158319370D01*
X262176173Y-158330022D01*
X262088837Y-158723974D01*
X262086037Y-158734424D01*
X261964697Y-159119264D01*
X261960997Y-159129429D01*
X261806579Y-159502226D01*
X261802007Y-159512030D01*
X261615690Y-159869942D01*
X261610282Y-159879310D01*
X261393469Y-160219638D01*
X261387264Y-160228499D01*
X261141621Y-160548627D01*
X261134667Y-160556914D01*
X260862061Y-160854412D01*
X260854412Y-160862061D01*
X260556914Y-161134667D01*
X260548627Y-161141621D01*
X260228499Y-161387264D01*
X260219638Y-161393469D01*
X259879310Y-161610282D01*
X259869942Y-161615690D01*
X259512030Y-161802007D01*
X259502226Y-161806579D01*
X259129429Y-161960997D01*
X259119264Y-161964697D01*
X258734424Y-162086037D01*
X258723974Y-162088837D01*
X258330022Y-162176173D01*
X258319370Y-162178051D01*
X257919316Y-162230720D01*
X257908539Y-162231663D01*
X257502703Y-162249382D01*
X257497294Y-162249500D01*
X167502706Y-162249500D01*
X167497297Y-162249382D01*
X167091460Y-162231663D01*
X167080685Y-162230720D01*
X166880656Y-162204385D01*
X166680629Y-162178051D01*
X166669977Y-162176173D01*
X166415393Y-162119733D01*
X166276022Y-162088836D01*
X166265579Y-162086038D01*
X165880733Y-161964696D01*
X165870570Y-161960997D01*
X165497773Y-161806579D01*
X165487969Y-161802007D01*
X165130057Y-161615690D01*
X165120689Y-161610282D01*
X164780361Y-161393469D01*
X164771500Y-161387264D01*
X164451372Y-161141621D01*
X164443085Y-161134667D01*
X164145587Y-160862061D01*
X164137938Y-160854412D01*
X163865332Y-160556914D01*
X163858378Y-160548627D01*
X163612735Y-160228499D01*
X163606530Y-160219638D01*
X163389717Y-159879310D01*
X163384309Y-159869942D01*
X163197992Y-159512030D01*
X163193420Y-159502226D01*
X163155314Y-159410230D01*
X163038996Y-159129414D01*
X163035307Y-159119279D01*
X162913956Y-158734405D01*
X162911167Y-158723993D01*
X162823823Y-158330010D01*
X162821950Y-158319386D01*
X162769277Y-157919293D01*
X162768337Y-157908558D01*
X162750618Y-157502701D01*
X162750500Y-157497293D01*
X162750500Y-155960438D01*
X244699500Y-155960438D01*
X244699500Y-159039562D01*
X244713152Y-159090513D01*
X244719979Y-159115990D01*
X244719982Y-159115995D01*
X244759535Y-159184504D01*
X244759539Y-159184509D01*
X244759540Y-159184511D01*
X244815489Y-159240460D01*
X244815491Y-159240461D01*
X244815495Y-159240464D01*
X244884004Y-159280017D01*
X244884011Y-159280021D01*
X244960438Y-159300500D01*
X244960440Y-159300500D01*
X248039560Y-159300500D01*
X248039562Y-159300500D01*
X248115989Y-159280021D01*
X248184511Y-159240460D01*
X248240460Y-159184511D01*
X248280021Y-159115989D01*
X248300500Y-159039562D01*
X248300500Y-155960438D01*
X248280021Y-155884011D01*
X248280017Y-155884004D01*
X248240464Y-155815495D01*
X248240458Y-155815487D01*
X248184512Y-155759541D01*
X248184504Y-155759535D01*
X248115995Y-155719982D01*
X248115990Y-155719979D01*
X248090513Y-155713152D01*
X248039562Y-155699500D01*
X245039562Y-155699500D01*
X244960438Y-155699500D01*
X244922224Y-155709739D01*
X244884009Y-155719979D01*
X244884004Y-155719982D01*
X244815495Y-155759535D01*
X244815487Y-155759541D01*
X244759541Y-155815487D01*
X244759535Y-155815495D01*
X244719982Y-155884004D01*
X244719979Y-155884009D01*
X244706326Y-155934962D01*
X244699500Y-155960438D01*
X162750500Y-155960438D01*
X162750500Y-144189933D01*
X164420000Y-144189933D01*
X164420000Y-144460066D01*
X164450243Y-144728474D01*
X164450245Y-144728490D01*
X164510352Y-144991837D01*
X164510353Y-144991839D01*
X164599569Y-145246806D01*
X164599571Y-145246810D01*
X164716767Y-145490171D01*
X164860485Y-145718895D01*
X164956788Y-145839657D01*
X166138236Y-144658209D01*
X166149724Y-144685942D01*
X166233116Y-144810747D01*
X166339253Y-144916884D01*
X166464058Y-145000276D01*
X166491789Y-145011762D01*
X165310341Y-146193209D01*
X165310341Y-146193210D01*
X165431104Y-146289514D01*
X165659828Y-146433232D01*
X165903189Y-146550428D01*
X165903193Y-146550430D01*
X166158160Y-146639646D01*
X166158162Y-146639647D01*
X166421509Y-146699754D01*
X166421525Y-146699756D01*
X166689933Y-146729999D01*
X166689934Y-146730000D01*
X166960066Y-146730000D01*
X166960066Y-146729999D01*
X167228474Y-146699756D01*
X167228490Y-146699754D01*
X167491837Y-146639647D01*
X167491839Y-146639646D01*
X167746806Y-146550430D01*
X167746810Y-146550428D01*
X167990171Y-146433232D01*
X167990175Y-146433229D01*
X168102185Y-146362849D01*
X168169422Y-146343848D01*
X168236257Y-146364215D01*
X168281472Y-146417483D01*
X168290710Y-146486739D01*
X168275545Y-146529842D01*
X168221733Y-146623046D01*
X168221728Y-146623057D01*
X168122479Y-146862665D01*
X168055353Y-147113186D01*
X168021500Y-147370314D01*
X168021500Y-147629685D01*
X168055353Y-147886813D01*
X168122479Y-148137334D01*
X168221728Y-148376942D01*
X168221733Y-148376953D01*
X168275545Y-148470157D01*
X168292018Y-148538057D01*
X168269166Y-148604084D01*
X168214244Y-148647275D01*
X168144691Y-148653916D01*
X168102186Y-148637151D01*
X167990171Y-148566767D01*
X167746810Y-148449571D01*
X167746806Y-148449569D01*
X167491839Y-148360353D01*
X167491837Y-148360352D01*
X167228490Y-148300245D01*
X167228474Y-148300243D01*
X166960066Y-148270000D01*
X166689934Y-148270000D01*
X166421525Y-148300243D01*
X166421509Y-148300245D01*
X166158162Y-148360352D01*
X166158160Y-148360353D01*
X165903193Y-148449569D01*
X165903189Y-148449571D01*
X165659828Y-148566767D01*
X165431110Y-148710481D01*
X165310342Y-148806789D01*
X166491790Y-149988236D01*
X166464058Y-149999724D01*
X166339253Y-150083116D01*
X166233116Y-150189253D01*
X166149724Y-150314058D01*
X166138237Y-150341790D01*
X164956789Y-149160342D01*
X164860481Y-149281110D01*
X164716767Y-149509828D01*
X164599571Y-149753189D01*
X164599569Y-149753193D01*
X164510353Y-150008160D01*
X164510352Y-150008162D01*
X164450245Y-150271509D01*
X164450243Y-150271525D01*
X164420000Y-150539933D01*
X164420000Y-150810066D01*
X164450243Y-151078474D01*
X164450245Y-151078490D01*
X164510352Y-151341837D01*
X164510353Y-151341839D01*
X164599569Y-151596806D01*
X164599571Y-151596810D01*
X164716767Y-151840171D01*
X164860485Y-152068895D01*
X164956788Y-152189657D01*
X166138236Y-151008209D01*
X166149724Y-151035942D01*
X166233116Y-151160747D01*
X166339253Y-151266884D01*
X166464058Y-151350276D01*
X166491789Y-151361762D01*
X165310341Y-152543210D01*
X165431104Y-152639514D01*
X165659828Y-152783232D01*
X165903189Y-152900428D01*
X165903193Y-152900430D01*
X166158160Y-152989646D01*
X166158162Y-152989647D01*
X166421509Y-153049754D01*
X166421525Y-153049756D01*
X166689933Y-153079999D01*
X166689934Y-153080000D01*
X166960066Y-153080000D01*
X166960066Y-153079999D01*
X167228474Y-153049756D01*
X167228490Y-153049754D01*
X167491837Y-152989647D01*
X167491839Y-152989646D01*
X167746806Y-152900430D01*
X167746810Y-152900428D01*
X167990171Y-152783232D01*
X168218895Y-152639515D01*
X168339657Y-152543209D01*
X167158210Y-151361762D01*
X167185942Y-151350276D01*
X167310747Y-151266884D01*
X167416884Y-151160747D01*
X167500276Y-151035942D01*
X167511763Y-151008209D01*
X168693209Y-152189657D01*
X168789515Y-152068895D01*
X168933232Y-151840171D01*
X169050428Y-151596810D01*
X169050430Y-151596806D01*
X169139646Y-151341839D01*
X169139647Y-151341837D01*
X169199754Y-151078490D01*
X169199756Y-151078474D01*
X169229999Y-150810066D01*
X169230000Y-150810066D01*
X169230000Y-150539934D01*
X169229999Y-150539933D01*
X169199756Y-150271525D01*
X169199754Y-150271509D01*
X169139647Y-150008162D01*
X169139646Y-150008160D01*
X169050430Y-149753193D01*
X169050428Y-149753189D01*
X168933232Y-149509828D01*
X168862848Y-149397813D01*
X168843848Y-149330577D01*
X168864216Y-149263741D01*
X168917483Y-149218527D01*
X168986740Y-149209289D01*
X169029841Y-149224453D01*
X169123054Y-149278270D01*
X169212962Y-149315511D01*
X169362665Y-149377520D01*
X169362666Y-149377520D01*
X169362668Y-149377521D01*
X169613186Y-149444647D01*
X169870322Y-149478500D01*
X169870329Y-149478500D01*
X170129671Y-149478500D01*
X170129678Y-149478500D01*
X170386814Y-149444647D01*
X170637332Y-149377521D01*
X170876946Y-149278270D01*
X170970158Y-149224453D01*
X171038056Y-149207981D01*
X171104083Y-149230833D01*
X171147274Y-149285754D01*
X171153916Y-149355307D01*
X171137151Y-149397813D01*
X171066767Y-149509828D01*
X170949571Y-149753189D01*
X170949569Y-149753193D01*
X170860353Y-150008160D01*
X170860352Y-150008162D01*
X170800245Y-150271509D01*
X170800243Y-150271525D01*
X170770000Y-150539933D01*
X170770000Y-150810066D01*
X170800243Y-151078474D01*
X170800245Y-151078490D01*
X170860352Y-151341837D01*
X170860353Y-151341839D01*
X170949569Y-151596806D01*
X170949571Y-151596810D01*
X171066767Y-151840171D01*
X171210485Y-152068895D01*
X171306788Y-152189657D01*
X172488236Y-151008209D01*
X172499724Y-151035942D01*
X172583116Y-151160747D01*
X172689253Y-151266884D01*
X172814058Y-151350276D01*
X172841789Y-151361762D01*
X171660341Y-152543210D01*
X171781104Y-152639514D01*
X172009828Y-152783232D01*
X172253189Y-152900428D01*
X172253193Y-152900430D01*
X172508160Y-152989646D01*
X172508162Y-152989647D01*
X172771509Y-153049754D01*
X172771525Y-153049756D01*
X173039933Y-153079999D01*
X173039934Y-153080000D01*
X173310066Y-153080000D01*
X173310066Y-153079999D01*
X173578474Y-153049756D01*
X173578490Y-153049754D01*
X173841837Y-152989647D01*
X173841839Y-152989646D01*
X174096806Y-152900430D01*
X174096810Y-152900428D01*
X174340171Y-152783232D01*
X174568895Y-152639515D01*
X174689657Y-152543209D01*
X173508210Y-151361762D01*
X173535942Y-151350276D01*
X173660747Y-151266884D01*
X173766884Y-151160747D01*
X173850276Y-151035942D01*
X173861762Y-151008210D01*
X175043209Y-152189657D01*
X175139515Y-152068895D01*
X175283232Y-151840171D01*
X175400428Y-151596810D01*
X175400430Y-151596806D01*
X175489646Y-151341839D01*
X175489647Y-151341837D01*
X175549754Y-151078490D01*
X175549756Y-151078474D01*
X175579999Y-150810066D01*
X175580000Y-150810066D01*
X175580000Y-150539934D01*
X175579999Y-150539933D01*
X175549756Y-150271525D01*
X175549754Y-150271509D01*
X175489647Y-150008162D01*
X175489646Y-150008160D01*
X175400430Y-149753193D01*
X175400428Y-149753189D01*
X175283232Y-149509828D01*
X175139514Y-149281104D01*
X175043210Y-149160341D01*
X173861762Y-150341789D01*
X173850276Y-150314058D01*
X173766884Y-150189253D01*
X173660747Y-150083116D01*
X173535942Y-149999724D01*
X173508209Y-149988236D01*
X174689657Y-148806788D01*
X174568895Y-148710485D01*
X174340171Y-148566767D01*
X174096810Y-148449571D01*
X174096806Y-148449569D01*
X173841839Y-148360353D01*
X173841837Y-148360352D01*
X173578490Y-148300245D01*
X173578474Y-148300243D01*
X173310066Y-148270000D01*
X173039934Y-148270000D01*
X172771525Y-148300243D01*
X172771509Y-148300245D01*
X172508162Y-148360352D01*
X172508160Y-148360353D01*
X172253193Y-148449569D01*
X172253189Y-148449571D01*
X172009828Y-148566767D01*
X171897813Y-148637151D01*
X171830576Y-148656151D01*
X171763741Y-148635783D01*
X171718527Y-148582515D01*
X171709290Y-148513258D01*
X171724454Y-148470157D01*
X171778270Y-148376946D01*
X171877521Y-148137332D01*
X171944647Y-147886814D01*
X171978500Y-147629678D01*
X171978500Y-147370322D01*
X171944647Y-147113186D01*
X171877521Y-146862668D01*
X171778270Y-146623054D01*
X171724453Y-146529841D01*
X171707981Y-146461942D01*
X171730833Y-146395915D01*
X171785754Y-146352725D01*
X171855308Y-146346083D01*
X171897813Y-146362848D01*
X172009828Y-146433232D01*
X172253189Y-146550428D01*
X172253193Y-146550430D01*
X172508160Y-146639646D01*
X172508162Y-146639647D01*
X172771509Y-146699754D01*
X172771525Y-146699756D01*
X173039933Y-146729999D01*
X173039934Y-146730000D01*
X173310066Y-146730000D01*
X173310066Y-146729999D01*
X173578474Y-146699756D01*
X173578490Y-146699754D01*
X173841837Y-146639647D01*
X173841839Y-146639646D01*
X174096806Y-146550430D01*
X174096810Y-146550428D01*
X174340171Y-146433232D01*
X174568895Y-146289515D01*
X174689657Y-146193209D01*
X174649908Y-146153460D01*
X174570354Y-146073906D01*
X224379298Y-146073906D01*
X224379298Y-146205689D01*
X224413406Y-146332985D01*
X224431437Y-146364215D01*
X224479298Y-146447112D01*
X224572484Y-146540298D01*
X224686612Y-146606190D01*
X224813906Y-146640298D01*
X224813908Y-146640298D01*
X224945688Y-146640298D01*
X224945690Y-146640298D01*
X225072984Y-146606190D01*
X225187112Y-146540298D01*
X225280298Y-146447112D01*
X225346190Y-146332984D01*
X225380298Y-146205690D01*
X225380298Y-146073906D01*
X225346190Y-145946612D01*
X225280298Y-145832484D01*
X225187112Y-145739298D01*
X225106806Y-145692933D01*
X225072985Y-145673406D01*
X225009337Y-145656352D01*
X224945690Y-145639298D01*
X224813906Y-145639298D01*
X224686610Y-145673406D01*
X224572484Y-145739298D01*
X224572481Y-145739300D01*
X224479300Y-145832481D01*
X224479298Y-145832484D01*
X224413406Y-145946610D01*
X224379298Y-146073906D01*
X174570354Y-146073906D01*
X173508209Y-145011763D01*
X173535942Y-145000276D01*
X173660747Y-144916884D01*
X173766884Y-144810747D01*
X173850276Y-144685942D01*
X173861762Y-144658210D01*
X175043209Y-145839657D01*
X175139515Y-145718895D01*
X175283232Y-145490171D01*
X175400428Y-145246810D01*
X175400430Y-145246806D01*
X175489646Y-144991839D01*
X175489647Y-144991837D01*
X175549754Y-144728490D01*
X175549756Y-144728474D01*
X175558136Y-144654108D01*
X223594500Y-144654108D01*
X223594500Y-144785891D01*
X223628608Y-144913187D01*
X223661554Y-144970250D01*
X223694500Y-145027314D01*
X223787686Y-145120500D01*
X223901814Y-145186392D01*
X224029108Y-145220500D01*
X224029110Y-145220500D01*
X224160890Y-145220500D01*
X224160892Y-145220500D01*
X224288186Y-145186392D01*
X224402314Y-145120500D01*
X224495500Y-145027314D01*
X224561392Y-144913186D01*
X224595500Y-144785892D01*
X224595500Y-144654108D01*
X224561392Y-144526814D01*
X224495500Y-144412686D01*
X224402314Y-144319500D01*
X224331948Y-144278874D01*
X224288187Y-144253608D01*
X224224539Y-144236554D01*
X224160892Y-144219500D01*
X224029108Y-144219500D01*
X223901812Y-144253608D01*
X223787686Y-144319500D01*
X223787683Y-144319502D01*
X223694502Y-144412683D01*
X223694500Y-144412686D01*
X223628608Y-144526812D01*
X223594500Y-144654108D01*
X175558136Y-144654108D01*
X175560616Y-144632097D01*
X175579999Y-144460066D01*
X175580000Y-144460066D01*
X175580000Y-144189934D01*
X175579999Y-144189933D01*
X175549756Y-143921525D01*
X175549754Y-143921509D01*
X175489647Y-143658162D01*
X175489646Y-143658160D01*
X175400430Y-143403193D01*
X175400428Y-143403189D01*
X175283232Y-143159828D01*
X175139514Y-142931104D01*
X175043210Y-142810341D01*
X173861762Y-143991789D01*
X173850276Y-143964058D01*
X173766884Y-143839253D01*
X173660747Y-143733116D01*
X173535942Y-143649724D01*
X173508208Y-143638236D01*
X174581572Y-142564874D01*
X174689657Y-142456788D01*
X174568895Y-142360485D01*
X174340171Y-142216767D01*
X174096810Y-142099571D01*
X174096806Y-142099569D01*
X173841839Y-142010353D01*
X173841837Y-142010352D01*
X173578490Y-141950245D01*
X173578474Y-141950243D01*
X173310066Y-141920000D01*
X173039934Y-141920000D01*
X172771525Y-141950243D01*
X172771509Y-141950245D01*
X172508162Y-142010352D01*
X172508160Y-142010353D01*
X172253193Y-142099569D01*
X172253189Y-142099571D01*
X172009828Y-142216767D01*
X171781110Y-142360481D01*
X171660342Y-142456789D01*
X172841790Y-143638237D01*
X172814058Y-143649724D01*
X172689253Y-143733116D01*
X172583116Y-143839253D01*
X172499724Y-143964058D01*
X172488236Y-143991790D01*
X171306789Y-142810342D01*
X171210481Y-142931110D01*
X171066767Y-143159828D01*
X170949571Y-143403189D01*
X170949569Y-143403193D01*
X170860353Y-143658160D01*
X170860352Y-143658162D01*
X170800245Y-143921509D01*
X170800243Y-143921525D01*
X170770000Y-144189933D01*
X170770000Y-144460066D01*
X170800243Y-144728474D01*
X170800245Y-144728490D01*
X170860352Y-144991837D01*
X170860353Y-144991839D01*
X170949569Y-145246806D01*
X170949571Y-145246810D01*
X171066767Y-145490171D01*
X171137151Y-145602186D01*
X171156151Y-145669423D01*
X171135783Y-145736258D01*
X171082515Y-145781472D01*
X171013259Y-145790709D01*
X170970157Y-145775545D01*
X170876953Y-145721733D01*
X170876942Y-145721728D01*
X170637334Y-145622479D01*
X170470320Y-145577728D01*
X170386814Y-145555353D01*
X170354672Y-145551121D01*
X170129685Y-145521500D01*
X170129678Y-145521500D01*
X169870322Y-145521500D01*
X169870314Y-145521500D01*
X169613186Y-145555353D01*
X169362665Y-145622479D01*
X169123057Y-145721728D01*
X169123046Y-145721733D01*
X169029842Y-145775545D01*
X168961941Y-145792018D01*
X168895915Y-145769165D01*
X168852724Y-145714244D01*
X168846083Y-145644691D01*
X168862849Y-145602185D01*
X168933229Y-145490175D01*
X168933232Y-145490171D01*
X169050428Y-145246810D01*
X169050430Y-145246806D01*
X169139646Y-144991839D01*
X169139647Y-144991837D01*
X169199754Y-144728490D01*
X169199756Y-144728474D01*
X169229999Y-144460066D01*
X169230000Y-144460066D01*
X169230000Y-144189934D01*
X169229999Y-144189933D01*
X169199756Y-143921525D01*
X169199754Y-143921509D01*
X169139647Y-143658162D01*
X169139646Y-143658160D01*
X169050430Y-143403193D01*
X169050428Y-143403189D01*
X168933232Y-143159828D01*
X168789514Y-142931104D01*
X168693209Y-142810341D01*
X167511762Y-143991789D01*
X167500276Y-143964058D01*
X167416884Y-143839253D01*
X167310747Y-143733116D01*
X167185942Y-143649724D01*
X167158208Y-143638236D01*
X168339657Y-142456788D01*
X168218895Y-142360485D01*
X167990171Y-142216767D01*
X167746810Y-142099571D01*
X167746806Y-142099569D01*
X167491839Y-142010353D01*
X167491837Y-142010352D01*
X167228490Y-141950245D01*
X167228474Y-141950243D01*
X166960066Y-141920000D01*
X166689934Y-141920000D01*
X166421525Y-141950243D01*
X166421509Y-141950245D01*
X166158162Y-142010352D01*
X166158160Y-142010353D01*
X165903193Y-142099569D01*
X165903189Y-142099571D01*
X165659828Y-142216767D01*
X165431110Y-142360481D01*
X165310342Y-142456789D01*
X166491790Y-143638237D01*
X166464058Y-143649724D01*
X166339253Y-143733116D01*
X166233116Y-143839253D01*
X166149724Y-143964058D01*
X166138237Y-143991790D01*
X164956789Y-142810342D01*
X164860481Y-142931110D01*
X164716767Y-143159828D01*
X164599571Y-143403189D01*
X164599569Y-143403193D01*
X164510353Y-143658160D01*
X164510352Y-143658162D01*
X164450245Y-143921509D01*
X164450243Y-143921525D01*
X164420000Y-144189933D01*
X162750500Y-144189933D01*
X162750500Y-129189933D01*
X164420000Y-129189933D01*
X164420000Y-129460066D01*
X164450243Y-129728474D01*
X164450245Y-129728490D01*
X164510352Y-129991837D01*
X164510353Y-129991839D01*
X164599569Y-130246806D01*
X164599571Y-130246810D01*
X164716767Y-130490171D01*
X164860485Y-130718895D01*
X164956788Y-130839657D01*
X166138236Y-129658209D01*
X166149724Y-129685942D01*
X166233116Y-129810747D01*
X166339253Y-129916884D01*
X166464058Y-130000276D01*
X166491789Y-130011762D01*
X165310341Y-131193209D01*
X165310341Y-131193210D01*
X165431104Y-131289514D01*
X165659828Y-131433232D01*
X165903189Y-131550428D01*
X165903193Y-131550430D01*
X166158160Y-131639646D01*
X166158162Y-131639647D01*
X166421509Y-131699754D01*
X166421525Y-131699756D01*
X166689933Y-131729999D01*
X166689934Y-131730000D01*
X166960066Y-131730000D01*
X166960066Y-131729999D01*
X167228474Y-131699756D01*
X167228490Y-131699754D01*
X167491837Y-131639647D01*
X167491839Y-131639646D01*
X167746806Y-131550430D01*
X167746810Y-131550428D01*
X167990171Y-131433232D01*
X167990175Y-131433229D01*
X168102185Y-131362849D01*
X168169422Y-131343848D01*
X168236257Y-131364215D01*
X168281472Y-131417483D01*
X168290710Y-131486739D01*
X168275545Y-131529842D01*
X168221733Y-131623046D01*
X168221728Y-131623057D01*
X168122479Y-131862665D01*
X168055353Y-132113186D01*
X168021500Y-132370314D01*
X168021500Y-132629685D01*
X168055353Y-132886813D01*
X168122479Y-133137334D01*
X168221728Y-133376942D01*
X168221733Y-133376953D01*
X168275545Y-133470157D01*
X168292018Y-133538057D01*
X168269166Y-133604084D01*
X168214244Y-133647275D01*
X168144691Y-133653916D01*
X168102186Y-133637151D01*
X167990171Y-133566767D01*
X167746810Y-133449571D01*
X167746806Y-133449569D01*
X167491839Y-133360353D01*
X167491837Y-133360352D01*
X167228490Y-133300245D01*
X167228474Y-133300243D01*
X166960066Y-133270000D01*
X166689934Y-133270000D01*
X166421525Y-133300243D01*
X166421509Y-133300245D01*
X166158162Y-133360352D01*
X166158160Y-133360353D01*
X165903193Y-133449569D01*
X165903189Y-133449571D01*
X165659828Y-133566767D01*
X165431110Y-133710481D01*
X165310342Y-133806789D01*
X166491790Y-134988236D01*
X166464058Y-134999724D01*
X166339253Y-135083116D01*
X166233116Y-135189253D01*
X166149724Y-135314058D01*
X166138237Y-135341790D01*
X164956789Y-134160342D01*
X164860481Y-134281110D01*
X164716767Y-134509828D01*
X164599571Y-134753189D01*
X164599569Y-134753193D01*
X164510353Y-135008160D01*
X164510352Y-135008162D01*
X164450245Y-135271509D01*
X164450243Y-135271525D01*
X164420000Y-135539933D01*
X164420000Y-135810066D01*
X164450243Y-136078474D01*
X164450245Y-136078490D01*
X164510352Y-136341837D01*
X164510353Y-136341839D01*
X164599569Y-136596806D01*
X164599571Y-136596810D01*
X164716767Y-136840171D01*
X164860485Y-137068895D01*
X164956788Y-137189657D01*
X166138236Y-136008209D01*
X166149724Y-136035942D01*
X166233116Y-136160747D01*
X166339253Y-136266884D01*
X166464058Y-136350276D01*
X166491789Y-136361762D01*
X165310341Y-137543210D01*
X165431104Y-137639514D01*
X165659828Y-137783232D01*
X165903189Y-137900428D01*
X165903193Y-137900430D01*
X166158160Y-137989646D01*
X166158162Y-137989647D01*
X166421509Y-138049754D01*
X166421525Y-138049756D01*
X166689933Y-138079999D01*
X166689934Y-138080000D01*
X166960066Y-138080000D01*
X166960066Y-138079999D01*
X167228474Y-138049756D01*
X167228490Y-138049754D01*
X167491837Y-137989647D01*
X167491839Y-137989646D01*
X167746806Y-137900430D01*
X167746810Y-137900428D01*
X167990171Y-137783232D01*
X168218895Y-137639515D01*
X168339657Y-137543209D01*
X167158210Y-136361762D01*
X167185942Y-136350276D01*
X167310747Y-136266884D01*
X167416884Y-136160747D01*
X167500276Y-136035942D01*
X167511763Y-136008209D01*
X168693209Y-137189657D01*
X168789515Y-137068895D01*
X168933232Y-136840171D01*
X169050428Y-136596810D01*
X169050430Y-136596806D01*
X169139646Y-136341839D01*
X169139647Y-136341837D01*
X169199754Y-136078490D01*
X169199756Y-136078474D01*
X169229999Y-135810066D01*
X169230000Y-135810066D01*
X169230000Y-135539934D01*
X169229999Y-135539933D01*
X169199756Y-135271525D01*
X169199754Y-135271509D01*
X169139647Y-135008162D01*
X169139646Y-135008160D01*
X169050430Y-134753193D01*
X169050428Y-134753189D01*
X168933232Y-134509828D01*
X168862848Y-134397813D01*
X168843848Y-134330577D01*
X168864216Y-134263741D01*
X168917483Y-134218527D01*
X168986740Y-134209289D01*
X169029841Y-134224453D01*
X169123054Y-134278270D01*
X169242861Y-134327895D01*
X169362665Y-134377520D01*
X169362666Y-134377520D01*
X169362668Y-134377521D01*
X169613186Y-134444647D01*
X169870322Y-134478500D01*
X169870329Y-134478500D01*
X170129671Y-134478500D01*
X170129678Y-134478500D01*
X170386814Y-134444647D01*
X170637332Y-134377521D01*
X170876946Y-134278270D01*
X170970158Y-134224453D01*
X171038056Y-134207981D01*
X171104083Y-134230833D01*
X171147274Y-134285754D01*
X171153916Y-134355307D01*
X171137151Y-134397813D01*
X171066767Y-134509828D01*
X170949571Y-134753189D01*
X170949569Y-134753193D01*
X170860353Y-135008160D01*
X170860352Y-135008162D01*
X170800245Y-135271509D01*
X170800243Y-135271525D01*
X170770000Y-135539933D01*
X170770000Y-135810066D01*
X170800243Y-136078474D01*
X170800245Y-136078490D01*
X170860352Y-136341837D01*
X170860353Y-136341839D01*
X170949569Y-136596806D01*
X170949571Y-136596810D01*
X171066767Y-136840171D01*
X171210485Y-137068895D01*
X171306788Y-137189657D01*
X172488236Y-136008209D01*
X172499724Y-136035942D01*
X172583116Y-136160747D01*
X172689253Y-136266884D01*
X172814058Y-136350276D01*
X172841789Y-136361762D01*
X171660341Y-137543210D01*
X171781104Y-137639514D01*
X172009828Y-137783232D01*
X172253189Y-137900428D01*
X172253193Y-137900430D01*
X172508160Y-137989646D01*
X172508162Y-137989647D01*
X172771509Y-138049754D01*
X172771525Y-138049756D01*
X173039933Y-138079999D01*
X173039934Y-138080000D01*
X173310066Y-138080000D01*
X173310066Y-138079999D01*
X173578474Y-138049756D01*
X173578490Y-138049754D01*
X173841837Y-137989647D01*
X173841839Y-137989646D01*
X174096806Y-137900430D01*
X174096810Y-137900428D01*
X174340171Y-137783232D01*
X174568895Y-137639515D01*
X174689657Y-137543209D01*
X173508210Y-136361762D01*
X173535942Y-136350276D01*
X173660747Y-136266884D01*
X173766884Y-136160747D01*
X173850276Y-136035942D01*
X173861762Y-136008210D01*
X175043209Y-137189657D01*
X175139515Y-137068895D01*
X175283232Y-136840171D01*
X175400428Y-136596810D01*
X175400430Y-136596806D01*
X175489646Y-136341839D01*
X175489647Y-136341837D01*
X175549754Y-136078490D01*
X175549756Y-136078474D01*
X175579999Y-135810066D01*
X175580000Y-135810066D01*
X175580000Y-135539934D01*
X175579999Y-135539933D01*
X175549756Y-135271525D01*
X175549754Y-135271509D01*
X175489647Y-135008162D01*
X175489646Y-135008160D01*
X175400430Y-134753193D01*
X175400428Y-134753189D01*
X175294487Y-134533199D01*
X175283232Y-134509828D01*
X175269218Y-134487525D01*
X190524500Y-134487525D01*
X190524500Y-134632475D01*
X190527935Y-134645293D01*
X190562017Y-134772488D01*
X190634488Y-134898011D01*
X190634493Y-134898017D01*
X190688181Y-134951705D01*
X190721666Y-135013028D01*
X190724500Y-135039386D01*
X190724500Y-138596324D01*
X190704815Y-138663363D01*
X190688181Y-138684005D01*
X190674502Y-138697683D01*
X190674500Y-138697686D01*
X190608608Y-138811812D01*
X190574500Y-138939108D01*
X190574500Y-139070891D01*
X190608608Y-139198187D01*
X190641554Y-139255250D01*
X190674500Y-139312314D01*
X190674502Y-139312316D01*
X190688181Y-139325995D01*
X190721666Y-139387318D01*
X190724500Y-139413676D01*
X190724500Y-139795614D01*
X190704815Y-139862653D01*
X190688181Y-139883295D01*
X190634493Y-139936982D01*
X190634488Y-139936988D01*
X190562017Y-140062511D01*
X190562016Y-140062515D01*
X190524500Y-140202525D01*
X190524500Y-140347475D01*
X190550259Y-140443608D01*
X190562017Y-140487488D01*
X190634488Y-140613011D01*
X190634490Y-140613013D01*
X190634491Y-140613015D01*
X190736985Y-140715509D01*
X190736986Y-140715510D01*
X190736988Y-140715511D01*
X190862511Y-140787982D01*
X190862512Y-140787982D01*
X190862515Y-140787984D01*
X191002525Y-140825500D01*
X191002528Y-140825500D01*
X191147472Y-140825500D01*
X191147475Y-140825500D01*
X191287485Y-140787984D01*
X191413015Y-140715509D01*
X191515509Y-140613015D01*
X191587984Y-140487485D01*
X191625500Y-140347475D01*
X191625500Y-140202525D01*
X191587984Y-140062515D01*
X191519867Y-139944534D01*
X191515511Y-139936988D01*
X191515506Y-139936982D01*
X191461819Y-139883295D01*
X191428334Y-139821972D01*
X191425500Y-139795614D01*
X191425500Y-139413676D01*
X191445185Y-139346637D01*
X191461819Y-139325995D01*
X191475500Y-139312314D01*
X191541392Y-139198186D01*
X191575500Y-139070892D01*
X191575500Y-138939108D01*
X191541392Y-138811814D01*
X191475500Y-138697686D01*
X191452139Y-138674325D01*
X191444806Y-138662771D01*
X191438781Y-138641815D01*
X191428334Y-138622682D01*
X191425500Y-138596324D01*
X191425500Y-137589209D01*
X196035456Y-137589209D01*
X196035456Y-137801702D01*
X196068698Y-138011583D01*
X196068698Y-138011586D01*
X196134360Y-138213673D01*
X196230831Y-138403006D01*
X196270184Y-138457172D01*
X196902493Y-137824864D01*
X196919531Y-137888449D01*
X196985357Y-138002463D01*
X197078449Y-138095555D01*
X197192463Y-138161381D01*
X197256046Y-138178418D01*
X196623738Y-138810725D01*
X196623738Y-138810726D01*
X196677905Y-138850080D01*
X196867238Y-138946551D01*
X197069326Y-139012213D01*
X197279210Y-139045456D01*
X197491702Y-139045456D01*
X197701583Y-139012213D01*
X197701586Y-139012213D01*
X197903675Y-138946550D01*
X197995939Y-138899539D01*
X198064608Y-138886642D01*
X198129349Y-138912918D01*
X198169606Y-138970024D01*
X198172599Y-139039829D01*
X198162720Y-139066317D01*
X198124782Y-139140773D01*
X198061522Y-139335465D01*
X198029500Y-139537648D01*
X198029500Y-139742351D01*
X198061522Y-139944534D01*
X198098726Y-140059035D01*
X198124780Y-140139219D01*
X198124781Y-140139222D01*
X198124782Y-140139223D01*
X198162720Y-140213681D01*
X198175616Y-140282351D01*
X198149340Y-140347091D01*
X198092233Y-140387348D01*
X198022427Y-140390340D01*
X197995940Y-140380461D01*
X197903673Y-140333448D01*
X197701585Y-140267786D01*
X197491702Y-140234544D01*
X197279210Y-140234544D01*
X197069328Y-140267786D01*
X197069325Y-140267786D01*
X196867238Y-140333448D01*
X196677895Y-140429924D01*
X196623738Y-140469271D01*
X196623738Y-140469272D01*
X197256047Y-141101581D01*
X197192463Y-141118619D01*
X197078449Y-141184445D01*
X196985357Y-141277537D01*
X196919531Y-141391551D01*
X196902493Y-141455135D01*
X196270184Y-140822826D01*
X196270183Y-140822826D01*
X196230836Y-140876983D01*
X196134360Y-141066326D01*
X196068698Y-141268413D01*
X196068698Y-141268416D01*
X196035456Y-141478297D01*
X196035456Y-141690790D01*
X196068698Y-141900671D01*
X196068698Y-141900674D01*
X196134360Y-142102761D01*
X196230831Y-142292094D01*
X196270184Y-142346260D01*
X196902493Y-141713952D01*
X196919531Y-141777537D01*
X196985357Y-141891551D01*
X197078449Y-141984643D01*
X197192463Y-142050469D01*
X197256046Y-142067506D01*
X196623738Y-142699813D01*
X196623738Y-142699814D01*
X196677905Y-142739168D01*
X196867238Y-142835639D01*
X197069326Y-142901301D01*
X197279210Y-142934544D01*
X197491702Y-142934544D01*
X197701583Y-142901301D01*
X197701586Y-142901301D01*
X197903673Y-142835639D01*
X198093010Y-142739166D01*
X198147172Y-142699814D01*
X198147173Y-142699814D01*
X197514864Y-142067506D01*
X197578449Y-142050469D01*
X197692463Y-141984643D01*
X197785555Y-141891551D01*
X197851381Y-141777537D01*
X197868418Y-141713952D01*
X198500726Y-142346261D01*
X198500726Y-142346260D01*
X198540078Y-142292098D01*
X198636551Y-142102761D01*
X198702213Y-141900674D01*
X198702213Y-141900671D01*
X198735456Y-141690790D01*
X198735456Y-141478297D01*
X198702213Y-141268416D01*
X198702213Y-141268413D01*
X198636550Y-141066324D01*
X198589539Y-140974060D01*
X198576642Y-140905390D01*
X198602918Y-140840650D01*
X198660024Y-140800392D01*
X198729830Y-140797400D01*
X198756318Y-140807279D01*
X198830776Y-140845218D01*
X198830778Y-140845218D01*
X198830781Y-140845220D01*
X198928568Y-140876993D01*
X199025465Y-140908477D01*
X199126557Y-140924488D01*
X199227648Y-140940500D01*
X199227649Y-140940500D01*
X199432351Y-140940500D01*
X199432352Y-140940500D01*
X199634534Y-140908477D01*
X199829219Y-140845220D01*
X199831398Y-140844110D01*
X199867922Y-140825500D01*
X199903680Y-140807279D01*
X199972349Y-140794383D01*
X200037090Y-140820659D01*
X200077347Y-140877765D01*
X200080340Y-140947570D01*
X200070461Y-140974059D01*
X200023448Y-141066326D01*
X199957786Y-141268413D01*
X199957786Y-141268416D01*
X199924544Y-141478297D01*
X199924544Y-141690790D01*
X199957786Y-141900671D01*
X199957786Y-141900674D01*
X200023448Y-142102761D01*
X200119919Y-142292094D01*
X200159272Y-142346260D01*
X200791581Y-141713952D01*
X200808619Y-141777537D01*
X200874445Y-141891551D01*
X200967537Y-141984643D01*
X201081551Y-142050469D01*
X201145134Y-142067506D01*
X200512826Y-142699813D01*
X200512826Y-142699814D01*
X200566993Y-142739168D01*
X200756326Y-142835639D01*
X200958414Y-142901301D01*
X201168298Y-142934544D01*
X201380790Y-142934544D01*
X201590671Y-142901301D01*
X201590674Y-142901301D01*
X201792761Y-142835639D01*
X201982098Y-142739166D01*
X202036260Y-142699814D01*
X202036261Y-142699814D01*
X201403952Y-142067506D01*
X201467537Y-142050469D01*
X201581551Y-141984643D01*
X201674643Y-141891551D01*
X201740469Y-141777537D01*
X201757506Y-141713952D01*
X202389814Y-142346261D01*
X202389814Y-142346260D01*
X202429166Y-142292098D01*
X202525639Y-142102761D01*
X202591301Y-141900674D01*
X202591301Y-141900671D01*
X202624544Y-141690790D01*
X202624544Y-141478297D01*
X202591301Y-141268416D01*
X202591301Y-141268413D01*
X202525639Y-141066326D01*
X202429168Y-140876993D01*
X202389814Y-140822826D01*
X202389813Y-140822826D01*
X201757506Y-141455134D01*
X201740469Y-141391551D01*
X201674643Y-141277537D01*
X201581551Y-141184445D01*
X201467537Y-141118619D01*
X201403952Y-141101581D01*
X202036260Y-140469272D01*
X201982094Y-140429919D01*
X201792761Y-140333448D01*
X201590673Y-140267786D01*
X201380790Y-140234544D01*
X201168298Y-140234544D01*
X200958416Y-140267786D01*
X200958413Y-140267786D01*
X200756326Y-140333448D01*
X200664059Y-140380461D01*
X200595389Y-140393357D01*
X200530649Y-140367080D01*
X200490392Y-140309974D01*
X200487400Y-140240168D01*
X200497280Y-140213680D01*
X200535217Y-140139225D01*
X200535218Y-140139223D01*
X200535220Y-140139219D01*
X200598477Y-139944534D01*
X200630500Y-139742352D01*
X200630500Y-139537648D01*
X200612233Y-139422319D01*
X200598477Y-139335465D01*
X200535218Y-139140776D01*
X200497279Y-139066318D01*
X200484383Y-138997649D01*
X200510659Y-138932909D01*
X200567765Y-138892651D01*
X200637571Y-138889659D01*
X200664060Y-138899539D01*
X200756324Y-138946550D01*
X200756323Y-138946550D01*
X200958414Y-139012213D01*
X201168298Y-139045456D01*
X201380790Y-139045456D01*
X201590671Y-139012213D01*
X201590674Y-139012213D01*
X201792761Y-138946551D01*
X201982098Y-138850078D01*
X202036260Y-138810726D01*
X202036261Y-138810726D01*
X201403952Y-138178418D01*
X201467537Y-138161381D01*
X201581551Y-138095555D01*
X201674643Y-138002463D01*
X201740469Y-137888449D01*
X201757506Y-137824864D01*
X202389814Y-138457173D01*
X202389814Y-138457172D01*
X202429166Y-138403010D01*
X202525639Y-138213673D01*
X202591301Y-138011586D01*
X202591301Y-138011583D01*
X202624544Y-137801702D01*
X202624544Y-137589209D01*
X202591301Y-137379328D01*
X202591301Y-137379325D01*
X202525639Y-137177238D01*
X202429168Y-136987905D01*
X202389814Y-136933738D01*
X202389813Y-136933738D01*
X201757506Y-137566046D01*
X201740469Y-137502463D01*
X201674643Y-137388449D01*
X201581551Y-137295357D01*
X201467537Y-137229531D01*
X201403953Y-137212493D01*
X202036260Y-136580184D01*
X201982094Y-136540831D01*
X201792761Y-136444360D01*
X201590673Y-136378698D01*
X201380790Y-136345456D01*
X201168298Y-136345456D01*
X200958416Y-136378698D01*
X200958413Y-136378698D01*
X200756326Y-136444360D01*
X200566983Y-136540836D01*
X200512826Y-136580183D01*
X200512826Y-136580184D01*
X201145135Y-137212493D01*
X201081551Y-137229531D01*
X200967537Y-137295357D01*
X200874445Y-137388449D01*
X200808619Y-137502463D01*
X200791581Y-137566047D01*
X200159272Y-136933738D01*
X200159271Y-136933738D01*
X200119924Y-136987895D01*
X200023448Y-137177238D01*
X199957786Y-137379325D01*
X199957786Y-137379328D01*
X199924544Y-137589209D01*
X199924544Y-137801702D01*
X199957786Y-138011583D01*
X199957786Y-138011586D01*
X200023448Y-138213673D01*
X200070461Y-138305940D01*
X200083357Y-138374609D01*
X200057081Y-138439350D01*
X199999974Y-138479607D01*
X199930169Y-138482599D01*
X199903681Y-138472720D01*
X199829223Y-138434782D01*
X199829222Y-138434781D01*
X199829219Y-138434780D01*
X199729047Y-138402232D01*
X199634534Y-138371522D01*
X199459995Y-138343878D01*
X199432352Y-138339500D01*
X199227648Y-138339500D01*
X199203329Y-138343351D01*
X199025465Y-138371522D01*
X198830773Y-138434782D01*
X198756317Y-138472720D01*
X198687648Y-138485616D01*
X198622908Y-138459339D01*
X198582651Y-138402232D01*
X198579659Y-138332427D01*
X198589539Y-138305939D01*
X198636550Y-138213675D01*
X198702213Y-138011586D01*
X198702213Y-138011583D01*
X198735456Y-137801702D01*
X198735456Y-137589209D01*
X198702213Y-137379328D01*
X198702213Y-137379325D01*
X198636551Y-137177238D01*
X198540080Y-136987905D01*
X198500726Y-136933738D01*
X198500725Y-136933738D01*
X197868418Y-137566046D01*
X197851381Y-137502463D01*
X197785555Y-137388449D01*
X197692463Y-137295357D01*
X197578449Y-137229531D01*
X197514865Y-137212493D01*
X198147172Y-136580184D01*
X198093006Y-136540831D01*
X197903673Y-136444360D01*
X197701585Y-136378698D01*
X197491702Y-136345456D01*
X197279210Y-136345456D01*
X197069328Y-136378698D01*
X197069325Y-136378698D01*
X196867238Y-136444360D01*
X196677895Y-136540836D01*
X196623738Y-136580183D01*
X196623738Y-136580184D01*
X197256047Y-137212493D01*
X197192463Y-137229531D01*
X197078449Y-137295357D01*
X196985357Y-137388449D01*
X196919531Y-137502463D01*
X196902493Y-137566047D01*
X196270184Y-136933738D01*
X196270183Y-136933738D01*
X196230836Y-136987895D01*
X196134360Y-137177238D01*
X196068698Y-137379325D01*
X196068698Y-137379328D01*
X196035456Y-137589209D01*
X191425500Y-137589209D01*
X191425500Y-135039386D01*
X191445185Y-134972347D01*
X191461819Y-134951705D01*
X191471241Y-134942283D01*
X191515509Y-134898015D01*
X191587984Y-134772485D01*
X191625500Y-134632475D01*
X191625500Y-134487525D01*
X191587984Y-134347515D01*
X191549641Y-134281104D01*
X191515511Y-134221988D01*
X191515506Y-134221982D01*
X191413017Y-134119493D01*
X191413011Y-134119488D01*
X191287488Y-134047017D01*
X191287489Y-134047017D01*
X191278110Y-134044504D01*
X191147475Y-134009500D01*
X191002525Y-134009500D01*
X190873993Y-134043940D01*
X190862511Y-134047017D01*
X190736988Y-134119488D01*
X190736982Y-134119493D01*
X190634493Y-134221982D01*
X190634488Y-134221988D01*
X190562017Y-134347511D01*
X190562016Y-134347515D01*
X190524500Y-134487525D01*
X175269218Y-134487525D01*
X175139514Y-134281104D01*
X175043210Y-134160341D01*
X173861762Y-135341789D01*
X173850276Y-135314058D01*
X173766884Y-135189253D01*
X173660747Y-135083116D01*
X173535942Y-134999724D01*
X173508209Y-134988236D01*
X174571446Y-133924999D01*
X222190000Y-133924999D01*
X222190000Y-133925000D01*
X222190000Y-137862000D01*
X223714000Y-139386000D01*
X224805638Y-139386000D01*
X224835078Y-139394644D01*
X224865065Y-139401168D01*
X224870080Y-139404922D01*
X224872677Y-139405685D01*
X224893319Y-139422319D01*
X224947681Y-139476681D01*
X224981166Y-139538004D01*
X224984000Y-139564362D01*
X224984000Y-141037000D01*
X229578610Y-145631610D01*
X229612095Y-145692933D01*
X229607111Y-145762625D01*
X229598316Y-145781291D01*
X229578081Y-145816338D01*
X229578081Y-145816339D01*
X229543972Y-145943636D01*
X229543972Y-146075419D01*
X229578080Y-146202715D01*
X229579798Y-146205690D01*
X229643972Y-146316842D01*
X229737158Y-146410028D01*
X229851286Y-146475920D01*
X229978580Y-146510028D01*
X229978582Y-146510028D01*
X230110362Y-146510028D01*
X230110364Y-146510028D01*
X230138523Y-146502482D01*
X230171862Y-146498264D01*
X230187549Y-146498421D01*
X230195410Y-146500528D01*
X230274534Y-146500528D01*
X230396818Y-146500528D01*
X230397414Y-146500534D01*
X230430281Y-146510545D01*
X230463205Y-146520213D01*
X230463925Y-146520793D01*
X230464252Y-146520893D01*
X230464692Y-146521411D01*
X230483847Y-146536847D01*
X230843333Y-146896333D01*
X230876818Y-146957656D01*
X230871834Y-147027348D01*
X230843333Y-147071695D01*
X226111847Y-151803181D01*
X226050524Y-151836666D01*
X226024166Y-151839500D01*
X225934108Y-151839500D01*
X225806812Y-151873608D01*
X225692686Y-151939500D01*
X225692683Y-151939502D01*
X225599502Y-152032683D01*
X225599500Y-152032686D01*
X225533608Y-152146812D01*
X225499500Y-152274108D01*
X225499500Y-152405891D01*
X225533608Y-152533187D01*
X225539395Y-152543210D01*
X225599500Y-152647314D01*
X225692686Y-152740500D01*
X225806814Y-152806392D01*
X225934108Y-152840500D01*
X225934110Y-152840500D01*
X226065890Y-152840500D01*
X226065892Y-152840500D01*
X226193186Y-152806392D01*
X226307314Y-152740500D01*
X226400500Y-152647314D01*
X226466392Y-152533186D01*
X226500500Y-152405892D01*
X226500500Y-152315832D01*
X226509144Y-152286391D01*
X226515668Y-152256405D01*
X226519422Y-152251389D01*
X226520185Y-152248793D01*
X226536819Y-152228151D01*
X226557819Y-152207151D01*
X226619142Y-152173666D01*
X226688834Y-152178650D01*
X226744767Y-152220522D01*
X226769184Y-152285986D01*
X226769500Y-152294832D01*
X226769500Y-152405891D01*
X226803608Y-152533187D01*
X226809395Y-152543210D01*
X226869500Y-152647314D01*
X226962686Y-152740500D01*
X227076814Y-152806392D01*
X227204108Y-152840500D01*
X227204109Y-152840500D01*
X227211958Y-152842603D01*
X227211144Y-152845640D01*
X227261466Y-152867880D01*
X227299958Y-152926190D01*
X227300816Y-152996054D01*
X227263766Y-153055291D01*
X227213514Y-153082356D01*
X227168819Y-153094332D01*
X227168818Y-153094332D01*
X227054690Y-153160225D01*
X227054687Y-153160227D01*
X226961506Y-153253408D01*
X226961504Y-153253411D01*
X226895612Y-153367537D01*
X226861504Y-153494833D01*
X226861504Y-153626616D01*
X226895612Y-153753912D01*
X226902965Y-153766647D01*
X226961504Y-153868039D01*
X227054690Y-153961225D01*
X227168818Y-154027117D01*
X227296112Y-154061225D01*
X227296114Y-154061225D01*
X227427894Y-154061225D01*
X227427896Y-154061225D01*
X227555190Y-154027117D01*
X227669318Y-153961225D01*
X227762504Y-153868039D01*
X227828396Y-153753911D01*
X227828396Y-153753908D01*
X227829479Y-153751296D01*
X227830984Y-153749427D01*
X227832460Y-153746872D01*
X227832858Y-153747101D01*
X227873316Y-153696890D01*
X227939609Y-153674820D01*
X228007309Y-153692095D01*
X228054923Y-153743229D01*
X228063816Y-153766642D01*
X228073608Y-153803186D01*
X228139500Y-153917314D01*
X228232686Y-154010500D01*
X228346814Y-154076392D01*
X228474108Y-154110500D01*
X228474110Y-154110500D01*
X228605890Y-154110500D01*
X228605892Y-154110500D01*
X228733186Y-154076392D01*
X228847314Y-154010500D01*
X228940500Y-153917314D01*
X229006392Y-153803186D01*
X229006393Y-153803180D01*
X229009503Y-153795676D01*
X229011803Y-153796628D01*
X229037082Y-153752830D01*
X231219913Y-151570000D01*
X254200138Y-151570000D01*
X255003012Y-151570000D01*
X254985795Y-151579940D01*
X254929940Y-151635795D01*
X254890444Y-151704204D01*
X254870000Y-151780504D01*
X254870000Y-151859496D01*
X254890444Y-151935796D01*
X254929940Y-152004205D01*
X254985795Y-152060060D01*
X255003012Y-152070000D01*
X254200138Y-152070000D01*
X254208430Y-152111690D01*
X254208430Y-152111692D01*
X254283807Y-152293671D01*
X254283814Y-152293684D01*
X254393248Y-152457462D01*
X254393251Y-152457466D01*
X254532533Y-152596748D01*
X254532537Y-152596751D01*
X254696315Y-152706185D01*
X254696328Y-152706192D01*
X254878306Y-152781569D01*
X254878318Y-152781572D01*
X255071504Y-152819999D01*
X255071508Y-152820000D01*
X255470000Y-152820000D01*
X255470000Y-152120000D01*
X255970000Y-152120000D01*
X255970000Y-152820000D01*
X256368492Y-152820000D01*
X256368495Y-152819999D01*
X256561681Y-152781572D01*
X256561693Y-152781569D01*
X256743671Y-152706192D01*
X256743684Y-152706185D01*
X256907462Y-152596751D01*
X256907466Y-152596748D01*
X257046748Y-152457466D01*
X257046751Y-152457462D01*
X257156185Y-152293684D01*
X257156192Y-152293671D01*
X257231569Y-152111692D01*
X257231569Y-152111690D01*
X257239862Y-152070000D01*
X256436988Y-152070000D01*
X256454205Y-152060060D01*
X256510060Y-152004205D01*
X256549556Y-151935796D01*
X256570000Y-151859496D01*
X256570000Y-151780504D01*
X256549556Y-151704204D01*
X256510060Y-151635795D01*
X256454205Y-151579940D01*
X256436988Y-151570000D01*
X257239862Y-151570000D01*
X258530138Y-151570000D01*
X259333012Y-151570000D01*
X259315795Y-151579940D01*
X259259940Y-151635795D01*
X259220444Y-151704204D01*
X259200000Y-151780504D01*
X259200000Y-151859496D01*
X259220444Y-151935796D01*
X259259940Y-152004205D01*
X259315795Y-152060060D01*
X259333012Y-152070000D01*
X258530138Y-152070000D01*
X258538430Y-152111690D01*
X258538430Y-152111692D01*
X258613807Y-152293671D01*
X258613814Y-152293684D01*
X258723248Y-152457462D01*
X258723251Y-152457466D01*
X258862533Y-152596748D01*
X258862537Y-152596751D01*
X259026315Y-152706185D01*
X259026328Y-152706192D01*
X259208306Y-152781569D01*
X259208318Y-152781572D01*
X259401504Y-152819999D01*
X259401508Y-152820000D01*
X259650000Y-152820000D01*
X259650000Y-152120000D01*
X260150000Y-152120000D01*
X260150000Y-152820000D01*
X260398492Y-152820000D01*
X260398495Y-152819999D01*
X260591681Y-152781572D01*
X260591693Y-152781569D01*
X260773671Y-152706192D01*
X260773684Y-152706185D01*
X260937462Y-152596751D01*
X260937466Y-152596748D01*
X261076748Y-152457466D01*
X261076751Y-152457462D01*
X261186185Y-152293684D01*
X261186192Y-152293671D01*
X261261569Y-152111692D01*
X261261569Y-152111690D01*
X261269862Y-152070000D01*
X260466988Y-152070000D01*
X260484205Y-152060060D01*
X260540060Y-152004205D01*
X260579556Y-151935796D01*
X260600000Y-151859496D01*
X260600000Y-151780504D01*
X260579556Y-151704204D01*
X260540060Y-151635795D01*
X260484205Y-151579940D01*
X260466988Y-151570000D01*
X261269862Y-151570000D01*
X261261569Y-151528309D01*
X261261569Y-151528307D01*
X261186192Y-151346328D01*
X261186185Y-151346315D01*
X261076751Y-151182537D01*
X261076748Y-151182533D01*
X260937466Y-151043251D01*
X260937462Y-151043248D01*
X260773684Y-150933814D01*
X260773671Y-150933807D01*
X260591693Y-150858430D01*
X260591681Y-150858427D01*
X260398495Y-150820000D01*
X260150000Y-150820000D01*
X260150000Y-151520000D01*
X259650000Y-151520000D01*
X259650000Y-150820000D01*
X259401504Y-150820000D01*
X259208318Y-150858427D01*
X259208306Y-150858430D01*
X259026328Y-150933807D01*
X259026315Y-150933814D01*
X258862537Y-151043248D01*
X258862533Y-151043251D01*
X258723251Y-151182533D01*
X258723248Y-151182537D01*
X258613814Y-151346315D01*
X258613807Y-151346328D01*
X258538430Y-151528307D01*
X258538430Y-151528309D01*
X258530138Y-151570000D01*
X257239862Y-151570000D01*
X257231569Y-151528309D01*
X257231569Y-151528307D01*
X257156192Y-151346328D01*
X257156185Y-151346315D01*
X257046751Y-151182537D01*
X257046748Y-151182533D01*
X256907466Y-151043251D01*
X256907462Y-151043248D01*
X256743684Y-150933814D01*
X256743672Y-150933807D01*
X256685802Y-150909838D01*
X256631398Y-150865998D01*
X256609333Y-150799704D01*
X256626612Y-150732004D01*
X256636233Y-150719627D01*
X256635559Y-150719110D01*
X256640500Y-150712669D01*
X256640505Y-150712665D01*
X256709688Y-150592836D01*
X256745500Y-150459183D01*
X256745500Y-150320817D01*
X256709688Y-150187164D01*
X256640505Y-150067335D01*
X256542665Y-149969495D01*
X256542664Y-149969494D01*
X256542661Y-149969492D01*
X256422838Y-149900313D01*
X256422837Y-149900312D01*
X256422836Y-149900312D01*
X256289183Y-149864500D01*
X256150817Y-149864500D01*
X256017164Y-149900312D01*
X256017161Y-149900313D01*
X255897338Y-149969492D01*
X255897333Y-149969496D01*
X255799496Y-150067333D01*
X255799492Y-150067338D01*
X255730313Y-150187161D01*
X255730312Y-150187164D01*
X255694500Y-150320817D01*
X255694500Y-150459183D01*
X255715072Y-150535957D01*
X255730312Y-150592835D01*
X255730313Y-150592838D01*
X255799492Y-150712661D01*
X255799494Y-150712664D01*
X255799495Y-150712665D01*
X255897335Y-150810505D01*
X255897336Y-150810506D01*
X255897338Y-150810507D01*
X255907996Y-150816660D01*
X255956214Y-150867225D01*
X255970000Y-150924049D01*
X255970000Y-151520000D01*
X255470000Y-151520000D01*
X255470000Y-150820000D01*
X255071504Y-150820000D01*
X254878318Y-150858427D01*
X254878306Y-150858430D01*
X254696328Y-150933807D01*
X254696315Y-150933814D01*
X254532537Y-151043248D01*
X254532533Y-151043251D01*
X254393251Y-151182533D01*
X254393248Y-151182537D01*
X254283814Y-151346315D01*
X254283807Y-151346328D01*
X254208430Y-151528307D01*
X254208430Y-151528309D01*
X254200138Y-151570000D01*
X231219913Y-151570000D01*
X233826460Y-148963454D01*
X233836255Y-148946489D01*
X233866021Y-148894932D01*
X233886500Y-148818505D01*
X233886500Y-148241495D01*
X233866021Y-148165068D01*
X233845486Y-148129500D01*
X233826464Y-148096552D01*
X233826458Y-148096544D01*
X232924022Y-147194108D01*
X238199500Y-147194108D01*
X238199500Y-147325892D01*
X238214618Y-147382313D01*
X238233608Y-147453187D01*
X238235617Y-147456666D01*
X238299500Y-147567314D01*
X238392686Y-147660500D01*
X238506814Y-147726392D01*
X238634108Y-147760500D01*
X238634110Y-147760500D01*
X238765890Y-147760500D01*
X238765892Y-147760500D01*
X238893186Y-147726392D01*
X239007314Y-147660500D01*
X239100500Y-147567314D01*
X239166392Y-147453186D01*
X239200500Y-147325892D01*
X239200500Y-147194108D01*
X239166392Y-147066814D01*
X239166390Y-147066810D01*
X239164178Y-147062978D01*
X239133075Y-147009108D01*
X250499500Y-147009108D01*
X250499500Y-147140891D01*
X250533608Y-147268187D01*
X250566554Y-147325250D01*
X250599500Y-147382314D01*
X250599502Y-147382316D01*
X250629505Y-147412319D01*
X250662990Y-147473642D01*
X250658006Y-147543334D01*
X250629505Y-147587681D01*
X250599502Y-147617683D01*
X250599500Y-147617686D01*
X250533608Y-147731812D01*
X250499500Y-147859108D01*
X250499500Y-147990892D01*
X250512818Y-148040597D01*
X250533608Y-148118187D01*
X250540140Y-148129500D01*
X250599500Y-148232314D01*
X250692686Y-148325500D01*
X250806814Y-148391392D01*
X250934108Y-148425500D01*
X250934110Y-148425500D01*
X251065890Y-148425500D01*
X251065892Y-148425500D01*
X251193186Y-148391392D01*
X251307314Y-148325500D01*
X251400500Y-148232314D01*
X251466392Y-148118186D01*
X251466393Y-148118184D01*
X251466601Y-148117408D01*
X251466955Y-148116826D01*
X251469504Y-148110674D01*
X251470463Y-148111071D01*
X251502965Y-148057747D01*
X251565811Y-148027217D01*
X251586376Y-148025500D01*
X256348345Y-148025500D01*
X256415384Y-148045185D01*
X256461139Y-148097989D01*
X256468121Y-148117412D01*
X256468328Y-148118187D01*
X256474860Y-148129500D01*
X256534220Y-148232314D01*
X256627406Y-148325500D01*
X256741534Y-148391392D01*
X256868828Y-148425500D01*
X256868830Y-148425500D01*
X257000610Y-148425500D01*
X257000612Y-148425500D01*
X257127906Y-148391392D01*
X257242034Y-148325500D01*
X257335220Y-148232314D01*
X257401112Y-148118186D01*
X257435220Y-147990892D01*
X257435220Y-147859108D01*
X257401112Y-147731814D01*
X257335220Y-147617686D01*
X257305215Y-147587681D01*
X257271730Y-147526358D01*
X257276714Y-147456666D01*
X257305215Y-147412319D01*
X257335220Y-147382314D01*
X257401112Y-147268186D01*
X257435220Y-147140892D01*
X257435220Y-147009108D01*
X257401112Y-146881814D01*
X257335220Y-146767686D01*
X257242034Y-146674500D01*
X257181665Y-146639646D01*
X257127907Y-146608608D01*
X257064259Y-146591554D01*
X257000612Y-146574500D01*
X256868828Y-146574500D01*
X256741532Y-146608608D01*
X256627406Y-146674500D01*
X256627403Y-146674502D01*
X256534222Y-146767683D01*
X256534220Y-146767686D01*
X256468328Y-146881813D01*
X256468120Y-146882591D01*
X256467764Y-146883173D01*
X256465220Y-146889318D01*
X256464261Y-146888921D01*
X256431756Y-146942252D01*
X256368910Y-146972782D01*
X256348345Y-146974499D01*
X251586376Y-146974499D01*
X251519337Y-146954814D01*
X251473582Y-146902010D01*
X251466602Y-146882594D01*
X251466394Y-146881818D01*
X251466392Y-146881815D01*
X251466392Y-146881814D01*
X251400500Y-146767686D01*
X251307314Y-146674500D01*
X251246945Y-146639646D01*
X251193187Y-146608608D01*
X251129539Y-146591554D01*
X251065892Y-146574500D01*
X250934108Y-146574500D01*
X250806812Y-146608608D01*
X250692686Y-146674500D01*
X250692683Y-146674502D01*
X250599502Y-146767683D01*
X250599500Y-146767686D01*
X250533608Y-146881812D01*
X250499500Y-147009108D01*
X239133075Y-147009108D01*
X239100500Y-146952686D01*
X239007314Y-146859500D01*
X238950250Y-146826554D01*
X238893187Y-146793608D01*
X238796454Y-146767689D01*
X238765892Y-146759500D01*
X238634108Y-146759500D01*
X238506812Y-146793608D01*
X238392686Y-146859500D01*
X238392683Y-146859502D01*
X238299502Y-146952683D01*
X238299500Y-146952686D01*
X238233608Y-147066812D01*
X238213759Y-147140891D01*
X238199500Y-147194108D01*
X232924022Y-147194108D01*
X232313138Y-146583224D01*
X232279653Y-146521901D01*
X232284637Y-146452209D01*
X232313138Y-146407862D01*
X232431486Y-146289514D01*
X232604000Y-146117000D01*
X232604000Y-145101000D01*
X232157108Y-144654108D01*
X236929500Y-144654108D01*
X236929500Y-144785891D01*
X236963608Y-144913187D01*
X236996554Y-144970250D01*
X237029500Y-145027314D01*
X237122686Y-145120500D01*
X237236814Y-145186392D01*
X237364108Y-145220500D01*
X237364110Y-145220500D01*
X237495890Y-145220500D01*
X237495892Y-145220500D01*
X237623186Y-145186392D01*
X237737314Y-145120500D01*
X237830500Y-145027314D01*
X237896392Y-144913186D01*
X237930500Y-144785892D01*
X237930500Y-144654108D01*
X237896392Y-144526814D01*
X237830500Y-144412686D01*
X237737314Y-144319500D01*
X237666948Y-144278874D01*
X237623187Y-144253608D01*
X237559539Y-144236554D01*
X237495892Y-144219500D01*
X237364108Y-144219500D01*
X237236812Y-144253608D01*
X237122686Y-144319500D01*
X237122683Y-144319502D01*
X237029502Y-144412683D01*
X237029500Y-144412686D01*
X236963608Y-144526812D01*
X236929500Y-144654108D01*
X232157108Y-144654108D01*
X230887108Y-143384108D01*
X236929500Y-143384108D01*
X236929500Y-143515892D01*
X236946554Y-143579539D01*
X236963608Y-143643187D01*
X236969669Y-143653684D01*
X237029500Y-143757314D01*
X237122686Y-143850500D01*
X237236814Y-143916392D01*
X237364108Y-143950500D01*
X237364110Y-143950500D01*
X237495890Y-143950500D01*
X237495892Y-143950500D01*
X237623186Y-143916392D01*
X237737314Y-143850500D01*
X237830500Y-143757314D01*
X237896392Y-143643186D01*
X237930500Y-143515892D01*
X237930500Y-143384108D01*
X237896392Y-143256814D01*
X237830500Y-143142686D01*
X237737314Y-143049500D01*
X237680250Y-143016554D01*
X237623187Y-142983608D01*
X237559539Y-142966554D01*
X237495892Y-142949500D01*
X237364108Y-142949500D01*
X237236812Y-142983608D01*
X237122686Y-143049500D01*
X237122683Y-143049502D01*
X237029502Y-143142683D01*
X237029500Y-143142686D01*
X236963608Y-143256812D01*
X236953163Y-143295796D01*
X236929500Y-143384108D01*
X230887108Y-143384108D01*
X230659681Y-143156681D01*
X230626196Y-143095358D01*
X230631180Y-143025666D01*
X230659681Y-142981319D01*
X230711000Y-142930000D01*
X254200138Y-142930000D01*
X255003012Y-142930000D01*
X254985795Y-142939940D01*
X254929940Y-142995795D01*
X254890444Y-143064204D01*
X254870000Y-143140504D01*
X254870000Y-143219496D01*
X254890444Y-143295796D01*
X254929940Y-143364205D01*
X254985795Y-143420060D01*
X255003012Y-143430000D01*
X254200138Y-143430000D01*
X254208430Y-143471690D01*
X254208430Y-143471692D01*
X254283807Y-143653671D01*
X254283814Y-143653684D01*
X254393248Y-143817462D01*
X254393251Y-143817466D01*
X254532533Y-143956748D01*
X254532537Y-143956751D01*
X254696315Y-144066185D01*
X254696328Y-144066192D01*
X254878306Y-144141569D01*
X254878318Y-144141572D01*
X255071504Y-144179999D01*
X255071508Y-144180000D01*
X255470000Y-144180000D01*
X255470000Y-143480000D01*
X255970000Y-143480000D01*
X255970000Y-144075950D01*
X255950315Y-144142989D01*
X255908001Y-144183337D01*
X255897335Y-144189494D01*
X255799496Y-144287333D01*
X255799492Y-144287338D01*
X255730313Y-144407161D01*
X255730312Y-144407164D01*
X255694500Y-144540817D01*
X255694500Y-144679183D01*
X255729753Y-144810747D01*
X255730312Y-144812835D01*
X255730313Y-144812838D01*
X255799492Y-144932661D01*
X255799494Y-144932664D01*
X255799495Y-144932665D01*
X255897335Y-145030505D01*
X256017164Y-145099688D01*
X256150817Y-145135500D01*
X256150819Y-145135500D01*
X256289181Y-145135500D01*
X256289183Y-145135500D01*
X256422836Y-145099688D01*
X256542665Y-145030505D01*
X256640505Y-144932665D01*
X256709688Y-144812836D01*
X256745500Y-144679183D01*
X256745500Y-144540817D01*
X256709688Y-144407164D01*
X256659077Y-144319502D01*
X256640507Y-144287338D01*
X256635559Y-144280890D01*
X256638185Y-144278874D01*
X256612088Y-144231080D01*
X256617072Y-144161388D01*
X256658944Y-144105455D01*
X256685804Y-144090160D01*
X256743674Y-144066190D01*
X256743684Y-144066185D01*
X256907462Y-143956751D01*
X256907466Y-143956748D01*
X257046748Y-143817466D01*
X257046751Y-143817462D01*
X257156185Y-143653684D01*
X257156192Y-143653671D01*
X257231569Y-143471692D01*
X257231569Y-143471690D01*
X257239862Y-143430000D01*
X256436988Y-143430000D01*
X256454205Y-143420060D01*
X256510060Y-143364205D01*
X256549556Y-143295796D01*
X256570000Y-143219496D01*
X256570000Y-143140504D01*
X256549556Y-143064204D01*
X256510060Y-142995795D01*
X256454205Y-142939940D01*
X256436988Y-142930000D01*
X257239862Y-142930000D01*
X258530138Y-142930000D01*
X259333012Y-142930000D01*
X259315795Y-142939940D01*
X259259940Y-142995795D01*
X259220444Y-143064204D01*
X259200000Y-143140504D01*
X259200000Y-143219496D01*
X259220444Y-143295796D01*
X259259940Y-143364205D01*
X259315795Y-143420060D01*
X259333012Y-143430000D01*
X258530138Y-143430000D01*
X258538430Y-143471690D01*
X258538430Y-143471692D01*
X258613807Y-143653671D01*
X258613814Y-143653684D01*
X258723248Y-143817462D01*
X258723251Y-143817466D01*
X258862533Y-143956748D01*
X258862537Y-143956751D01*
X259026315Y-144066185D01*
X259026328Y-144066192D01*
X259208306Y-144141569D01*
X259208318Y-144141572D01*
X259401504Y-144179999D01*
X259401508Y-144180000D01*
X259650000Y-144180000D01*
X259650000Y-143480000D01*
X260150000Y-143480000D01*
X260150000Y-144180000D01*
X260398492Y-144180000D01*
X260398495Y-144179999D01*
X260591681Y-144141572D01*
X260591693Y-144141569D01*
X260773671Y-144066192D01*
X260773684Y-144066185D01*
X260937462Y-143956751D01*
X260937466Y-143956748D01*
X261076748Y-143817466D01*
X261076751Y-143817462D01*
X261186185Y-143653684D01*
X261186192Y-143653671D01*
X261261569Y-143471692D01*
X261261569Y-143471690D01*
X261269862Y-143430000D01*
X260466988Y-143430000D01*
X260484205Y-143420060D01*
X260540060Y-143364205D01*
X260579556Y-143295796D01*
X260600000Y-143219496D01*
X260600000Y-143140504D01*
X260579556Y-143064204D01*
X260540060Y-142995795D01*
X260484205Y-142939940D01*
X260466988Y-142930000D01*
X261269862Y-142930000D01*
X261261569Y-142888309D01*
X261261569Y-142888307D01*
X261186192Y-142706328D01*
X261186185Y-142706315D01*
X261076751Y-142542537D01*
X261076748Y-142542533D01*
X260937466Y-142403251D01*
X260937462Y-142403248D01*
X260773684Y-142293814D01*
X260773671Y-142293807D01*
X260591693Y-142218430D01*
X260591681Y-142218427D01*
X260398495Y-142180000D01*
X260150000Y-142180000D01*
X260150000Y-142880000D01*
X259650000Y-142880000D01*
X259650000Y-142180000D01*
X259401504Y-142180000D01*
X259208318Y-142218427D01*
X259208306Y-142218430D01*
X259026328Y-142293807D01*
X259026315Y-142293814D01*
X258862537Y-142403248D01*
X258862533Y-142403251D01*
X258723251Y-142542533D01*
X258723248Y-142542537D01*
X258613814Y-142706315D01*
X258613807Y-142706328D01*
X258538430Y-142888307D01*
X258538430Y-142888309D01*
X258530138Y-142930000D01*
X257239862Y-142930000D01*
X257231569Y-142888309D01*
X257231569Y-142888307D01*
X257156192Y-142706328D01*
X257156185Y-142706315D01*
X257046751Y-142542537D01*
X257046748Y-142542533D01*
X256907466Y-142403251D01*
X256907462Y-142403248D01*
X256743684Y-142293814D01*
X256743671Y-142293807D01*
X256561693Y-142218430D01*
X256561681Y-142218427D01*
X256368495Y-142180000D01*
X255970000Y-142180000D01*
X255970000Y-142880000D01*
X255470000Y-142880000D01*
X255470000Y-142180000D01*
X255071504Y-142180000D01*
X254878318Y-142218427D01*
X254878306Y-142218430D01*
X254696328Y-142293807D01*
X254696315Y-142293814D01*
X254532537Y-142403248D01*
X254532533Y-142403251D01*
X254393251Y-142542533D01*
X254393248Y-142542537D01*
X254283814Y-142706315D01*
X254283807Y-142706328D01*
X254208430Y-142888307D01*
X254208430Y-142888309D01*
X254200138Y-142930000D01*
X230711000Y-142930000D01*
X231526892Y-142114108D01*
X236929500Y-142114108D01*
X236929500Y-142245891D01*
X236963608Y-142373187D01*
X236980964Y-142403248D01*
X237029500Y-142487314D01*
X237122686Y-142580500D01*
X237236814Y-142646392D01*
X237364108Y-142680500D01*
X237364110Y-142680500D01*
X237495890Y-142680500D01*
X237495892Y-142680500D01*
X237623186Y-142646392D01*
X237737314Y-142580500D01*
X237830500Y-142487314D01*
X237896392Y-142373186D01*
X237930500Y-142245892D01*
X237930500Y-142114108D01*
X237896392Y-141986814D01*
X237830500Y-141872686D01*
X237737314Y-141779500D01*
X237680250Y-141746554D01*
X237623187Y-141713608D01*
X237538027Y-141690790D01*
X237495892Y-141679500D01*
X237364108Y-141679500D01*
X237236812Y-141713608D01*
X237122686Y-141779500D01*
X237122683Y-141779502D01*
X237029502Y-141872683D01*
X237029500Y-141872686D01*
X236963608Y-141986812D01*
X236929500Y-142114108D01*
X231526892Y-142114108D01*
X232796892Y-140844108D01*
X236929500Y-140844108D01*
X236929500Y-140975891D01*
X236963608Y-141103187D01*
X236972518Y-141118619D01*
X237029500Y-141217314D01*
X237122686Y-141310500D01*
X237236814Y-141376392D01*
X237364108Y-141410500D01*
X237364110Y-141410500D01*
X237495890Y-141410500D01*
X237495892Y-141410500D01*
X237623186Y-141376392D01*
X237737314Y-141310500D01*
X237830500Y-141217314D01*
X237896392Y-141103186D01*
X237930500Y-140975892D01*
X237930500Y-140844108D01*
X237896392Y-140716814D01*
X237830500Y-140602686D01*
X237737314Y-140509500D01*
X237667636Y-140469271D01*
X237623187Y-140443608D01*
X237559539Y-140426554D01*
X237495892Y-140409500D01*
X237364108Y-140409500D01*
X237236812Y-140443608D01*
X237122686Y-140509500D01*
X237122683Y-140509502D01*
X237029502Y-140602683D01*
X237029500Y-140602686D01*
X236963608Y-140716812D01*
X236929500Y-140844108D01*
X232796892Y-140844108D01*
X232892700Y-140748300D01*
X234500227Y-139140773D01*
X236160000Y-137481000D01*
X236160000Y-133925000D01*
X235868014Y-133633014D01*
X256472301Y-133633014D01*
X256472301Y-134183001D01*
X257481553Y-134183001D01*
X257459783Y-134220709D01*
X257422301Y-134360592D01*
X257422301Y-134505410D01*
X257459783Y-134645293D01*
X257481553Y-134683001D01*
X256472302Y-134683001D01*
X256472302Y-135232987D01*
X256482795Y-135335698D01*
X256537942Y-135502120D01*
X256537944Y-135502125D01*
X256629985Y-135651346D01*
X256753955Y-135775316D01*
X256903176Y-135867357D01*
X256903181Y-135867359D01*
X257069603Y-135922506D01*
X257069610Y-135922507D01*
X257172320Y-135933000D01*
X257722300Y-135933000D01*
X257722301Y-135932999D01*
X257722301Y-134923748D01*
X257760009Y-134945519D01*
X257899892Y-134983001D01*
X258044710Y-134983001D01*
X258184593Y-134945519D01*
X258222301Y-134923748D01*
X258222301Y-135933000D01*
X258772273Y-135933000D01*
X258772287Y-135932999D01*
X258874998Y-135922506D01*
X259041420Y-135867359D01*
X259041425Y-135867357D01*
X259190646Y-135775316D01*
X259314616Y-135651346D01*
X259406657Y-135502125D01*
X259406659Y-135502120D01*
X259461806Y-135335698D01*
X259461807Y-135335691D01*
X259472300Y-135232987D01*
X259472301Y-135232974D01*
X259472301Y-134683001D01*
X258463049Y-134683001D01*
X258484819Y-134645293D01*
X258522301Y-134505410D01*
X258522301Y-134360592D01*
X258484819Y-134220709D01*
X258463049Y-134183001D01*
X259472300Y-134183001D01*
X259472300Y-133633029D01*
X259472299Y-133633014D01*
X259461806Y-133530303D01*
X259406659Y-133363881D01*
X259406657Y-133363876D01*
X259314616Y-133214655D01*
X259190646Y-133090685D01*
X259041425Y-132998644D01*
X259041420Y-132998642D01*
X258874998Y-132943495D01*
X258874991Y-132943494D01*
X258772287Y-132933001D01*
X258222301Y-132933001D01*
X258222301Y-133942253D01*
X258184593Y-133920483D01*
X258044710Y-133883001D01*
X257899892Y-133883001D01*
X257760009Y-133920483D01*
X257722301Y-133942253D01*
X257722301Y-132933001D01*
X257172329Y-132933001D01*
X257172313Y-132933002D01*
X257069603Y-132943495D01*
X256903181Y-132998642D01*
X256903176Y-132998644D01*
X256753955Y-133090685D01*
X256629985Y-133214655D01*
X256537944Y-133363876D01*
X256537942Y-133363881D01*
X256482795Y-133530303D01*
X256482794Y-133530310D01*
X256472301Y-133633014D01*
X235868014Y-133633014D01*
X234255000Y-132020000D01*
X224094999Y-132020000D01*
X222190000Y-133924999D01*
X174571446Y-133924999D01*
X174689657Y-133806788D01*
X174568895Y-133710485D01*
X174340171Y-133566767D01*
X174096810Y-133449571D01*
X174096806Y-133449569D01*
X173841839Y-133360353D01*
X173841837Y-133360352D01*
X173578490Y-133300245D01*
X173578474Y-133300243D01*
X173310066Y-133270000D01*
X173039934Y-133270000D01*
X172771525Y-133300243D01*
X172771509Y-133300245D01*
X172508162Y-133360352D01*
X172508160Y-133360353D01*
X172253193Y-133449569D01*
X172253189Y-133449571D01*
X172009828Y-133566767D01*
X171897813Y-133637151D01*
X171830576Y-133656151D01*
X171763741Y-133635783D01*
X171718527Y-133582515D01*
X171709290Y-133513258D01*
X171724454Y-133470157D01*
X171778270Y-133376946D01*
X171877521Y-133137332D01*
X171944647Y-132886814D01*
X171978500Y-132629678D01*
X171978500Y-132370322D01*
X171944647Y-132113186D01*
X171877521Y-131862668D01*
X171854222Y-131806420D01*
X171785143Y-131639647D01*
X171778270Y-131623054D01*
X171724453Y-131529841D01*
X171707981Y-131461942D01*
X171730833Y-131395915D01*
X171785754Y-131352725D01*
X171855308Y-131346083D01*
X171897813Y-131362848D01*
X172009828Y-131433232D01*
X172253189Y-131550428D01*
X172253193Y-131550430D01*
X172508160Y-131639646D01*
X172508162Y-131639647D01*
X172771509Y-131699754D01*
X172771525Y-131699756D01*
X173039933Y-131729999D01*
X173039934Y-131730000D01*
X173310066Y-131730000D01*
X173310066Y-131729999D01*
X173578474Y-131699756D01*
X173578490Y-131699754D01*
X173841837Y-131639647D01*
X173841839Y-131639646D01*
X174096806Y-131550430D01*
X174096810Y-131550428D01*
X174340171Y-131433232D01*
X174568895Y-131289515D01*
X174689657Y-131193209D01*
X173508209Y-130011763D01*
X173535942Y-130000276D01*
X173660747Y-129916884D01*
X173766884Y-129810747D01*
X173850276Y-129685942D01*
X173861762Y-129658210D01*
X175043209Y-130839657D01*
X175139515Y-130718895D01*
X175195217Y-130630247D01*
X241409500Y-130630247D01*
X241409500Y-132369752D01*
X241421131Y-132428229D01*
X241421132Y-132428230D01*
X241465447Y-132494552D01*
X241531769Y-132538867D01*
X241531770Y-132538868D01*
X241590247Y-132550499D01*
X241590250Y-132550500D01*
X241590252Y-132550500D01*
X243329750Y-132550500D01*
X243329751Y-132550499D01*
X243344568Y-132547552D01*
X243388229Y-132538868D01*
X243388229Y-132538867D01*
X243388231Y-132538867D01*
X243454552Y-132494552D01*
X243498867Y-132428231D01*
X243498867Y-132428229D01*
X243498868Y-132428229D01*
X243507552Y-132384568D01*
X243510500Y-132369748D01*
X243510500Y-131396530D01*
X243949500Y-131396530D01*
X243949500Y-131603469D01*
X243989868Y-131806412D01*
X243989870Y-131806420D01*
X244069059Y-131997598D01*
X244126541Y-132083626D01*
X244184024Y-132169657D01*
X244330342Y-132315975D01*
X244330345Y-132315977D01*
X244502402Y-132430941D01*
X244693580Y-132510130D01*
X244838052Y-132538867D01*
X244896530Y-132550499D01*
X244896534Y-132550500D01*
X244896535Y-132550500D01*
X245103466Y-132550500D01*
X245103467Y-132550499D01*
X245306420Y-132510130D01*
X245497598Y-132430941D01*
X245669655Y-132315977D01*
X245815977Y-132169655D01*
X245930941Y-131997598D01*
X246010130Y-131806420D01*
X246050500Y-131603465D01*
X246050500Y-131396535D01*
X246050499Y-131396530D01*
X246489499Y-131396530D01*
X246489499Y-131603469D01*
X246529867Y-131806412D01*
X246529869Y-131806420D01*
X246609058Y-131997598D01*
X246666540Y-132083626D01*
X246724023Y-132169657D01*
X246870341Y-132315975D01*
X246870344Y-132315977D01*
X247042401Y-132430941D01*
X247233579Y-132510130D01*
X247378051Y-132538867D01*
X247436529Y-132550499D01*
X247436533Y-132550500D01*
X247436534Y-132550500D01*
X247643465Y-132550500D01*
X247643466Y-132550499D01*
X247846419Y-132510130D01*
X248037597Y-132430941D01*
X248209654Y-132315977D01*
X248355976Y-132169655D01*
X248470940Y-131997598D01*
X248550129Y-131806420D01*
X248590499Y-131603465D01*
X248590499Y-131396535D01*
X248550129Y-131193580D01*
X248470940Y-131002402D01*
X248355976Y-130830345D01*
X248355974Y-130830342D01*
X248209654Y-130684022D01*
X248123939Y-130626750D01*
X248041654Y-130571770D01*
X248037597Y-130569059D01*
X248011352Y-130558188D01*
X247939713Y-130528514D01*
X256771801Y-130528514D01*
X256771801Y-130717487D01*
X256801360Y-130904119D01*
X256859755Y-131083837D01*
X256915676Y-131193587D01*
X256945541Y-131252200D01*
X257056611Y-131405074D01*
X257190228Y-131538691D01*
X257343102Y-131649761D01*
X257422648Y-131690291D01*
X257511464Y-131735546D01*
X257511466Y-131735546D01*
X257511469Y-131735548D01*
X257607798Y-131766847D01*
X257691182Y-131793941D01*
X257877815Y-131823501D01*
X257877820Y-131823501D01*
X258066787Y-131823501D01*
X258253419Y-131793941D01*
X258433133Y-131735548D01*
X258601500Y-131649761D01*
X258754374Y-131538691D01*
X258887991Y-131405074D01*
X258999061Y-131252200D01*
X259084848Y-131083833D01*
X259143241Y-130904119D01*
X259172801Y-130717487D01*
X259172801Y-130528514D01*
X259143241Y-130341882D01*
X259084846Y-130162164D01*
X259022175Y-130039166D01*
X258999061Y-129993802D01*
X258887991Y-129840928D01*
X258754374Y-129707311D01*
X258601500Y-129596241D01*
X258593361Y-129592094D01*
X258433137Y-129510455D01*
X258253419Y-129452060D01*
X258066787Y-129422501D01*
X258066782Y-129422501D01*
X257877820Y-129422501D01*
X257877815Y-129422501D01*
X257691182Y-129452060D01*
X257511464Y-129510455D01*
X257343101Y-129596241D01*
X257255880Y-129659611D01*
X257190228Y-129707311D01*
X257190226Y-129707313D01*
X257190225Y-129707313D01*
X257056613Y-129840925D01*
X257056613Y-129840926D01*
X257056611Y-129840928D01*
X257008911Y-129906580D01*
X256945541Y-129993801D01*
X256859755Y-130162164D01*
X256801360Y-130341882D01*
X256771801Y-130528514D01*
X247939713Y-130528514D01*
X247846419Y-130489870D01*
X247846411Y-130489868D01*
X247643468Y-130449500D01*
X247643464Y-130449500D01*
X247436534Y-130449500D01*
X247436529Y-130449500D01*
X247233586Y-130489868D01*
X247233578Y-130489870D01*
X247042402Y-130569058D01*
X246870341Y-130684024D01*
X246724023Y-130830342D01*
X246609057Y-131002403D01*
X246529869Y-131193579D01*
X246529867Y-131193587D01*
X246489499Y-131396530D01*
X246050499Y-131396530D01*
X246010130Y-131193580D01*
X245930941Y-131002402D01*
X245815977Y-130830345D01*
X245815975Y-130830342D01*
X245669657Y-130684024D01*
X245501655Y-130571770D01*
X245497598Y-130569059D01*
X245471353Y-130558188D01*
X245306420Y-130489870D01*
X245306412Y-130489868D01*
X245103469Y-130449500D01*
X245103465Y-130449500D01*
X244896535Y-130449500D01*
X244896530Y-130449500D01*
X244693587Y-130489868D01*
X244693579Y-130489870D01*
X244502403Y-130569058D01*
X244330342Y-130684024D01*
X244184024Y-130830342D01*
X244069058Y-131002403D01*
X243989870Y-131193579D01*
X243989868Y-131193587D01*
X243949500Y-131396530D01*
X243510500Y-131396530D01*
X243510500Y-130630252D01*
X243510500Y-130630249D01*
X243510499Y-130630247D01*
X243498868Y-130571770D01*
X243498867Y-130571769D01*
X243454552Y-130505447D01*
X243388230Y-130461132D01*
X243388229Y-130461131D01*
X243329752Y-130449500D01*
X243329748Y-130449500D01*
X241590252Y-130449500D01*
X241590247Y-130449500D01*
X241531770Y-130461131D01*
X241531769Y-130461132D01*
X241465447Y-130505447D01*
X241421132Y-130571769D01*
X241421131Y-130571770D01*
X241409500Y-130630247D01*
X175195217Y-130630247D01*
X175240495Y-130558188D01*
X175283232Y-130490171D01*
X175400428Y-130246810D01*
X175400430Y-130246806D01*
X175489646Y-129991840D01*
X175504911Y-129924962D01*
X175504911Y-129924961D01*
X175549754Y-129728490D01*
X175549756Y-129728474D01*
X175579999Y-129460066D01*
X175580000Y-129460066D01*
X175580000Y-129189934D01*
X175579999Y-129189933D01*
X175549756Y-128921525D01*
X175549754Y-128921509D01*
X175522253Y-128801017D01*
X175489646Y-128658159D01*
X175400430Y-128403193D01*
X175400428Y-128403189D01*
X175283232Y-128159828D01*
X175139514Y-127931104D01*
X175043210Y-127810341D01*
X173861762Y-128991789D01*
X173850276Y-128964058D01*
X173766884Y-128839253D01*
X173660747Y-128733116D01*
X173535942Y-128649724D01*
X173508208Y-128638236D01*
X174689657Y-127456788D01*
X174568895Y-127360485D01*
X174340171Y-127216767D01*
X174096810Y-127099571D01*
X174096806Y-127099569D01*
X173841839Y-127010353D01*
X173841837Y-127010352D01*
X173578490Y-126950245D01*
X173578474Y-126950243D01*
X173310066Y-126920000D01*
X173039934Y-126920000D01*
X172771525Y-126950243D01*
X172771509Y-126950245D01*
X172508162Y-127010352D01*
X172508160Y-127010353D01*
X172253193Y-127099569D01*
X172253189Y-127099571D01*
X172009828Y-127216767D01*
X171781110Y-127360481D01*
X171660342Y-127456789D01*
X172841790Y-128638237D01*
X172814058Y-128649724D01*
X172689253Y-128733116D01*
X172583116Y-128839253D01*
X172499724Y-128964058D01*
X172488236Y-128991790D01*
X171306789Y-127810342D01*
X171210481Y-127931110D01*
X171066767Y-128159828D01*
X170949571Y-128403189D01*
X170949569Y-128403193D01*
X170860353Y-128658160D01*
X170860352Y-128658162D01*
X170800245Y-128921509D01*
X170800243Y-128921525D01*
X170770000Y-129189933D01*
X170770000Y-129460066D01*
X170800243Y-129728474D01*
X170800245Y-129728490D01*
X170860352Y-129991837D01*
X170860353Y-129991839D01*
X170949569Y-130246806D01*
X170949571Y-130246810D01*
X171066767Y-130490171D01*
X171137151Y-130602186D01*
X171156151Y-130669423D01*
X171135783Y-130736258D01*
X171082515Y-130781472D01*
X171013259Y-130790709D01*
X170970157Y-130775545D01*
X170876953Y-130721733D01*
X170876942Y-130721728D01*
X170637334Y-130622479D01*
X170448079Y-130571769D01*
X170386814Y-130555353D01*
X170354672Y-130551121D01*
X170129685Y-130521500D01*
X170129678Y-130521500D01*
X169870322Y-130521500D01*
X169870314Y-130521500D01*
X169613186Y-130555353D01*
X169362665Y-130622479D01*
X169123057Y-130721728D01*
X169123046Y-130721733D01*
X169029842Y-130775545D01*
X168961941Y-130792018D01*
X168895915Y-130769165D01*
X168852724Y-130714244D01*
X168846083Y-130644691D01*
X168862849Y-130602185D01*
X168933229Y-130490175D01*
X168933232Y-130490171D01*
X169050428Y-130246810D01*
X169050430Y-130246806D01*
X169139646Y-129991839D01*
X169139647Y-129991837D01*
X169199754Y-129728490D01*
X169199756Y-129728474D01*
X169229999Y-129460066D01*
X169230000Y-129460066D01*
X169230000Y-129189934D01*
X169229999Y-129189933D01*
X169199756Y-128921525D01*
X169199754Y-128921509D01*
X169139647Y-128658162D01*
X169139646Y-128658160D01*
X169050430Y-128403193D01*
X169050428Y-128403189D01*
X168933232Y-128159828D01*
X168789514Y-127931104D01*
X168693209Y-127810341D01*
X167511762Y-128991789D01*
X167500276Y-128964058D01*
X167416884Y-128839253D01*
X167310747Y-128733116D01*
X167185942Y-128649724D01*
X167158208Y-128638236D01*
X168339657Y-127456788D01*
X168218895Y-127360485D01*
X167990171Y-127216767D01*
X167746810Y-127099571D01*
X167746806Y-127099569D01*
X167491839Y-127010353D01*
X167491837Y-127010352D01*
X167228490Y-126950245D01*
X167228474Y-126950243D01*
X166960066Y-126920000D01*
X166689934Y-126920000D01*
X166421525Y-126950243D01*
X166421509Y-126950245D01*
X166158162Y-127010352D01*
X166158160Y-127010353D01*
X165903193Y-127099569D01*
X165903189Y-127099571D01*
X165659828Y-127216767D01*
X165431110Y-127360481D01*
X165310342Y-127456789D01*
X166491790Y-128638237D01*
X166464058Y-128649724D01*
X166339253Y-128733116D01*
X166233116Y-128839253D01*
X166149724Y-128964058D01*
X166138237Y-128991790D01*
X164956789Y-127810342D01*
X164860481Y-127931110D01*
X164716767Y-128159828D01*
X164599571Y-128403189D01*
X164599569Y-128403193D01*
X164510353Y-128658160D01*
X164510352Y-128658162D01*
X164450245Y-128921509D01*
X164450243Y-128921525D01*
X164420000Y-129189933D01*
X162750500Y-129189933D01*
X162750500Y-114189933D01*
X164420000Y-114189933D01*
X164420000Y-114460066D01*
X164450243Y-114728474D01*
X164450245Y-114728490D01*
X164510352Y-114991837D01*
X164510353Y-114991839D01*
X164599569Y-115246806D01*
X164599571Y-115246810D01*
X164716767Y-115490171D01*
X164860485Y-115718895D01*
X164956788Y-115839657D01*
X166138236Y-114658209D01*
X166149724Y-114685942D01*
X166233116Y-114810747D01*
X166339253Y-114916884D01*
X166464058Y-115000276D01*
X166491789Y-115011762D01*
X165310341Y-116193209D01*
X165310341Y-116193210D01*
X165431104Y-116289514D01*
X165659828Y-116433232D01*
X165903189Y-116550428D01*
X165903193Y-116550430D01*
X166158160Y-116639646D01*
X166158162Y-116639647D01*
X166421509Y-116699754D01*
X166421525Y-116699756D01*
X166689933Y-116729999D01*
X166689934Y-116730000D01*
X166960066Y-116730000D01*
X166960066Y-116729999D01*
X167228474Y-116699756D01*
X167228490Y-116699754D01*
X167491837Y-116639647D01*
X167491839Y-116639646D01*
X167746806Y-116550430D01*
X167746810Y-116550428D01*
X167990171Y-116433232D01*
X167990175Y-116433229D01*
X168102185Y-116362849D01*
X168169422Y-116343848D01*
X168236257Y-116364215D01*
X168281472Y-116417483D01*
X168290710Y-116486739D01*
X168275545Y-116529842D01*
X168221733Y-116623046D01*
X168221728Y-116623057D01*
X168122479Y-116862665D01*
X168055353Y-117113186D01*
X168021500Y-117370314D01*
X168021500Y-117629685D01*
X168055353Y-117886813D01*
X168122479Y-118137334D01*
X168221728Y-118376942D01*
X168221733Y-118376953D01*
X168275545Y-118470157D01*
X168292018Y-118538057D01*
X168269166Y-118604084D01*
X168214244Y-118647275D01*
X168144691Y-118653916D01*
X168102186Y-118637151D01*
X167990171Y-118566767D01*
X167746810Y-118449571D01*
X167746806Y-118449569D01*
X167491839Y-118360353D01*
X167491837Y-118360352D01*
X167228490Y-118300245D01*
X167228474Y-118300243D01*
X166960066Y-118270000D01*
X166689934Y-118270000D01*
X166421525Y-118300243D01*
X166421509Y-118300245D01*
X166158162Y-118360352D01*
X166158160Y-118360353D01*
X165903193Y-118449569D01*
X165903189Y-118449571D01*
X165659828Y-118566767D01*
X165431110Y-118710481D01*
X165310342Y-118806789D01*
X166491790Y-119988236D01*
X166464058Y-119999724D01*
X166339253Y-120083116D01*
X166233116Y-120189253D01*
X166149724Y-120314058D01*
X166138237Y-120341790D01*
X164956789Y-119160342D01*
X164860481Y-119281110D01*
X164716767Y-119509828D01*
X164599571Y-119753189D01*
X164599569Y-119753193D01*
X164510353Y-120008160D01*
X164510352Y-120008162D01*
X164450245Y-120271509D01*
X164450243Y-120271525D01*
X164420000Y-120539933D01*
X164420000Y-120810066D01*
X164450243Y-121078474D01*
X164450245Y-121078490D01*
X164510352Y-121341837D01*
X164510353Y-121341839D01*
X164599569Y-121596806D01*
X164599571Y-121596810D01*
X164716767Y-121840171D01*
X164860485Y-122068895D01*
X164956788Y-122189657D01*
X166138236Y-121008209D01*
X166149724Y-121035942D01*
X166233116Y-121160747D01*
X166339253Y-121266884D01*
X166464058Y-121350276D01*
X166491789Y-121361762D01*
X165310341Y-122543210D01*
X165431104Y-122639514D01*
X165659828Y-122783232D01*
X165903189Y-122900428D01*
X165903193Y-122900430D01*
X166158160Y-122989646D01*
X166158162Y-122989647D01*
X166421509Y-123049754D01*
X166421525Y-123049756D01*
X166689933Y-123079999D01*
X166689934Y-123080000D01*
X166960066Y-123080000D01*
X166960066Y-123079999D01*
X167228474Y-123049756D01*
X167228490Y-123049754D01*
X167491837Y-122989647D01*
X167491839Y-122989646D01*
X167746806Y-122900430D01*
X167746810Y-122900428D01*
X167990171Y-122783232D01*
X168218895Y-122639515D01*
X168339657Y-122543209D01*
X167158210Y-121361762D01*
X167185942Y-121350276D01*
X167310747Y-121266884D01*
X167416884Y-121160747D01*
X167500276Y-121035942D01*
X167511763Y-121008209D01*
X168693209Y-122189657D01*
X168789515Y-122068895D01*
X168933232Y-121840171D01*
X169050428Y-121596810D01*
X169050430Y-121596806D01*
X169139646Y-121341839D01*
X169139647Y-121341837D01*
X169199754Y-121078490D01*
X169199756Y-121078474D01*
X169229999Y-120810066D01*
X169230000Y-120810066D01*
X169230000Y-120539934D01*
X169229999Y-120539933D01*
X169199756Y-120271525D01*
X169199754Y-120271509D01*
X169139647Y-120008162D01*
X169139646Y-120008160D01*
X169050430Y-119753193D01*
X169050428Y-119753189D01*
X168933232Y-119509828D01*
X168862848Y-119397813D01*
X168843848Y-119330577D01*
X168864216Y-119263741D01*
X168917483Y-119218527D01*
X168986740Y-119209289D01*
X169029841Y-119224453D01*
X169123054Y-119278270D01*
X169142129Y-119286171D01*
X169362665Y-119377520D01*
X169362666Y-119377520D01*
X169362668Y-119377521D01*
X169613186Y-119444647D01*
X169870322Y-119478500D01*
X169870329Y-119478500D01*
X170129671Y-119478500D01*
X170129678Y-119478500D01*
X170386814Y-119444647D01*
X170637332Y-119377521D01*
X170876946Y-119278270D01*
X170970158Y-119224453D01*
X171038056Y-119207981D01*
X171104083Y-119230833D01*
X171147274Y-119285754D01*
X171153916Y-119355307D01*
X171137151Y-119397813D01*
X171066767Y-119509828D01*
X170949571Y-119753189D01*
X170949569Y-119753193D01*
X170860353Y-120008160D01*
X170860352Y-120008162D01*
X170800245Y-120271509D01*
X170800243Y-120271525D01*
X170770000Y-120539933D01*
X170770000Y-120810066D01*
X170800243Y-121078474D01*
X170800245Y-121078490D01*
X170860352Y-121341837D01*
X170860353Y-121341839D01*
X170949569Y-121596806D01*
X170949571Y-121596810D01*
X171066767Y-121840171D01*
X171210485Y-122068895D01*
X171306788Y-122189657D01*
X172488236Y-121008209D01*
X172499724Y-121035942D01*
X172583116Y-121160747D01*
X172689253Y-121266884D01*
X172814058Y-121350276D01*
X172841789Y-121361762D01*
X171660341Y-122543210D01*
X171781104Y-122639514D01*
X172009828Y-122783232D01*
X172253189Y-122900428D01*
X172253193Y-122900430D01*
X172508160Y-122989646D01*
X172508162Y-122989647D01*
X172771509Y-123049754D01*
X172771525Y-123049756D01*
X173039933Y-123079999D01*
X173039934Y-123080000D01*
X173310066Y-123080000D01*
X173310066Y-123079999D01*
X173578474Y-123049756D01*
X173578490Y-123049754D01*
X173841837Y-122989647D01*
X173841839Y-122989646D01*
X174096806Y-122900430D01*
X174096810Y-122900428D01*
X174340171Y-122783232D01*
X174568895Y-122639515D01*
X174689657Y-122543209D01*
X173508210Y-121361762D01*
X173535942Y-121350276D01*
X173660747Y-121266884D01*
X173766884Y-121160747D01*
X173850276Y-121035942D01*
X173861762Y-121008210D01*
X175043209Y-122189657D01*
X175139515Y-122068895D01*
X175283232Y-121840171D01*
X175400428Y-121596810D01*
X175400430Y-121596806D01*
X175489646Y-121341839D01*
X175489647Y-121341837D01*
X175549754Y-121078490D01*
X175549756Y-121078474D01*
X175579999Y-120810066D01*
X175580000Y-120810066D01*
X175580000Y-120539934D01*
X175579999Y-120539928D01*
X175578124Y-120523280D01*
X175577476Y-120517525D01*
X190524500Y-120517525D01*
X190524500Y-120662475D01*
X190547966Y-120750050D01*
X190562017Y-120802488D01*
X190634488Y-120928011D01*
X190634493Y-120928017D01*
X190688181Y-120981705D01*
X190721666Y-121043028D01*
X190724500Y-121069386D01*
X190724500Y-125205614D01*
X190704815Y-125272653D01*
X190688181Y-125293295D01*
X190634493Y-125346982D01*
X190634488Y-125346988D01*
X190562017Y-125472511D01*
X190562016Y-125472515D01*
X190524500Y-125612525D01*
X190524500Y-125757475D01*
X190562016Y-125897485D01*
X190562017Y-125897488D01*
X190634488Y-126023011D01*
X190634490Y-126023013D01*
X190634491Y-126023015D01*
X190736985Y-126125509D01*
X190736986Y-126125510D01*
X190736988Y-126125511D01*
X190862511Y-126197982D01*
X190862512Y-126197982D01*
X190862515Y-126197984D01*
X191002525Y-126235500D01*
X191002528Y-126235500D01*
X191147472Y-126235500D01*
X191147475Y-126235500D01*
X191287485Y-126197984D01*
X191413015Y-126125509D01*
X191515509Y-126023015D01*
X191587984Y-125897485D01*
X191625500Y-125757475D01*
X191625500Y-125612525D01*
X191587984Y-125472515D01*
X191515509Y-125346985D01*
X191461819Y-125293295D01*
X191428334Y-125231972D01*
X191425500Y-125205614D01*
X191425500Y-124889209D01*
X196035456Y-124889209D01*
X196035456Y-125101702D01*
X196068698Y-125311583D01*
X196068698Y-125311586D01*
X196134360Y-125513673D01*
X196230831Y-125703006D01*
X196270184Y-125757172D01*
X196902493Y-125124864D01*
X196919531Y-125188449D01*
X196985357Y-125302463D01*
X197078449Y-125395555D01*
X197192463Y-125461381D01*
X197256046Y-125478418D01*
X196623738Y-126110725D01*
X196623738Y-126110726D01*
X196677905Y-126150080D01*
X196867238Y-126246551D01*
X197069326Y-126312213D01*
X197279210Y-126345456D01*
X197491702Y-126345456D01*
X197701583Y-126312213D01*
X197701586Y-126312213D01*
X197903675Y-126246550D01*
X197995939Y-126199539D01*
X198064608Y-126186642D01*
X198129349Y-126212918D01*
X198169606Y-126270024D01*
X198172599Y-126339829D01*
X198162720Y-126366317D01*
X198124782Y-126440773D01*
X198061522Y-126635465D01*
X198029500Y-126837648D01*
X198029500Y-127042351D01*
X198061522Y-127244534D01*
X198098726Y-127359035D01*
X198124780Y-127439219D01*
X198124781Y-127439222D01*
X198124782Y-127439223D01*
X198162720Y-127513681D01*
X198175616Y-127582351D01*
X198149340Y-127647091D01*
X198092233Y-127687348D01*
X198022427Y-127690340D01*
X197995940Y-127680461D01*
X197903673Y-127633448D01*
X197701585Y-127567786D01*
X197491702Y-127534544D01*
X197279210Y-127534544D01*
X197069328Y-127567786D01*
X197069325Y-127567786D01*
X196867238Y-127633448D01*
X196677895Y-127729924D01*
X196623738Y-127769271D01*
X196623738Y-127769272D01*
X197256047Y-128401581D01*
X197192463Y-128418619D01*
X197078449Y-128484445D01*
X196985357Y-128577537D01*
X196919531Y-128691551D01*
X196902493Y-128755135D01*
X196270184Y-128122826D01*
X196270183Y-128122826D01*
X196230836Y-128176983D01*
X196134360Y-128366326D01*
X196068698Y-128568413D01*
X196068698Y-128568416D01*
X196035456Y-128778297D01*
X196035456Y-128990790D01*
X196068698Y-129200671D01*
X196068698Y-129200674D01*
X196134360Y-129402761D01*
X196230831Y-129592094D01*
X196270184Y-129646260D01*
X196902493Y-129013952D01*
X196919531Y-129077537D01*
X196985357Y-129191551D01*
X197078449Y-129284643D01*
X197192463Y-129350469D01*
X197256046Y-129367506D01*
X196623738Y-129999813D01*
X196623738Y-129999814D01*
X196677905Y-130039168D01*
X196867238Y-130135639D01*
X197069326Y-130201301D01*
X197279210Y-130234544D01*
X197491702Y-130234544D01*
X197701583Y-130201301D01*
X197701586Y-130201301D01*
X197903673Y-130135639D01*
X198093010Y-130039166D01*
X198147172Y-129999814D01*
X198147173Y-129999814D01*
X197514864Y-129367506D01*
X197578449Y-129350469D01*
X197692463Y-129284643D01*
X197785555Y-129191551D01*
X197851381Y-129077537D01*
X197868418Y-129013952D01*
X198500726Y-129646261D01*
X198500726Y-129646260D01*
X198540078Y-129592098D01*
X198636551Y-129402761D01*
X198702213Y-129200674D01*
X198702213Y-129200671D01*
X198735456Y-128990790D01*
X198735456Y-128778297D01*
X198702213Y-128568416D01*
X198702213Y-128568413D01*
X198636550Y-128366324D01*
X198589539Y-128274060D01*
X198576642Y-128205390D01*
X198602918Y-128140650D01*
X198660024Y-128100392D01*
X198729830Y-128097400D01*
X198756318Y-128107279D01*
X198830776Y-128145218D01*
X198830778Y-128145218D01*
X198830781Y-128145220D01*
X198928568Y-128176993D01*
X199025465Y-128208477D01*
X199126557Y-128224488D01*
X199227648Y-128240500D01*
X199227649Y-128240500D01*
X199432351Y-128240500D01*
X199432352Y-128240500D01*
X199634534Y-128208477D01*
X199829219Y-128145220D01*
X199903680Y-128107279D01*
X199972349Y-128094383D01*
X200037090Y-128120659D01*
X200077347Y-128177765D01*
X200080340Y-128247570D01*
X200070461Y-128274059D01*
X200023448Y-128366326D01*
X199957786Y-128568413D01*
X199957786Y-128568416D01*
X199924544Y-128778297D01*
X199924544Y-128990790D01*
X199957786Y-129200671D01*
X199957786Y-129200674D01*
X200023448Y-129402761D01*
X200119919Y-129592094D01*
X200159272Y-129646260D01*
X200791581Y-129013952D01*
X200808619Y-129077537D01*
X200874445Y-129191551D01*
X200967537Y-129284643D01*
X201081551Y-129350469D01*
X201145134Y-129367506D01*
X200512826Y-129999813D01*
X200512826Y-129999814D01*
X200566993Y-130039168D01*
X200756326Y-130135639D01*
X200958414Y-130201301D01*
X201168298Y-130234544D01*
X201380790Y-130234544D01*
X201590671Y-130201301D01*
X201590674Y-130201301D01*
X201792761Y-130135639D01*
X201982098Y-130039166D01*
X202036260Y-129999814D01*
X202036261Y-129999814D01*
X201403952Y-129367506D01*
X201467537Y-129350469D01*
X201581551Y-129284643D01*
X201674643Y-129191551D01*
X201740469Y-129077537D01*
X201757506Y-129013952D01*
X202389814Y-129646261D01*
X202389814Y-129646260D01*
X202429166Y-129592098D01*
X202525639Y-129402761D01*
X202591301Y-129200674D01*
X202591301Y-129200671D01*
X202624544Y-128990790D01*
X202624544Y-128778297D01*
X202591301Y-128568416D01*
X202591301Y-128568413D01*
X202525639Y-128366326D01*
X202429168Y-128176993D01*
X202389814Y-128122826D01*
X202389813Y-128122826D01*
X201757506Y-128755134D01*
X201740469Y-128691551D01*
X201674643Y-128577537D01*
X201581551Y-128484445D01*
X201467537Y-128418619D01*
X201403952Y-128401581D01*
X202036260Y-127769272D01*
X201982094Y-127729919D01*
X201792761Y-127633448D01*
X201590673Y-127567786D01*
X201380790Y-127534544D01*
X201168298Y-127534544D01*
X200958416Y-127567786D01*
X200958413Y-127567786D01*
X200756326Y-127633448D01*
X200664059Y-127680461D01*
X200595389Y-127693357D01*
X200530649Y-127667080D01*
X200490392Y-127609974D01*
X200487400Y-127540168D01*
X200497280Y-127513680D01*
X200535217Y-127439225D01*
X200535218Y-127439223D01*
X200535220Y-127439219D01*
X200598477Y-127244534D01*
X200630500Y-127042352D01*
X200630500Y-126837648D01*
X200598477Y-126635466D01*
X200535220Y-126440781D01*
X200535218Y-126440778D01*
X200535218Y-126440776D01*
X200497279Y-126366318D01*
X200484383Y-126297649D01*
X200510659Y-126232909D01*
X200567765Y-126192651D01*
X200637571Y-126189659D01*
X200664060Y-126199539D01*
X200756324Y-126246550D01*
X200756323Y-126246550D01*
X200958414Y-126312213D01*
X201168298Y-126345456D01*
X201380790Y-126345456D01*
X201590671Y-126312213D01*
X201590674Y-126312213D01*
X201792761Y-126246551D01*
X201982098Y-126150078D01*
X202036260Y-126110726D01*
X202036261Y-126110726D01*
X201403952Y-125478418D01*
X201467537Y-125461381D01*
X201581551Y-125395555D01*
X201674643Y-125302463D01*
X201740469Y-125188449D01*
X201757506Y-125124864D01*
X202389814Y-125757173D01*
X202389814Y-125757172D01*
X202429166Y-125703010D01*
X202525639Y-125513673D01*
X202591301Y-125311586D01*
X202591301Y-125311583D01*
X202624544Y-125101702D01*
X202624544Y-124889209D01*
X202591301Y-124679328D01*
X202591301Y-124679325D01*
X202525639Y-124477238D01*
X202429168Y-124287905D01*
X202389814Y-124233738D01*
X202389813Y-124233738D01*
X201757506Y-124866046D01*
X201740469Y-124802463D01*
X201674643Y-124688449D01*
X201581551Y-124595357D01*
X201467537Y-124529531D01*
X201403953Y-124512493D01*
X202036260Y-123880184D01*
X201982094Y-123840831D01*
X201792761Y-123744360D01*
X201590673Y-123678698D01*
X201380790Y-123645456D01*
X201168298Y-123645456D01*
X200958416Y-123678698D01*
X200958413Y-123678698D01*
X200756326Y-123744360D01*
X200566983Y-123840836D01*
X200512826Y-123880183D01*
X200512826Y-123880184D01*
X201145135Y-124512493D01*
X201081551Y-124529531D01*
X200967537Y-124595357D01*
X200874445Y-124688449D01*
X200808619Y-124802463D01*
X200791581Y-124866047D01*
X200159272Y-124233738D01*
X200159271Y-124233738D01*
X200119924Y-124287895D01*
X200023448Y-124477238D01*
X199957786Y-124679325D01*
X199957786Y-124679328D01*
X199924544Y-124889209D01*
X199924544Y-125101702D01*
X199957786Y-125311583D01*
X199957786Y-125311586D01*
X200023448Y-125513673D01*
X200070461Y-125605940D01*
X200083357Y-125674609D01*
X200057081Y-125739350D01*
X199999974Y-125779607D01*
X199930169Y-125782599D01*
X199903681Y-125772720D01*
X199829223Y-125734782D01*
X199829222Y-125734781D01*
X199829219Y-125734780D01*
X199729047Y-125702232D01*
X199634534Y-125671522D01*
X199459995Y-125643878D01*
X199432352Y-125639500D01*
X199227648Y-125639500D01*
X199203329Y-125643351D01*
X199025465Y-125671522D01*
X198830773Y-125734782D01*
X198756317Y-125772720D01*
X198687648Y-125785616D01*
X198622908Y-125759339D01*
X198582651Y-125702232D01*
X198579659Y-125632427D01*
X198589539Y-125605939D01*
X198636550Y-125513675D01*
X198702213Y-125311586D01*
X198702213Y-125311583D01*
X198735456Y-125101702D01*
X198735456Y-124889209D01*
X198702213Y-124679328D01*
X198702213Y-124679325D01*
X198636551Y-124477238D01*
X198540080Y-124287905D01*
X198500726Y-124233738D01*
X198500725Y-124233738D01*
X197868418Y-124866046D01*
X197851381Y-124802463D01*
X197785555Y-124688449D01*
X197692463Y-124595357D01*
X197578449Y-124529531D01*
X197514865Y-124512493D01*
X198147172Y-123880184D01*
X198093006Y-123840831D01*
X197903673Y-123744360D01*
X197701585Y-123678698D01*
X197491702Y-123645456D01*
X197279210Y-123645456D01*
X197069328Y-123678698D01*
X197069325Y-123678698D01*
X196867238Y-123744360D01*
X196677895Y-123840836D01*
X196623738Y-123880183D01*
X196623738Y-123880184D01*
X197256047Y-124512493D01*
X197192463Y-124529531D01*
X197078449Y-124595357D01*
X196985357Y-124688449D01*
X196919531Y-124802463D01*
X196902493Y-124866047D01*
X196270184Y-124233738D01*
X196270183Y-124233738D01*
X196230836Y-124287895D01*
X196134360Y-124477238D01*
X196068698Y-124679325D01*
X196068698Y-124679328D01*
X196035456Y-124889209D01*
X191425500Y-124889209D01*
X191425500Y-121069386D01*
X191445185Y-121002347D01*
X191461819Y-120981705D01*
X191515509Y-120928015D01*
X191587984Y-120802485D01*
X191625500Y-120662475D01*
X191625500Y-120517525D01*
X191587984Y-120377515D01*
X191526790Y-120271525D01*
X191515511Y-120251988D01*
X191515506Y-120251982D01*
X191413017Y-120149493D01*
X191413011Y-120149488D01*
X191287488Y-120077017D01*
X191287489Y-120077017D01*
X191276006Y-120073940D01*
X191147475Y-120039500D01*
X191002525Y-120039500D01*
X190873993Y-120073940D01*
X190862511Y-120077017D01*
X190736988Y-120149488D01*
X190736982Y-120149493D01*
X190634493Y-120251982D01*
X190634488Y-120251988D01*
X190562017Y-120377511D01*
X190562016Y-120377515D01*
X190524500Y-120517525D01*
X175577476Y-120517525D01*
X175549756Y-120271525D01*
X175549754Y-120271509D01*
X175489647Y-120008162D01*
X175489646Y-120008160D01*
X175400430Y-119753193D01*
X175400428Y-119753189D01*
X175283232Y-119509828D01*
X175139514Y-119281104D01*
X175043210Y-119160341D01*
X173861762Y-120341789D01*
X173850276Y-120314058D01*
X173766884Y-120189253D01*
X173660747Y-120083116D01*
X173535942Y-119999724D01*
X173508209Y-119988236D01*
X174689657Y-118806788D01*
X174568895Y-118710485D01*
X174340171Y-118566767D01*
X174096810Y-118449571D01*
X174096806Y-118449569D01*
X173841839Y-118360353D01*
X173841837Y-118360352D01*
X173578490Y-118300245D01*
X173578474Y-118300243D01*
X173310066Y-118270000D01*
X173039934Y-118270000D01*
X172771525Y-118300243D01*
X172771509Y-118300245D01*
X172508162Y-118360352D01*
X172508160Y-118360353D01*
X172253193Y-118449569D01*
X172253189Y-118449571D01*
X172009828Y-118566767D01*
X171897813Y-118637151D01*
X171830576Y-118656151D01*
X171763741Y-118635783D01*
X171718527Y-118582515D01*
X171709290Y-118513258D01*
X171724454Y-118470157D01*
X171778270Y-118376946D01*
X171877521Y-118137332D01*
X171944647Y-117886814D01*
X171978500Y-117629678D01*
X171978500Y-117370322D01*
X171944647Y-117113186D01*
X171877521Y-116862668D01*
X171778270Y-116623054D01*
X171724453Y-116529841D01*
X171707981Y-116461942D01*
X171730833Y-116395915D01*
X171785754Y-116352725D01*
X171855308Y-116346083D01*
X171897813Y-116362848D01*
X172009828Y-116433232D01*
X172253189Y-116550428D01*
X172253193Y-116550430D01*
X172508160Y-116639646D01*
X172508162Y-116639647D01*
X172771509Y-116699754D01*
X172771525Y-116699756D01*
X173039933Y-116729999D01*
X173039934Y-116730000D01*
X173310066Y-116730000D01*
X173310066Y-116729999D01*
X173578474Y-116699756D01*
X173578490Y-116699754D01*
X173841837Y-116639647D01*
X173841839Y-116639646D01*
X174096806Y-116550430D01*
X174096810Y-116550428D01*
X174340171Y-116433232D01*
X174568895Y-116289515D01*
X174689657Y-116193209D01*
X173508209Y-115011763D01*
X173535942Y-115000276D01*
X173660747Y-114916884D01*
X173766884Y-114810747D01*
X173850276Y-114685942D01*
X173861762Y-114658210D01*
X175043209Y-115839657D01*
X175139515Y-115718895D01*
X175283232Y-115490171D01*
X175400428Y-115246810D01*
X175400430Y-115246806D01*
X175489646Y-114991839D01*
X175489647Y-114991837D01*
X175532856Y-114802525D01*
X223544500Y-114802525D01*
X223544500Y-114947475D01*
X223574955Y-115061132D01*
X223582017Y-115087488D01*
X223654488Y-115213011D01*
X223654490Y-115213013D01*
X223654491Y-115213015D01*
X223756985Y-115315509D01*
X223756986Y-115315510D01*
X223756988Y-115315511D01*
X223882511Y-115387982D01*
X223882512Y-115387982D01*
X223882515Y-115387984D01*
X224022525Y-115425500D01*
X224022528Y-115425500D01*
X224167472Y-115425500D01*
X224167475Y-115425500D01*
X224307485Y-115387984D01*
X224433015Y-115315509D01*
X224486705Y-115261819D01*
X224548028Y-115228334D01*
X224574386Y-115225500D01*
X228060614Y-115225500D01*
X228127653Y-115245185D01*
X228148295Y-115261819D01*
X228201985Y-115315509D01*
X228201986Y-115315510D01*
X228201988Y-115315511D01*
X228327511Y-115387982D01*
X228327512Y-115387982D01*
X228327515Y-115387984D01*
X228467525Y-115425500D01*
X228467528Y-115425500D01*
X228612472Y-115425500D01*
X228612475Y-115425500D01*
X228752485Y-115387984D01*
X228878015Y-115315509D01*
X228963277Y-115230247D01*
X246849500Y-115230247D01*
X246849500Y-119769752D01*
X246861131Y-119828229D01*
X246861132Y-119828230D01*
X246905447Y-119894552D01*
X246971769Y-119938867D01*
X246971770Y-119938868D01*
X247030247Y-119950499D01*
X247030250Y-119950500D01*
X247030252Y-119950500D01*
X249069750Y-119950500D01*
X249069751Y-119950499D01*
X249084568Y-119947552D01*
X249128229Y-119938868D01*
X249128229Y-119938867D01*
X249128231Y-119938867D01*
X249194552Y-119894552D01*
X249238867Y-119828231D01*
X249238867Y-119828229D01*
X249238868Y-119828229D01*
X249250499Y-119769752D01*
X249250500Y-119769750D01*
X249250500Y-116381947D01*
X252750000Y-116381947D01*
X252750000Y-117250000D01*
X253750000Y-117250000D01*
X253750000Y-117750000D01*
X252750000Y-117750000D01*
X252750000Y-118618052D01*
X252786934Y-118851247D01*
X252859897Y-119075802D01*
X252967085Y-119286171D01*
X253105866Y-119477186D01*
X253272813Y-119644133D01*
X253463828Y-119782914D01*
X253674195Y-119890102D01*
X253898744Y-119963063D01*
X253898750Y-119963065D01*
X254000000Y-119979101D01*
X254000000Y-118933012D01*
X254057007Y-118965925D01*
X254184174Y-119000000D01*
X254315826Y-119000000D01*
X254442993Y-118965925D01*
X254500000Y-118933012D01*
X254500000Y-119979100D01*
X254601249Y-119963065D01*
X254601255Y-119963063D01*
X254825804Y-119890102D01*
X255036171Y-119782914D01*
X255227186Y-119644133D01*
X255394133Y-119477186D01*
X255532914Y-119286171D01*
X255640102Y-119075802D01*
X255713065Y-118851247D01*
X255750000Y-118618052D01*
X255750000Y-117750000D01*
X254750000Y-117750000D01*
X254750000Y-117250000D01*
X255750000Y-117250000D01*
X255750000Y-116381947D01*
X255713065Y-116148752D01*
X255640102Y-115924197D01*
X255532914Y-115713828D01*
X255394133Y-115522813D01*
X255227186Y-115355866D01*
X255036171Y-115217085D01*
X254825802Y-115109897D01*
X254601247Y-115036934D01*
X254500000Y-115020897D01*
X254500000Y-116066988D01*
X254442993Y-116034075D01*
X254315826Y-116000000D01*
X254184174Y-116000000D01*
X254057007Y-116034075D01*
X254000000Y-116066988D01*
X254000000Y-115020897D01*
X253898752Y-115036934D01*
X253674197Y-115109897D01*
X253463828Y-115217085D01*
X253272813Y-115355866D01*
X253105866Y-115522813D01*
X252967085Y-115713828D01*
X252859897Y-115924197D01*
X252786934Y-116148752D01*
X252750000Y-116381947D01*
X249250500Y-116381947D01*
X249250500Y-115230249D01*
X249250499Y-115230247D01*
X249238868Y-115171770D01*
X249238867Y-115171769D01*
X249194552Y-115105447D01*
X249128230Y-115061132D01*
X249128229Y-115061131D01*
X249069752Y-115049500D01*
X249069748Y-115049500D01*
X247030252Y-115049500D01*
X247030247Y-115049500D01*
X246971770Y-115061131D01*
X246971769Y-115061132D01*
X246905447Y-115105447D01*
X246861132Y-115171769D01*
X246861131Y-115171770D01*
X246849500Y-115230247D01*
X228963277Y-115230247D01*
X228980509Y-115213015D01*
X229052984Y-115087485D01*
X229090500Y-114947475D01*
X229090500Y-114802525D01*
X229052984Y-114662515D01*
X228986445Y-114547267D01*
X228980511Y-114536988D01*
X228980506Y-114536982D01*
X228878017Y-114434493D01*
X228878011Y-114434488D01*
X228752488Y-114362017D01*
X228752489Y-114362017D01*
X228741006Y-114358940D01*
X228612475Y-114324500D01*
X228467525Y-114324500D01*
X228338993Y-114358940D01*
X228327511Y-114362017D01*
X228201988Y-114434488D01*
X228201982Y-114434493D01*
X228148295Y-114488181D01*
X228086972Y-114521666D01*
X228060614Y-114524500D01*
X224574386Y-114524500D01*
X224507347Y-114504815D01*
X224486705Y-114488181D01*
X224433017Y-114434493D01*
X224433011Y-114434488D01*
X224307488Y-114362017D01*
X224307489Y-114362017D01*
X224296006Y-114358940D01*
X224167475Y-114324500D01*
X224022525Y-114324500D01*
X223893993Y-114358940D01*
X223882511Y-114362017D01*
X223756988Y-114434488D01*
X223756982Y-114434493D01*
X223654493Y-114536982D01*
X223654488Y-114536988D01*
X223582017Y-114662511D01*
X223582016Y-114662515D01*
X223544500Y-114802525D01*
X175532856Y-114802525D01*
X175541009Y-114766806D01*
X175549754Y-114728490D01*
X175549756Y-114728474D01*
X175579999Y-114460066D01*
X175580000Y-114460066D01*
X175580000Y-114189934D01*
X175579999Y-114189933D01*
X175549756Y-113921525D01*
X175549754Y-113921509D01*
X175489647Y-113658162D01*
X175489646Y-113658160D01*
X175400430Y-113403193D01*
X175400428Y-113403189D01*
X175283232Y-113159828D01*
X175139514Y-112931104D01*
X175043209Y-112810342D01*
X173861762Y-113991789D01*
X173850276Y-113964058D01*
X173766884Y-113839253D01*
X173660747Y-113733116D01*
X173535942Y-113649724D01*
X173508208Y-113638236D01*
X174440932Y-112705513D01*
X249049500Y-112705513D01*
X249049500Y-112894486D01*
X249079059Y-113081118D01*
X249137454Y-113260836D01*
X249209987Y-113403189D01*
X249223240Y-113429199D01*
X249334310Y-113582073D01*
X249467927Y-113715690D01*
X249620801Y-113826760D01*
X249700347Y-113867290D01*
X249789163Y-113912545D01*
X249789165Y-113912545D01*
X249789168Y-113912547D01*
X249885497Y-113943846D01*
X249968881Y-113970940D01*
X250155514Y-114000500D01*
X250155519Y-114000500D01*
X252344486Y-114000500D01*
X252531118Y-113970940D01*
X252552298Y-113964058D01*
X252710832Y-113912547D01*
X252879199Y-113826760D01*
X253032073Y-113715690D01*
X253165690Y-113582073D01*
X253276760Y-113429199D01*
X253362547Y-113260832D01*
X253420940Y-113081118D01*
X253444700Y-112931104D01*
X253450500Y-112894486D01*
X253450500Y-112705513D01*
X253420940Y-112518881D01*
X253369472Y-112360481D01*
X253362547Y-112339168D01*
X253362545Y-112339165D01*
X253362545Y-112339163D01*
X253276759Y-112170800D01*
X253165690Y-112017927D01*
X253032073Y-111884310D01*
X252879199Y-111773240D01*
X252710836Y-111687454D01*
X252531118Y-111629059D01*
X252344486Y-111599500D01*
X252344481Y-111599500D01*
X250155519Y-111599500D01*
X250155514Y-111599500D01*
X249968881Y-111629059D01*
X249789163Y-111687454D01*
X249620800Y-111773240D01*
X249533579Y-111836610D01*
X249467927Y-111884310D01*
X249467925Y-111884312D01*
X249467924Y-111884312D01*
X249334312Y-112017924D01*
X249334312Y-112017925D01*
X249334310Y-112017927D01*
X249286610Y-112083579D01*
X249223240Y-112170800D01*
X249137454Y-112339163D01*
X249079059Y-112518881D01*
X249049500Y-112705513D01*
X174440932Y-112705513D01*
X174689657Y-112456788D01*
X174568895Y-112360485D01*
X174436904Y-112277549D01*
X174340171Y-112216767D01*
X174096810Y-112099571D01*
X174096806Y-112099569D01*
X173841839Y-112010353D01*
X173841837Y-112010352D01*
X173578490Y-111950245D01*
X173578474Y-111950243D01*
X173310066Y-111920000D01*
X173039934Y-111920000D01*
X172771525Y-111950243D01*
X172771509Y-111950245D01*
X172508162Y-112010352D01*
X172508160Y-112010353D01*
X172253193Y-112099569D01*
X172253189Y-112099571D01*
X172009828Y-112216767D01*
X171781110Y-112360481D01*
X171660342Y-112456789D01*
X172841790Y-113638237D01*
X172814058Y-113649724D01*
X172689253Y-113733116D01*
X172583116Y-113839253D01*
X172499724Y-113964058D01*
X172488236Y-113991790D01*
X171306789Y-112810342D01*
X171210481Y-112931110D01*
X171066767Y-113159828D01*
X170949571Y-113403189D01*
X170949569Y-113403193D01*
X170860353Y-113658160D01*
X170860352Y-113658162D01*
X170800245Y-113921509D01*
X170800243Y-113921525D01*
X170770000Y-114189933D01*
X170770000Y-114460066D01*
X170800243Y-114728474D01*
X170800245Y-114728490D01*
X170860352Y-114991837D01*
X170860353Y-114991839D01*
X170949569Y-115246806D01*
X170949571Y-115246810D01*
X171066767Y-115490171D01*
X171137151Y-115602186D01*
X171156151Y-115669423D01*
X171135783Y-115736258D01*
X171082515Y-115781472D01*
X171013259Y-115790709D01*
X170970157Y-115775545D01*
X170876953Y-115721733D01*
X170876942Y-115721728D01*
X170637334Y-115622479D01*
X170470320Y-115577728D01*
X170386814Y-115555353D01*
X170354672Y-115551121D01*
X170129685Y-115521500D01*
X170129678Y-115521500D01*
X169870322Y-115521500D01*
X169870314Y-115521500D01*
X169613186Y-115555353D01*
X169362665Y-115622479D01*
X169123057Y-115721728D01*
X169123046Y-115721733D01*
X169029842Y-115775545D01*
X168961941Y-115792018D01*
X168895915Y-115769165D01*
X168852724Y-115714244D01*
X168846083Y-115644691D01*
X168862849Y-115602185D01*
X168933229Y-115490175D01*
X168933232Y-115490171D01*
X169050428Y-115246810D01*
X169050430Y-115246806D01*
X169139646Y-114991839D01*
X169139647Y-114991837D01*
X169199754Y-114728490D01*
X169199756Y-114728474D01*
X169229999Y-114460066D01*
X169230000Y-114460066D01*
X169230000Y-114189934D01*
X169229999Y-114189933D01*
X169199756Y-113921525D01*
X169199754Y-113921509D01*
X169139647Y-113658162D01*
X169139646Y-113658160D01*
X169050430Y-113403193D01*
X169050428Y-113403189D01*
X168933232Y-113159828D01*
X168789514Y-112931104D01*
X168693209Y-112810341D01*
X167511762Y-113991789D01*
X167500276Y-113964058D01*
X167416884Y-113839253D01*
X167310747Y-113733116D01*
X167185942Y-113649724D01*
X167158208Y-113638236D01*
X168339657Y-112456788D01*
X168218895Y-112360485D01*
X167990171Y-112216767D01*
X167746810Y-112099571D01*
X167746806Y-112099569D01*
X167491839Y-112010353D01*
X167491837Y-112010352D01*
X167228490Y-111950245D01*
X167228474Y-111950243D01*
X166960066Y-111920000D01*
X166689934Y-111920000D01*
X166421525Y-111950243D01*
X166421509Y-111950245D01*
X166158162Y-112010352D01*
X166158160Y-112010353D01*
X165903193Y-112099569D01*
X165903189Y-112099571D01*
X165659828Y-112216767D01*
X165431110Y-112360481D01*
X165310342Y-112456789D01*
X166491790Y-113638237D01*
X166464058Y-113649724D01*
X166339253Y-113733116D01*
X166233116Y-113839253D01*
X166149724Y-113964058D01*
X166138237Y-113991790D01*
X164956789Y-112810342D01*
X164860481Y-112931110D01*
X164716767Y-113159828D01*
X164599571Y-113403189D01*
X164599569Y-113403193D01*
X164510353Y-113658160D01*
X164510352Y-113658162D01*
X164450245Y-113921509D01*
X164450243Y-113921525D01*
X164420000Y-114189933D01*
X162750500Y-114189933D01*
X162750500Y-107502706D01*
X162750618Y-107497298D01*
X162751170Y-107484636D01*
X162768337Y-107091439D01*
X162769276Y-107080708D01*
X162821951Y-106680609D01*
X162823823Y-106669993D01*
X162911168Y-106276000D01*
X162913955Y-106265600D01*
X163035309Y-105880713D01*
X163038993Y-105870592D01*
X163193426Y-105497758D01*
X163197984Y-105487984D01*
X163359190Y-105178310D01*
X171297860Y-105178310D01*
X171297860Y-109928310D01*
X186297861Y-109928310D01*
X186297861Y-107109209D01*
X196035456Y-107109209D01*
X196035456Y-107321702D01*
X196068698Y-107531583D01*
X196068698Y-107531586D01*
X196134360Y-107733673D01*
X196230831Y-107923006D01*
X196270184Y-107977172D01*
X196902493Y-107344864D01*
X196919531Y-107408449D01*
X196985357Y-107522463D01*
X197078449Y-107615555D01*
X197192463Y-107681381D01*
X197256046Y-107698418D01*
X196623738Y-108330725D01*
X196623738Y-108330726D01*
X196677905Y-108370080D01*
X196867238Y-108466551D01*
X197069326Y-108532213D01*
X197279210Y-108565456D01*
X197491702Y-108565456D01*
X197701583Y-108532213D01*
X197701586Y-108532213D01*
X197903675Y-108466550D01*
X197995939Y-108419539D01*
X198064608Y-108406642D01*
X198129349Y-108432918D01*
X198169606Y-108490024D01*
X198172599Y-108559829D01*
X198162720Y-108586317D01*
X198124782Y-108660773D01*
X198061522Y-108855465D01*
X198029500Y-109057648D01*
X198029500Y-109262351D01*
X198061522Y-109464534D01*
X198098726Y-109579035D01*
X198124780Y-109659219D01*
X198124781Y-109659222D01*
X198124782Y-109659223D01*
X198162720Y-109733681D01*
X198175616Y-109802351D01*
X198149340Y-109867091D01*
X198092233Y-109907348D01*
X198022427Y-109910340D01*
X197995940Y-109900461D01*
X197903673Y-109853448D01*
X197701585Y-109787786D01*
X197491702Y-109754544D01*
X197279210Y-109754544D01*
X197069328Y-109787786D01*
X197069325Y-109787786D01*
X196867238Y-109853448D01*
X196677895Y-109949924D01*
X196623738Y-109989271D01*
X196623738Y-109989272D01*
X197256047Y-110621581D01*
X197192463Y-110638619D01*
X197078449Y-110704445D01*
X196985357Y-110797537D01*
X196919531Y-110911551D01*
X196902493Y-110975135D01*
X196270184Y-110342826D01*
X196270183Y-110342826D01*
X196230836Y-110396983D01*
X196134360Y-110586326D01*
X196068698Y-110788413D01*
X196068698Y-110788416D01*
X196035456Y-110998297D01*
X196035456Y-111210790D01*
X196068698Y-111420671D01*
X196068698Y-111420674D01*
X196134360Y-111622761D01*
X196230831Y-111812094D01*
X196270184Y-111866260D01*
X196902493Y-111233952D01*
X196919531Y-111297537D01*
X196985357Y-111411551D01*
X197078449Y-111504643D01*
X197192463Y-111570469D01*
X197256046Y-111587506D01*
X196623738Y-112219813D01*
X196623738Y-112219814D01*
X196677905Y-112259168D01*
X196867238Y-112355639D01*
X197069326Y-112421301D01*
X197279210Y-112454544D01*
X197491702Y-112454544D01*
X197701583Y-112421301D01*
X197701586Y-112421301D01*
X197903673Y-112355639D01*
X198093010Y-112259166D01*
X198147172Y-112219814D01*
X198147173Y-112219814D01*
X197514864Y-111587506D01*
X197578449Y-111570469D01*
X197692463Y-111504643D01*
X197785555Y-111411551D01*
X197851381Y-111297537D01*
X197868418Y-111233952D01*
X198500726Y-111866261D01*
X198500726Y-111866260D01*
X198540078Y-111812098D01*
X198636551Y-111622761D01*
X198702213Y-111420674D01*
X198702213Y-111420671D01*
X198735456Y-111210790D01*
X198735456Y-110998297D01*
X198702213Y-110788416D01*
X198702213Y-110788413D01*
X198636550Y-110586324D01*
X198589539Y-110494060D01*
X198576642Y-110425390D01*
X198602918Y-110360650D01*
X198660024Y-110320392D01*
X198729830Y-110317400D01*
X198756318Y-110327279D01*
X198830776Y-110365218D01*
X198830778Y-110365218D01*
X198830781Y-110365220D01*
X198928568Y-110396993D01*
X199025465Y-110428477D01*
X199126557Y-110444488D01*
X199227648Y-110460500D01*
X199227649Y-110460500D01*
X199432351Y-110460500D01*
X199432352Y-110460500D01*
X199634534Y-110428477D01*
X199829219Y-110365220D01*
X199903680Y-110327279D01*
X199972349Y-110314383D01*
X200037090Y-110340659D01*
X200077347Y-110397765D01*
X200080340Y-110467570D01*
X200070461Y-110494059D01*
X200023448Y-110586326D01*
X199957786Y-110788413D01*
X199957786Y-110788416D01*
X199924544Y-110998297D01*
X199924544Y-111210790D01*
X199957786Y-111420671D01*
X199957786Y-111420674D01*
X200023448Y-111622761D01*
X200119919Y-111812094D01*
X200159272Y-111866260D01*
X200791581Y-111233952D01*
X200808619Y-111297537D01*
X200874445Y-111411551D01*
X200967537Y-111504643D01*
X201081551Y-111570469D01*
X201145134Y-111587506D01*
X200512826Y-112219813D01*
X200512826Y-112219814D01*
X200566993Y-112259168D01*
X200756326Y-112355639D01*
X200958414Y-112421301D01*
X201168298Y-112454544D01*
X201380790Y-112454544D01*
X201590671Y-112421301D01*
X201590674Y-112421301D01*
X201792761Y-112355639D01*
X201982098Y-112259166D01*
X202036260Y-112219814D01*
X202036261Y-112219814D01*
X201403952Y-111587506D01*
X201467537Y-111570469D01*
X201581551Y-111504643D01*
X201674643Y-111411551D01*
X201740469Y-111297537D01*
X201757506Y-111233952D01*
X202389814Y-111866261D01*
X202389814Y-111866260D01*
X202429166Y-111812098D01*
X202525639Y-111622761D01*
X202591301Y-111420674D01*
X202591301Y-111420671D01*
X202624544Y-111210790D01*
X202624544Y-110998297D01*
X202591301Y-110788416D01*
X202591301Y-110788413D01*
X202525639Y-110586326D01*
X202429168Y-110396993D01*
X202389814Y-110342826D01*
X202389813Y-110342826D01*
X201757506Y-110975134D01*
X201740469Y-110911551D01*
X201674643Y-110797537D01*
X201581551Y-110704445D01*
X201467537Y-110638619D01*
X201403952Y-110621581D01*
X202036260Y-109989272D01*
X201982094Y-109949919D01*
X201792761Y-109853448D01*
X201590673Y-109787786D01*
X201380790Y-109754544D01*
X201168298Y-109754544D01*
X200958416Y-109787786D01*
X200958413Y-109787786D01*
X200756326Y-109853448D01*
X200664059Y-109900461D01*
X200595389Y-109913357D01*
X200530649Y-109887080D01*
X200490392Y-109829974D01*
X200487400Y-109760168D01*
X200497280Y-109733680D01*
X200535217Y-109659225D01*
X200535218Y-109659223D01*
X200535220Y-109659219D01*
X200598477Y-109464534D01*
X200630500Y-109262352D01*
X200630500Y-109057648D01*
X200598477Y-108855466D01*
X200535220Y-108660781D01*
X200535218Y-108660778D01*
X200535218Y-108660776D01*
X200497279Y-108586318D01*
X200484383Y-108517649D01*
X200510659Y-108452909D01*
X200567765Y-108412651D01*
X200637571Y-108409659D01*
X200664060Y-108419539D01*
X200756324Y-108466550D01*
X200756323Y-108466550D01*
X200958414Y-108532213D01*
X201168298Y-108565456D01*
X201380790Y-108565456D01*
X201590671Y-108532213D01*
X201590674Y-108532213D01*
X201792761Y-108466551D01*
X201982098Y-108370078D01*
X202036260Y-108330726D01*
X202036261Y-108330726D01*
X201403952Y-107698418D01*
X201467537Y-107681381D01*
X201581551Y-107615555D01*
X201674643Y-107522463D01*
X201740469Y-107408449D01*
X201757506Y-107344864D01*
X202389814Y-107977173D01*
X202389814Y-107977172D01*
X202429166Y-107923010D01*
X202525639Y-107733673D01*
X202591301Y-107531586D01*
X202591301Y-107531583D01*
X202624544Y-107321702D01*
X202624544Y-107109209D01*
X209370456Y-107109209D01*
X209370456Y-107321702D01*
X209403698Y-107531583D01*
X209403698Y-107531586D01*
X209469360Y-107733673D01*
X209565831Y-107923006D01*
X209605184Y-107977172D01*
X210237493Y-107344864D01*
X210254531Y-107408449D01*
X210320357Y-107522463D01*
X210413449Y-107615555D01*
X210527463Y-107681381D01*
X210591046Y-107698418D01*
X209958738Y-108330725D01*
X209958738Y-108330726D01*
X210012905Y-108370080D01*
X210202238Y-108466551D01*
X210404326Y-108532213D01*
X210614210Y-108565456D01*
X210826702Y-108565456D01*
X211036583Y-108532213D01*
X211036586Y-108532213D01*
X211238675Y-108466550D01*
X211330939Y-108419539D01*
X211399608Y-108406642D01*
X211464349Y-108432918D01*
X211504606Y-108490024D01*
X211507599Y-108559829D01*
X211497720Y-108586317D01*
X211459782Y-108660773D01*
X211396522Y-108855465D01*
X211364500Y-109057648D01*
X211364500Y-109262351D01*
X211396522Y-109464534D01*
X211433726Y-109579035D01*
X211459780Y-109659219D01*
X211459781Y-109659222D01*
X211459782Y-109659223D01*
X211497720Y-109733681D01*
X211510616Y-109802351D01*
X211484340Y-109867091D01*
X211427233Y-109907348D01*
X211357427Y-109910340D01*
X211330940Y-109900461D01*
X211238673Y-109853448D01*
X211036585Y-109787786D01*
X210826702Y-109754544D01*
X210614210Y-109754544D01*
X210404328Y-109787786D01*
X210404325Y-109787786D01*
X210202238Y-109853448D01*
X210012895Y-109949924D01*
X209958738Y-109989271D01*
X209958738Y-109989272D01*
X210591047Y-110621581D01*
X210527463Y-110638619D01*
X210413449Y-110704445D01*
X210320357Y-110797537D01*
X210254531Y-110911551D01*
X210237493Y-110975135D01*
X209605184Y-110342826D01*
X209605183Y-110342826D01*
X209565836Y-110396983D01*
X209469360Y-110586326D01*
X209403698Y-110788413D01*
X209403698Y-110788416D01*
X209370456Y-110998297D01*
X209370456Y-111210790D01*
X209403698Y-111420671D01*
X209403698Y-111420674D01*
X209469360Y-111622761D01*
X209565831Y-111812094D01*
X209605184Y-111866260D01*
X210237493Y-111233952D01*
X210254531Y-111297537D01*
X210320357Y-111411551D01*
X210413449Y-111504643D01*
X210527463Y-111570469D01*
X210591046Y-111587506D01*
X209958738Y-112219813D01*
X209958738Y-112219814D01*
X210012905Y-112259168D01*
X210202238Y-112355639D01*
X210404326Y-112421301D01*
X210614210Y-112454544D01*
X210826702Y-112454544D01*
X211036583Y-112421301D01*
X211036586Y-112421301D01*
X211238673Y-112355639D01*
X211428010Y-112259166D01*
X211482172Y-112219814D01*
X211482173Y-112219814D01*
X210849864Y-111587506D01*
X210913449Y-111570469D01*
X211027463Y-111504643D01*
X211120555Y-111411551D01*
X211186381Y-111297537D01*
X211203418Y-111233952D01*
X211835726Y-111866261D01*
X211835726Y-111866260D01*
X211875078Y-111812098D01*
X211971551Y-111622761D01*
X212037213Y-111420674D01*
X212037213Y-111420671D01*
X212070456Y-111210790D01*
X212070456Y-110998297D01*
X212037213Y-110788416D01*
X212037213Y-110788413D01*
X211971550Y-110586324D01*
X211924539Y-110494060D01*
X211911642Y-110425390D01*
X211937918Y-110360650D01*
X211995024Y-110320392D01*
X212064830Y-110317400D01*
X212091318Y-110327279D01*
X212165776Y-110365218D01*
X212165778Y-110365218D01*
X212165781Y-110365220D01*
X212263568Y-110396993D01*
X212360465Y-110428477D01*
X212461557Y-110444488D01*
X212562648Y-110460500D01*
X212562649Y-110460500D01*
X212767351Y-110460500D01*
X212767352Y-110460500D01*
X212969534Y-110428477D01*
X213164219Y-110365220D01*
X213238680Y-110327279D01*
X213307349Y-110314383D01*
X213372090Y-110340659D01*
X213412347Y-110397765D01*
X213415340Y-110467570D01*
X213405461Y-110494059D01*
X213358448Y-110586326D01*
X213292786Y-110788413D01*
X213292786Y-110788416D01*
X213259544Y-110998297D01*
X213259544Y-111210790D01*
X213292786Y-111420671D01*
X213292786Y-111420674D01*
X213358448Y-111622761D01*
X213454919Y-111812094D01*
X213494272Y-111866260D01*
X214126581Y-111233952D01*
X214143619Y-111297537D01*
X214209445Y-111411551D01*
X214302537Y-111504643D01*
X214416551Y-111570469D01*
X214480134Y-111587506D01*
X213847826Y-112219813D01*
X213847826Y-112219814D01*
X213901993Y-112259168D01*
X214091326Y-112355639D01*
X214293414Y-112421301D01*
X214503298Y-112454544D01*
X214715790Y-112454544D01*
X214925671Y-112421301D01*
X214925674Y-112421301D01*
X215127761Y-112355639D01*
X215317098Y-112259166D01*
X215371260Y-112219814D01*
X215371261Y-112219814D01*
X214738952Y-111587506D01*
X214802537Y-111570469D01*
X214916551Y-111504643D01*
X215009643Y-111411551D01*
X215075469Y-111297537D01*
X215092506Y-111233952D01*
X215724814Y-111866261D01*
X215724814Y-111866260D01*
X215764166Y-111812098D01*
X215860639Y-111622761D01*
X215926301Y-111420674D01*
X215926301Y-111420671D01*
X215959544Y-111210790D01*
X215959544Y-110998297D01*
X215926301Y-110788416D01*
X215926301Y-110788413D01*
X215860639Y-110586326D01*
X215764168Y-110396993D01*
X215724814Y-110342826D01*
X215724813Y-110342826D01*
X215092506Y-110975134D01*
X215075469Y-110911551D01*
X215009643Y-110797537D01*
X214916551Y-110704445D01*
X214802537Y-110638619D01*
X214738952Y-110621581D01*
X215371260Y-109989272D01*
X215317094Y-109949919D01*
X215127761Y-109853448D01*
X214925673Y-109787786D01*
X214715790Y-109754544D01*
X214503298Y-109754544D01*
X214293416Y-109787786D01*
X214293413Y-109787786D01*
X214091326Y-109853448D01*
X213999059Y-109900461D01*
X213930389Y-109913357D01*
X213865649Y-109887080D01*
X213825392Y-109829974D01*
X213822400Y-109760168D01*
X213832280Y-109733680D01*
X213870217Y-109659225D01*
X213870218Y-109659223D01*
X213870220Y-109659219D01*
X213933477Y-109464534D01*
X213965500Y-109262352D01*
X213965500Y-109057648D01*
X213933477Y-108855466D01*
X213870220Y-108660781D01*
X213870218Y-108660778D01*
X213870218Y-108660776D01*
X213832279Y-108586318D01*
X213819383Y-108517649D01*
X213845659Y-108452909D01*
X213902765Y-108412651D01*
X213972571Y-108409659D01*
X213999060Y-108419539D01*
X214091324Y-108466550D01*
X214091323Y-108466550D01*
X214293414Y-108532213D01*
X214503298Y-108565456D01*
X214715790Y-108565456D01*
X214925671Y-108532213D01*
X214925674Y-108532213D01*
X215127761Y-108466551D01*
X215317098Y-108370078D01*
X215371260Y-108330726D01*
X215371261Y-108330726D01*
X214738952Y-107698418D01*
X214802537Y-107681381D01*
X214916551Y-107615555D01*
X215009643Y-107522463D01*
X215075469Y-107408449D01*
X215092506Y-107344864D01*
X215724814Y-107977173D01*
X215724814Y-107977172D01*
X215764166Y-107923010D01*
X215860639Y-107733673D01*
X215926301Y-107531586D01*
X215926301Y-107531583D01*
X215959544Y-107321702D01*
X215959544Y-107109209D01*
X215926301Y-106899328D01*
X215926301Y-106899325D01*
X215860639Y-106697238D01*
X215764168Y-106507905D01*
X215724814Y-106453738D01*
X215724813Y-106453738D01*
X215092506Y-107086046D01*
X215075469Y-107022463D01*
X215009643Y-106908449D01*
X214916551Y-106815357D01*
X214802537Y-106749531D01*
X214738953Y-106732493D01*
X215371260Y-106100184D01*
X215317094Y-106060831D01*
X215127761Y-105964360D01*
X214925673Y-105898698D01*
X214715790Y-105865456D01*
X214503298Y-105865456D01*
X214293416Y-105898698D01*
X214293413Y-105898698D01*
X214091326Y-105964360D01*
X213901983Y-106060836D01*
X213847826Y-106100183D01*
X213847826Y-106100184D01*
X214480135Y-106732493D01*
X214416551Y-106749531D01*
X214302537Y-106815357D01*
X214209445Y-106908449D01*
X214143619Y-107022463D01*
X214126581Y-107086047D01*
X213494272Y-106453738D01*
X213494271Y-106453738D01*
X213454924Y-106507895D01*
X213358448Y-106697238D01*
X213292786Y-106899325D01*
X213292786Y-106899328D01*
X213259544Y-107109209D01*
X213259544Y-107321702D01*
X213292786Y-107531583D01*
X213292786Y-107531586D01*
X213358448Y-107733673D01*
X213405461Y-107825940D01*
X213418357Y-107894609D01*
X213392081Y-107959350D01*
X213334974Y-107999607D01*
X213265169Y-108002599D01*
X213238681Y-107992720D01*
X213164223Y-107954782D01*
X213164222Y-107954781D01*
X213164219Y-107954780D01*
X213064047Y-107922232D01*
X212969534Y-107891522D01*
X212794995Y-107863878D01*
X212767352Y-107859500D01*
X212562648Y-107859500D01*
X212538329Y-107863351D01*
X212360465Y-107891522D01*
X212165773Y-107954782D01*
X212091317Y-107992720D01*
X212022648Y-108005616D01*
X211957908Y-107979339D01*
X211917651Y-107922232D01*
X211914659Y-107852427D01*
X211924539Y-107825939D01*
X211971550Y-107733675D01*
X212037213Y-107531586D01*
X212037213Y-107531583D01*
X212070456Y-107321702D01*
X212070456Y-107109209D01*
X212037213Y-106899328D01*
X212037213Y-106899325D01*
X211971551Y-106697238D01*
X211875080Y-106507905D01*
X211835726Y-106453738D01*
X211835725Y-106453738D01*
X211203418Y-107086046D01*
X211186381Y-107022463D01*
X211120555Y-106908449D01*
X211027463Y-106815357D01*
X210913449Y-106749531D01*
X210849865Y-106732493D01*
X211482172Y-106100184D01*
X211428006Y-106060831D01*
X211238673Y-105964360D01*
X211036585Y-105898698D01*
X210826702Y-105865456D01*
X210614210Y-105865456D01*
X210404328Y-105898698D01*
X210404325Y-105898698D01*
X210202238Y-105964360D01*
X210012895Y-106060836D01*
X209958738Y-106100183D01*
X209958738Y-106100184D01*
X210591047Y-106732493D01*
X210527463Y-106749531D01*
X210413449Y-106815357D01*
X210320357Y-106908449D01*
X210254531Y-107022463D01*
X210237493Y-107086047D01*
X209605184Y-106453738D01*
X209605183Y-106453738D01*
X209565836Y-106507895D01*
X209469360Y-106697238D01*
X209403698Y-106899325D01*
X209403698Y-106899328D01*
X209370456Y-107109209D01*
X202624544Y-107109209D01*
X202591301Y-106899328D01*
X202591301Y-106899325D01*
X202525639Y-106697238D01*
X202429168Y-106507905D01*
X202389814Y-106453738D01*
X202389813Y-106453738D01*
X201757506Y-107086046D01*
X201740469Y-107022463D01*
X201674643Y-106908449D01*
X201581551Y-106815357D01*
X201467537Y-106749531D01*
X201403953Y-106732493D01*
X202036260Y-106100184D01*
X201982094Y-106060831D01*
X201792761Y-105964360D01*
X201590673Y-105898698D01*
X201380790Y-105865456D01*
X201168298Y-105865456D01*
X200958416Y-105898698D01*
X200958413Y-105898698D01*
X200756326Y-105964360D01*
X200566983Y-106060836D01*
X200512826Y-106100183D01*
X200512826Y-106100184D01*
X201145135Y-106732493D01*
X201081551Y-106749531D01*
X200967537Y-106815357D01*
X200874445Y-106908449D01*
X200808619Y-107022463D01*
X200791581Y-107086047D01*
X200159272Y-106453738D01*
X200159271Y-106453738D01*
X200119924Y-106507895D01*
X200023448Y-106697238D01*
X199957786Y-106899325D01*
X199957786Y-106899328D01*
X199924544Y-107109209D01*
X199924544Y-107321702D01*
X199957786Y-107531583D01*
X199957786Y-107531586D01*
X200023448Y-107733673D01*
X200070461Y-107825940D01*
X200083357Y-107894609D01*
X200057081Y-107959350D01*
X199999974Y-107999607D01*
X199930169Y-108002599D01*
X199903681Y-107992720D01*
X199829223Y-107954782D01*
X199829222Y-107954781D01*
X199829219Y-107954780D01*
X199729047Y-107922232D01*
X199634534Y-107891522D01*
X199459995Y-107863878D01*
X199432352Y-107859500D01*
X199227648Y-107859500D01*
X199203329Y-107863351D01*
X199025465Y-107891522D01*
X198830773Y-107954782D01*
X198756317Y-107992720D01*
X198687648Y-108005616D01*
X198622908Y-107979339D01*
X198582651Y-107922232D01*
X198579659Y-107852427D01*
X198589539Y-107825939D01*
X198636550Y-107733675D01*
X198702213Y-107531586D01*
X198702213Y-107531583D01*
X198735456Y-107321702D01*
X198735456Y-107109209D01*
X198702213Y-106899328D01*
X198702213Y-106899325D01*
X198636551Y-106697238D01*
X198540080Y-106507905D01*
X198500726Y-106453738D01*
X198500725Y-106453738D01*
X197868418Y-107086046D01*
X197851381Y-107022463D01*
X197785555Y-106908449D01*
X197692463Y-106815357D01*
X197578449Y-106749531D01*
X197514865Y-106732493D01*
X198147172Y-106100184D01*
X198093006Y-106060831D01*
X197903673Y-105964360D01*
X197701585Y-105898698D01*
X197491702Y-105865456D01*
X197279210Y-105865456D01*
X197069328Y-105898698D01*
X197069325Y-105898698D01*
X196867238Y-105964360D01*
X196677895Y-106060836D01*
X196623738Y-106100183D01*
X196623738Y-106100184D01*
X197256047Y-106732493D01*
X197192463Y-106749531D01*
X197078449Y-106815357D01*
X196985357Y-106908449D01*
X196919531Y-107022463D01*
X196902493Y-107086047D01*
X196270184Y-106453738D01*
X196270183Y-106453738D01*
X196230836Y-106507895D01*
X196134360Y-106697238D01*
X196068698Y-106899325D01*
X196068698Y-106899328D01*
X196035456Y-107109209D01*
X186297861Y-107109209D01*
X186297861Y-105178310D01*
X176662244Y-105178310D01*
X176653475Y-105175735D01*
X176608307Y-105175735D01*
X171517770Y-105175735D01*
X171487782Y-105175735D01*
X171463833Y-105178310D01*
X171297860Y-105178310D01*
X163359190Y-105178310D01*
X163384315Y-105130045D01*
X163389710Y-105120700D01*
X163606537Y-104780350D01*
X163612727Y-104771511D01*
X163836222Y-104480247D01*
X219864500Y-104480247D01*
X219864500Y-106219752D01*
X219876131Y-106278229D01*
X219876132Y-106278230D01*
X219920447Y-106344552D01*
X219986769Y-106388867D01*
X219986770Y-106388868D01*
X220045247Y-106400499D01*
X220045250Y-106400500D01*
X220045252Y-106400500D01*
X221784750Y-106400500D01*
X221784751Y-106400499D01*
X221799568Y-106397552D01*
X221843229Y-106388868D01*
X221843229Y-106388867D01*
X221843231Y-106388867D01*
X221909552Y-106344552D01*
X221953867Y-106278231D01*
X221953867Y-106278229D01*
X221953868Y-106278229D01*
X221965499Y-106219752D01*
X221965500Y-106219750D01*
X221965500Y-105246530D01*
X222404500Y-105246530D01*
X222404500Y-105453469D01*
X222444868Y-105656412D01*
X222444870Y-105656420D01*
X222524059Y-105847598D01*
X222542753Y-105875575D01*
X222639024Y-106019657D01*
X222785342Y-106165975D01*
X222785345Y-106165977D01*
X222957402Y-106280941D01*
X223148580Y-106360130D01*
X223293052Y-106388867D01*
X223351530Y-106400499D01*
X223351534Y-106400500D01*
X223351535Y-106400500D01*
X223558466Y-106400500D01*
X223558467Y-106400499D01*
X223761420Y-106360130D01*
X223952598Y-106280941D01*
X224124655Y-106165977D01*
X224270977Y-106019655D01*
X224385941Y-105847598D01*
X224465130Y-105656420D01*
X224505500Y-105453465D01*
X224505500Y-105246535D01*
X224465130Y-105043580D01*
X224385941Y-104852402D01*
X224270977Y-104680345D01*
X224270975Y-104680342D01*
X224124657Y-104534024D01*
X224000958Y-104451372D01*
X223952598Y-104419059D01*
X223883472Y-104390426D01*
X223761420Y-104339870D01*
X223761412Y-104339868D01*
X223558469Y-104299500D01*
X223558465Y-104299500D01*
X223351535Y-104299500D01*
X223351530Y-104299500D01*
X223148587Y-104339868D01*
X223148579Y-104339870D01*
X222957403Y-104419058D01*
X222785342Y-104534024D01*
X222639024Y-104680342D01*
X222524058Y-104852403D01*
X222444870Y-105043579D01*
X222444868Y-105043587D01*
X222404500Y-105246530D01*
X221965500Y-105246530D01*
X221965500Y-104480249D01*
X221965499Y-104480247D01*
X221953868Y-104421770D01*
X221953867Y-104421769D01*
X221909552Y-104355447D01*
X221843230Y-104311132D01*
X221843229Y-104311131D01*
X221784752Y-104299500D01*
X221784748Y-104299500D01*
X220045252Y-104299500D01*
X220045247Y-104299500D01*
X219986770Y-104311131D01*
X219986769Y-104311132D01*
X219920447Y-104355447D01*
X219876132Y-104421769D01*
X219876131Y-104421770D01*
X219864500Y-104480247D01*
X163836222Y-104480247D01*
X163858385Y-104451363D01*
X163865323Y-104443094D01*
X164137960Y-104145563D01*
X164145575Y-104137949D01*
X164443094Y-103865323D01*
X164451363Y-103858385D01*
X164771511Y-103612727D01*
X164780350Y-103606537D01*
X165120700Y-103389710D01*
X165130045Y-103384315D01*
X165487984Y-103197984D01*
X165497758Y-103193426D01*
X165870592Y-103038993D01*
X165880713Y-103035309D01*
X166265600Y-102913955D01*
X166276000Y-102911168D01*
X166669993Y-102823823D01*
X166680609Y-102821951D01*
X167080708Y-102769276D01*
X167091439Y-102768337D01*
X167484636Y-102751170D01*
X167497298Y-102750618D01*
X167502706Y-102750500D01*
X167544170Y-102750500D01*
X257455830Y-102750500D01*
X257497294Y-102750500D01*
X257502702Y-102750618D01*
G37*
%TD.AperFunction*%
%TD*%
M02*
