%TF.GenerationSoftware,KiCad,Pcbnew,9.0.7+1*%
%TF.CreationDate,Date%
%TF.ProjectId,DREAM,44524541-4d2e-46b6-9963-61645f706362,1.0.1*%
%TF.SameCoordinates,Original*%
%TF.FileFunction,Soldermask,Bot*%
%TF.FilePolarity,Negative*%
%FSLAX46Y46*%
G04 Gerber Fmt 4.6, Leading zero omitted, Abs format (unit mm)*
G04 Created by KiCad*
%MOMM*%
%LPD*%
G01*
G04 APERTURE LIST*
G04 Aperture macros list*
%AMRoundRect*
0 Rectangle with rounded corners*
0 $1 Rounding radius*
0 $2 $3 $4 $5 $6 $7 $8 $9 X,Y pos of 4 corners*
0 Add a 4 corners polygon primitive as box body*
4,1,4,$2,$3,$4,$5,$6,$7,$8,$9,$2,$3,0*
0 Add four circle primitives for the rounded corners*
1,1,$1+$1,$2,$3*
1,1,$1+$1,$4,$5*
1,1,$1+$1,$6,$7*
1,1,$1+$1,$8,$9*
0 Add four rect primitives between the rounded corners*
20,1,$1+$1,$2,$3,$4,$5,0*
20,1,$1+$1,$4,$5,$6,$7,0*
20,1,$1+$1,$6,$7,$8,$9,0*
20,1,$1+$1,$8,$9,$2,$3,0*%
G04 Aperture macros list end*
%ADD10RoundRect,0.050000X0.850000X-0.850000X0.850000X0.850000X-0.850000X0.850000X-0.850000X-0.850000X0*%
%ADD11C,1.800000*%
%ADD12C,2.300000*%
%ADD13C,4.600000*%
%ADD14C,3.656000*%
%ADD15C,3.910000*%
%ADD16RoundRect,0.262500X0.787500X-0.787500X0.787500X0.787500X-0.787500X0.787500X-0.787500X-0.787500X0*%
%ADD17C,2.100000*%
%ADD18RoundRect,0.050000X1.000000X2.250000X-1.000000X2.250000X-1.000000X-2.250000X1.000000X-2.250000X0*%
%ADD19O,2.100000X4.100000*%
%ADD20O,4.100000X2.100000*%
%ADD21C,0.750000*%
%ADD22O,2.200000X1.100000*%
%ADD23O,1.900000X1.100000*%
%ADD24C,1.600000*%
%ADD25C,0.700000*%
%ADD26C,0.800000*%
G04 APERTURE END LIST*
D10*
%TO.C,JP401*%
X242460000Y-131500000D03*
D11*
X245000000Y-131500000D03*
X247539999Y-131500000D03*
%TD*%
D12*
%TO.C,TP604*%
X212665000Y-109160000D03*
D11*
X210720456Y-107215456D03*
X210720456Y-111104544D03*
X214609544Y-107215456D03*
X214609544Y-111104544D03*
%TD*%
D12*
%TO.C,TP602*%
X199330000Y-126940000D03*
D11*
X197385456Y-124995456D03*
X197385456Y-128884544D03*
X201274544Y-124995456D03*
X201274544Y-128884544D03*
%TD*%
D12*
%TO.C,TP603*%
X199330000Y-139640000D03*
D11*
X197385456Y-137695456D03*
X197385456Y-141584544D03*
X201274544Y-137695456D03*
X201274544Y-141584544D03*
%TD*%
D10*
%TO.C,J701*%
X220915000Y-105350000D03*
D11*
X223455000Y-105350000D03*
%TD*%
D13*
%TO.C,H402*%
X167500000Y-107500000D03*
%TD*%
D14*
%TO.C,J602*%
X170000000Y-132500000D03*
D15*
X166825000Y-129325000D03*
X166825000Y-135675000D03*
X173175000Y-129325000D03*
X173175000Y-135675000D03*
%TD*%
D13*
%TO.C,H401*%
X167500000Y-157500000D03*
%TD*%
D16*
%TO.C,J402*%
X257972301Y-134433001D03*
D17*
X257972301Y-130623001D03*
%TD*%
D18*
%TO.C,J401*%
X248050000Y-117500000D03*
D19*
X254250000Y-117500000D03*
D20*
X251250000Y-112800000D03*
%TD*%
D12*
%TO.C,TP601*%
X199330000Y-109160000D03*
D11*
X197385456Y-107215456D03*
X197385456Y-111104544D03*
X201274544Y-107215456D03*
X201274544Y-111104544D03*
%TD*%
D14*
%TO.C,J601*%
X170000000Y-117500000D03*
D15*
X166825000Y-114325000D03*
X166825000Y-120675000D03*
X173175000Y-114325000D03*
X173175000Y-120675000D03*
%TD*%
D13*
%TO.C,H403*%
X257500000Y-107500000D03*
%TD*%
D14*
%TO.C,J603*%
X170000000Y-147500000D03*
D15*
X166825000Y-144325000D03*
X166825000Y-150675000D03*
X173175000Y-144325000D03*
X173175000Y-150675000D03*
%TD*%
D21*
%TO.C,J502*%
X256220000Y-150390000D03*
X256220000Y-144610000D03*
D22*
X255720000Y-151820000D03*
D23*
X259900000Y-151820000D03*
D22*
X255720000Y-143180000D03*
D23*
X259900000Y-143180000D03*
%TD*%
D13*
%TO.C,H404*%
X257500000Y-157500000D03*
%TD*%
D24*
%TO.C,Y501*%
X231615001Y-135830000D03*
X226735001Y-135830000D03*
%TD*%
D25*
X186630000Y-140910000D03*
X194885000Y-126305000D03*
X223020940Y-140098967D03*
X217745000Y-120590000D03*
X186630000Y-142180000D03*
X244415000Y-146625000D03*
X259655000Y-141545000D03*
X193614999Y-126305000D03*
X231080000Y-154245000D03*
X186630000Y-120590000D03*
X240900000Y-103900000D03*
X209490000Y-112335000D03*
X239335000Y-151705000D03*
X244415000Y-139750000D03*
X246320000Y-142180000D03*
X198060000Y-145355000D03*
X234890000Y-135195001D03*
X199761800Y-154880000D03*
X240100000Y-135500000D03*
X193614999Y-112335000D03*
X229175000Y-128210001D03*
X219014999Y-130115000D03*
X260925000Y-141545000D03*
X232985000Y-158690000D03*
X234255000Y-140910000D03*
X198060000Y-133925000D03*
X233356973Y-141808026D03*
X186630000Y-133290000D03*
X250500000Y-146300000D03*
X228540000Y-140910000D03*
X259655000Y-137735000D03*
X217745000Y-111700000D03*
X194885000Y-112335000D03*
X244100000Y-103900000D03*
X243145000Y-150435000D03*
X194250000Y-158055000D03*
X186630000Y-147895000D03*
X241875000Y-151705000D03*
X231715000Y-159325000D03*
X233619999Y-136465000D03*
X217745000Y-119320000D03*
X208219999Y-112335000D03*
X223918967Y-139200941D03*
X247590000Y-133925000D03*
X233619999Y-135195000D03*
X197920000Y-119320000D03*
X211174772Y-144720000D03*
X241875000Y-149165000D03*
X247590000Y-137100000D03*
X197920000Y-120590001D03*
X229810001Y-140910001D03*
X198060000Y-147895000D03*
X193614999Y-140910000D03*
X217745000Y-114875000D03*
X229810000Y-138370001D03*
X179365600Y-122428000D03*
X199330000Y-135195000D03*
X186630000Y-119320000D03*
X213145923Y-156304077D03*
X180635600Y-137455600D03*
X199761800Y-156150000D03*
X209490000Y-140910000D03*
X224095001Y-136465001D03*
X234890000Y-136465001D03*
X222825000Y-136465000D03*
X217745000Y-113605000D03*
X229175000Y-126940000D03*
X240100000Y-136500000D03*
X230445000Y-158690000D03*
X180635600Y-152441600D03*
X199761800Y-159960000D03*
X249672800Y-147500000D03*
X243100000Y-103900000D03*
X179365600Y-137414000D03*
X201235000Y-120590000D03*
X247590000Y-142180000D03*
X249494999Y-151705001D03*
X196155000Y-157420000D03*
X260925000Y-137735000D03*
X230445000Y-154880000D03*
X224095001Y-135195000D03*
X199761800Y-158690000D03*
X249495000Y-153610000D03*
X228539999Y-138370000D03*
X248860000Y-143450000D03*
X243145000Y-147895000D03*
X220285000Y-130115000D03*
X248860000Y-144720000D03*
X231715000Y-157420000D03*
X201235000Y-119320000D03*
X212444773Y-144720001D03*
X240605000Y-150435000D03*
X198060000Y-135195000D03*
X247590000Y-140910000D03*
X179365600Y-152400000D03*
X199330000Y-133925000D03*
X212247897Y-155406051D03*
X249495000Y-150435000D03*
X222825000Y-135194999D03*
X229810000Y-137100000D03*
X194885000Y-140910000D03*
X240605000Y-152975000D03*
X224729999Y-121225000D03*
X217745000Y-112970001D03*
X249494999Y-154880001D03*
X180635600Y-122469600D03*
X248860000Y-142180000D03*
X208219999Y-140910000D03*
X237500000Y-151705000D03*
X226000000Y-112335000D03*
X244415000Y-149165000D03*
X224729999Y-112335000D03*
X228539999Y-137099999D03*
X241100000Y-135500000D03*
X241900000Y-103900000D03*
X257750000Y-147500000D03*
X186630000Y-149165000D03*
X250500000Y-148700000D03*
X226000000Y-121225000D03*
X239335000Y-154245000D03*
X186630000Y-134560000D03*
X201235000Y-148530000D03*
X201235000Y-149800000D03*
X237500000Y-154245000D03*
X246320000Y-140910000D03*
X198060000Y-146625000D03*
X230234972Y-146200028D03*
X228540000Y-153610000D03*
X256934720Y-147075000D03*
X251000000Y-147075000D03*
X256934720Y-147925000D03*
X251000000Y-147925000D03*
X227362004Y-153560725D03*
X232985000Y-148530000D03*
X231715000Y-147260000D03*
X226000000Y-152340000D03*
D26*
X224095000Y-114875000D03*
X228540000Y-114875000D03*
X191075000Y-134560000D03*
X191075000Y-120590000D03*
X191075000Y-125685000D03*
X191075000Y-140275000D03*
D25*
X191075000Y-139005000D03*
X231715000Y-148530000D03*
X227270000Y-152340000D03*
M02*
